<svg width="299" height="525" viewBox="0 0 299 525" fill="none" xmlns="http://www.w3.org/2000/svg">
<rect width="299" height="525" fill="white"/>
<rect x="161.5" y="16.5" width="113" height="133" fill="white" stroke="black"/>
<path d="M180.656 30.8594H177V41H175.508V30.8594H171.859V29.625H180.656V30.8594ZM183.688 41H182.242V32.5469H183.688V41ZM182.125 30.3047C182.125 30.0703 182.195 29.8724 182.336 29.7109C182.482 29.5495 182.695 29.4688 182.977 29.4688C183.258 29.4688 183.471 29.5495 183.617 29.7109C183.763 29.8724 183.836 30.0703 183.836 30.3047C183.836 30.5391 183.763 30.7344 183.617 30.8906C183.471 31.0469 183.258 31.125 182.977 31.125C182.695 31.125 182.482 31.0469 182.336 30.8906C182.195 30.7344 182.125 30.5391 182.125 30.3047ZM187.969 30.5V32.5469H189.547V33.6641H187.969V38.9062C187.969 39.2448 188.039 39.5 188.18 39.6719C188.32 39.8385 188.56 39.9219 188.898 39.9219C189.065 39.9219 189.294 39.8906 189.586 39.8281V41C189.206 41.1042 188.836 41.1562 188.477 41.1562C187.831 41.1562 187.344 40.9609 187.016 40.5703C186.688 40.1797 186.523 39.625 186.523 38.9062V33.6641H184.984V32.5469H186.523V30.5H187.969ZM192.812 41H191.367V29H192.812V41ZM198.641 41.1562C197.495 41.1562 196.562 40.7812 195.844 40.0312C195.125 39.276 194.766 38.2682 194.766 37.0078V36.7422C194.766 35.9036 194.924 35.1562 195.242 34.5C195.565 33.8385 196.013 33.3229 196.586 32.9531C197.164 32.5781 197.789 32.3906 198.461 32.3906C199.56 32.3906 200.414 32.7526 201.023 33.4766C201.633 34.2005 201.938 35.237 201.938 36.5859V37.1875H196.211C196.232 38.0208 196.474 38.6953 196.938 39.2109C197.406 39.7214 198 39.9766 198.719 39.9766C199.229 39.9766 199.661 39.8724 200.016 39.6641C200.37 39.4557 200.68 39.1797 200.945 38.8359L201.828 39.5234C201.12 40.612 200.057 41.1562 198.641 41.1562ZM198.461 33.5781C197.878 33.5781 197.388 33.7917 196.992 34.2188C196.596 34.6406 196.352 35.2344 196.258 36H200.492V35.8906C200.451 35.1562 200.253 34.5885 199.898 34.1875C199.544 33.7812 199.065 33.5781 198.461 33.5781Z" fill="black"/>
<path d="M179.354 46.0283H176.84V53H175.814V46.0283H173.306V45.1797H179.354V46.0283ZM182.232 53.1074C181.445 53.1074 180.804 52.8496 180.31 52.334C179.815 51.8148 179.568 51.1219 179.568 50.2554V50.0728C179.568 49.4963 179.678 48.9824 179.896 48.5312C180.118 48.0765 180.426 47.722 180.82 47.4678C181.217 47.21 181.647 47.0811 182.109 47.0811C182.864 47.0811 183.452 47.3299 183.871 47.8276C184.29 48.3254 184.499 49.0379 184.499 49.9653V50.3789H180.562C180.576 50.9518 180.743 51.4155 181.062 51.77C181.384 52.1209 181.792 52.2964 182.286 52.2964C182.637 52.2964 182.934 52.2248 183.178 52.0815C183.421 51.9383 183.634 51.7485 183.817 51.5122L184.424 51.9849C183.937 52.7332 183.206 53.1074 182.232 53.1074ZM182.109 47.8975C181.708 47.8975 181.371 48.0443 181.099 48.3379C180.827 48.6279 180.659 49.0361 180.594 49.5625H183.505V49.4873C183.477 48.9824 183.341 48.5921 183.097 48.3164C182.854 48.0371 182.524 47.8975 182.109 47.8975ZM187.604 49.3101L188.893 47.1885H190.053L188.151 50.062L190.112 53H188.962L187.62 50.8247L186.277 53H185.122L187.083 50.062L185.181 47.1885H186.331L187.604 49.3101ZM192.459 45.7812V47.1885H193.544V47.9565H192.459V51.5605C192.459 51.7933 192.507 51.9688 192.604 52.0869C192.701 52.2015 192.865 52.2588 193.098 52.2588C193.213 52.2588 193.37 52.2373 193.571 52.1943V53C193.309 53.0716 193.055 53.1074 192.808 53.1074C192.364 53.1074 192.029 52.9731 191.804 52.7046C191.578 52.436 191.465 52.0547 191.465 51.5605V47.9565H190.407V47.1885H191.465V45.7812H192.459Z" fill="black"/>
<rect x="173" y="95" width="88" height="44" fill="#EEEEEE"/>
<circle cx="256.5" cy="30.5" r="4.5" fill="#DDDDDD"/>
<path d="M206.115 119H205.271V112.602H206.115V119ZM208.299 114.245L208.321 114.772C208.669 114.362 209.14 114.157 209.731 114.157C210.396 114.157 210.849 114.412 211.089 114.922C211.248 114.693 211.453 114.509 211.705 114.368C211.959 114.228 212.26 114.157 212.605 114.157C213.648 114.157 214.179 114.709 214.196 115.814V119H213.383V115.862C213.383 115.522 213.306 115.269 213.15 115.102C212.995 114.932 212.734 114.847 212.368 114.847C212.066 114.847 211.816 114.938 211.617 115.12C211.417 115.298 211.302 115.54 211.27 115.845V119H210.452V115.884C210.452 115.193 210.114 114.847 209.437 114.847C208.904 114.847 208.539 115.074 208.343 115.528V119H207.53V114.245H208.299ZM218.362 119C218.315 118.906 218.277 118.739 218.248 118.499C217.87 118.892 217.419 119.088 216.895 119.088C216.426 119.088 216.041 118.956 215.739 118.692C215.44 118.426 215.291 118.089 215.291 117.682C215.291 117.187 215.478 116.803 215.853 116.53C216.231 116.255 216.761 116.117 217.444 116.117H218.235V115.744C218.235 115.459 218.15 115.234 217.98 115.067C217.81 114.897 217.56 114.812 217.229 114.812C216.938 114.812 216.695 114.885 216.499 115.032C216.303 115.178 216.205 115.355 216.205 115.563H215.387C215.387 115.326 215.471 115.098 215.638 114.878C215.808 114.655 216.036 114.479 216.323 114.351C216.613 114.222 216.931 114.157 217.277 114.157C217.825 114.157 218.254 114.295 218.564 114.57C218.875 114.843 219.036 115.219 219.048 115.7V117.888C219.048 118.325 219.104 118.672 219.215 118.93V119H218.362ZM217.013 118.38C217.268 118.38 217.51 118.314 217.738 118.183C217.967 118.051 218.132 117.879 218.235 117.668V116.693H217.598C216.602 116.693 216.104 116.984 216.104 117.567C216.104 117.822 216.188 118.021 216.358 118.165C216.528 118.309 216.747 118.38 217.013 118.38ZM220.129 116.583C220.129 115.842 220.3 115.253 220.643 114.816C220.986 114.377 221.44 114.157 222.005 114.157C222.585 114.157 223.038 114.362 223.363 114.772L223.403 114.245H224.146V118.886C224.146 119.501 223.962 119.986 223.596 120.34C223.233 120.695 222.744 120.872 222.128 120.872C221.786 120.872 221.45 120.799 221.122 120.652C220.794 120.506 220.543 120.305 220.371 120.05L220.792 119.562C221.141 119.993 221.567 120.208 222.071 120.208C222.467 120.208 222.774 120.097 222.994 119.875C223.217 119.652 223.328 119.338 223.328 118.934V118.525C223.003 118.9 222.559 119.088 221.997 119.088C221.44 119.088 220.989 118.864 220.643 118.416C220.3 117.967 220.129 117.356 220.129 116.583ZM220.946 116.675C220.946 117.211 221.056 117.633 221.276 117.941C221.496 118.246 221.803 118.398 222.199 118.398C222.711 118.398 223.088 118.165 223.328 117.699V115.528C223.079 115.074 222.706 114.847 222.208 114.847C221.812 114.847 221.503 115.001 221.28 115.309C221.058 115.616 220.946 116.072 220.946 116.675ZM227.349 119.088C226.705 119.088 226.18 118.877 225.776 118.455C225.372 118.03 225.169 117.463 225.169 116.754V116.605C225.169 116.133 225.259 115.713 225.438 115.344C225.619 114.972 225.871 114.682 226.193 114.474C226.519 114.263 226.87 114.157 227.248 114.157C227.866 114.157 228.347 114.361 228.689 114.768C229.032 115.175 229.204 115.758 229.204 116.517V116.855H225.982C225.994 117.324 226.13 117.704 226.391 117.994C226.655 118.281 226.989 118.424 227.393 118.424C227.68 118.424 227.923 118.366 228.123 118.249C228.322 118.131 228.496 117.976 228.646 117.783L229.142 118.169C228.744 118.782 228.146 119.088 227.349 119.088ZM227.248 114.825C226.92 114.825 226.645 114.945 226.422 115.186C226.199 115.423 226.062 115.757 226.009 116.188H228.391V116.126C228.367 115.713 228.256 115.394 228.057 115.168C227.857 114.939 227.588 114.825 227.248 114.825Z" fill="black"/>
<rect x="257" y="79" width="4" height="9" fill="#555555"/>
<rect x="252" y="63" width="4" height="25" fill="#555555"/>
<rect x="247" y="84" width="4" height="4" fill="#555555"/>
<rect x="242" y="75" width="4" height="13" fill="#555555"/>
<path d="M262.171 263.103L262.171 263.103C265.607 266.896 267.5 271.828 267.5 276.994C267.5 288.308 258.458 297.5 247.364 297.5H191.798H191.221C178.702 297.5 168.5 287.129 168.5 274.363C168.5 263.085 176.468 253.673 186.961 251.638L187.276 251.577L187.352 251.266C188.541 246.399 191.094 241.966 194.763 238.49L194.763 238.49C199.521 233.98 205.72 231.5 212.22 231.5C219.492 231.5 226.363 234.641 231.191 240.05L231.367 240.247L231.629 240.213C232.446 240.106 233.27 240.052 234.099 240.052C243.869 240.052 251.982 247.477 253.258 257.089L253.299 257.4L253.596 257.498C256.851 258.575 259.805 260.489 262.171 263.103Z" fill="#EEEEEE" stroke="#999999"/>
<path d="M203.727 282.361C201.998 281.873 200.694 281.067 199.815 279.944C198.946 278.831 198.512 277.356 198.512 275.521V272.605C198.512 270.232 197.477 269.046 195.406 269.046V266.922C197.477 266.922 198.512 265.74 198.512 263.377V260.33C198.531 258.543 198.966 257.103 199.815 256.009C200.675 254.905 201.979 254.104 203.727 253.606L204.283 255.291C202.242 255.945 201.222 257.649 201.222 260.403V263.362C201.222 265.579 200.406 267.122 198.775 267.991C200.406 268.87 201.222 270.428 201.222 272.664V275.682C201.251 278.367 202.271 280.032 204.283 280.677L203.727 282.361ZM206.744 275.579C206.744 275.11 206.881 274.72 207.154 274.407C207.438 274.095 207.857 273.938 208.414 273.938C208.971 273.938 209.391 274.095 209.674 274.407C209.967 274.72 210.113 275.11 210.113 275.579C210.113 276.028 209.967 276.404 209.674 276.707C209.391 277.01 208.971 277.161 208.414 277.161C207.857 277.161 207.438 277.01 207.154 276.707C206.881 276.404 206.744 276.028 206.744 275.579ZM214.654 275.579C214.654 275.11 214.791 274.72 215.064 274.407C215.348 274.095 215.768 273.938 216.324 273.938C216.881 273.938 217.301 274.095 217.584 274.407C217.877 274.72 218.023 275.11 218.023 275.579C218.023 276.028 217.877 276.404 217.584 276.707C217.301 277.01 216.881 277.161 216.324 277.161C215.768 277.161 215.348 277.01 215.064 276.707C214.791 276.404 214.654 276.028 214.654 275.579ZM222.564 275.579C222.564 275.11 222.701 274.72 222.975 274.407C223.258 274.095 223.678 273.938 224.234 273.938C224.791 273.938 225.211 274.095 225.494 274.407C225.787 274.72 225.934 275.11 225.934 275.579C225.934 276.028 225.787 276.404 225.494 276.707C225.211 277.01 224.791 277.161 224.234 277.161C223.678 277.161 223.258 277.01 222.975 276.707C222.701 276.404 222.564 276.028 222.564 275.579ZM228.644 280.677C230.626 280.042 231.651 278.426 231.72 275.828V272.605C231.72 270.35 232.604 268.812 234.371 267.991C232.604 267.19 231.72 265.652 231.72 263.377V260.403C231.72 257.649 230.699 255.945 228.658 255.291L229.215 253.606C230.943 254.095 232.242 254.891 233.111 255.994C233.98 257.088 234.42 258.538 234.43 260.345V263.421C234.43 265.755 235.465 266.922 237.535 266.922V269.046C235.465 269.046 234.43 270.232 234.43 272.605V275.564C234.43 277.4 233.985 278.87 233.097 279.974C232.218 281.077 230.924 281.873 229.215 282.361L228.644 280.677Z" fill="black"/>
<rect x="156.5" y="381.5" width="65" height="65" fill="white" stroke="black"/>
<rect x="206.5" y="399.5" width="65" height="65" fill="white" stroke="black"/>
<rect x="169.5" y="430.5" width="65" height="65" fill="white" stroke="black"/>
<rect x="214.5" y="449.5" width="65" height="65" fill="white" stroke="black"/>
<path d="M163.102 395.547V400H161.602V388.625H165.797C167.042 388.625 168.016 388.943 168.719 389.578C169.427 390.214 169.781 391.055 169.781 392.102C169.781 393.206 169.435 394.057 168.742 394.656C168.055 395.25 167.068 395.547 165.781 395.547H163.102ZM163.102 394.32H165.797C166.599 394.32 167.214 394.133 167.641 393.758C168.068 393.378 168.281 392.831 168.281 392.117C168.281 391.44 168.068 390.898 167.641 390.492C167.214 390.086 166.628 389.875 165.883 389.859H163.102V394.32ZM171.695 400V388.625H174.906C175.896 388.625 176.771 388.844 177.531 389.281C178.292 389.719 178.878 390.341 179.289 391.148C179.706 391.956 179.917 392.883 179.922 393.93V394.656C179.922 395.729 179.714 396.669 179.297 397.477C178.885 398.284 178.294 398.904 177.523 399.336C176.758 399.768 175.865 399.99 174.844 400H171.695ZM173.195 389.859V398.773H174.773C175.93 398.773 176.828 398.414 177.469 397.695C178.115 396.977 178.438 395.953 178.438 394.625V393.961C178.438 392.669 178.133 391.667 177.523 390.953C176.919 390.234 176.06 389.87 174.945 389.859H173.195ZM188.469 394.977H183.695V400H182.195V388.625H189.242V389.859H183.695V393.75H188.469V394.977Z" fill="black"/>
<path d="M186.164 447.508C185.779 448.06 185.24 448.474 184.547 448.75C183.859 449.021 183.057 449.156 182.141 449.156C181.214 449.156 180.391 448.94 179.672 448.508C178.953 448.07 178.396 447.451 178 446.648C177.609 445.846 177.409 444.917 177.398 443.859V442.867C177.398 441.154 177.797 439.826 178.594 438.883C179.396 437.94 180.521 437.469 181.969 437.469C183.156 437.469 184.112 437.773 184.836 438.383C185.56 438.987 186.003 439.846 186.164 440.961H184.664C184.383 439.456 183.487 438.703 181.977 438.703C180.971 438.703 180.208 439.057 179.688 439.766C179.172 440.469 178.911 441.49 178.906 442.828V443.758C178.906 445.034 179.198 446.049 179.781 446.805C180.365 447.555 181.154 447.93 182.148 447.93C182.711 447.93 183.203 447.867 183.625 447.742C184.047 447.617 184.396 447.406 184.672 447.109V444.555H182.039V443.336H186.164V447.508ZM190.281 449H188.781V437.625H190.281V449ZM199.305 443.977H194.531V449H193.031V437.625H200.078V438.859H194.531V442.75H199.305V443.977Z" fill="black"/>
<circle cx="211.289" cy="389.395" r="2.60526" fill="#EEEEEE"/>
<path d="M212.117 413.547V418H210.617V406.625H214.812C216.057 406.625 217.031 406.943 217.734 407.578C218.443 408.214 218.797 409.055 218.797 410.102C218.797 411.206 218.451 412.057 217.758 412.656C217.07 413.25 216.083 413.547 214.797 413.547H212.117ZM212.117 412.32H214.812C215.615 412.32 216.229 412.133 216.656 411.758C217.083 411.378 217.297 410.831 217.297 410.117C217.297 409.44 217.083 408.898 216.656 408.492C216.229 408.086 215.643 407.875 214.898 407.859H212.117V412.32ZM229.453 418H227.945L222.219 409.234V418H220.711V406.625H222.219L227.961 415.43V406.625H229.453V418ZM240.516 416.508C240.13 417.06 239.591 417.474 238.898 417.75C238.211 418.021 237.409 418.156 236.492 418.156C235.565 418.156 234.742 417.94 234.023 417.508C233.305 417.07 232.747 416.451 232.352 415.648C231.961 414.846 231.76 413.917 231.75 412.859V411.867C231.75 410.154 232.148 408.826 232.945 407.883C233.747 406.94 234.872 406.469 236.32 406.469C237.508 406.469 238.464 406.773 239.188 407.383C239.911 407.987 240.354 408.846 240.516 409.961H239.016C238.734 408.456 237.839 407.703 236.328 407.703C235.323 407.703 234.56 408.057 234.039 408.766C233.523 409.469 233.263 410.49 233.258 411.828V412.758C233.258 414.034 233.549 415.049 234.133 415.805C234.716 416.555 235.505 416.93 236.5 416.93C237.062 416.93 237.555 416.867 237.977 416.742C238.398 416.617 238.747 416.406 239.023 416.109V413.555H236.391V412.336H240.516V416.508Z" fill="black"/>
<path d="M220.141 464.414L220.359 465.914L220.68 464.562L222.93 456.625H224.195L226.391 464.562L226.703 465.938L226.945 464.406L228.711 456.625H230.219L227.461 468H226.094L223.75 459.711L223.57 458.844L223.391 459.711L220.961 468H219.594L216.844 456.625H218.344L220.141 464.414ZM238.32 462.742H233.391V466.773H239.117V468H231.891V456.625H239.039V457.859H233.391V461.516H238.32V462.742ZM240.984 468V456.625H244.703C245.938 456.625 246.865 456.88 247.484 457.391C248.109 457.901 248.422 458.656 248.422 459.656C248.422 460.188 248.271 460.659 247.969 461.07C247.667 461.477 247.255 461.792 246.734 462.016C247.349 462.188 247.833 462.516 248.188 463C248.547 463.479 248.727 464.052 248.727 464.719C248.727 465.74 248.396 466.542 247.734 467.125C247.073 467.708 246.138 468 244.93 468H240.984ZM242.484 462.68V466.773H244.961C245.659 466.773 246.208 466.594 246.609 466.234C247.016 465.87 247.219 465.37 247.219 464.734C247.219 463.365 246.474 462.68 244.984 462.68H242.484ZM242.484 461.477H244.75C245.406 461.477 245.93 461.312 246.32 460.984C246.716 460.656 246.914 460.211 246.914 459.648C246.914 459.023 246.732 458.57 246.367 458.289C246.003 458.003 245.448 457.859 244.703 457.859H242.484V461.477Z" fill="black"/>
<path d="M71.6729 167.933H81.585V172.205H71.6729V183.436H67.1318V172.205H57.2197V167.933H67.1318V157.557H71.6729V167.933Z" fill="black"/>
<path d="M79.3516 352.127H58.9902V348.196H79.3516V352.127ZM79.3516 362.259H58.9902V358.353H79.3516V362.259Z" fill="black"/>
<path d="M30.7676 80.3242H26.1973V93H24.332V80.3242H19.7715V78.7812H30.7676V80.3242ZM40.9141 86.4277H34.752V91.4668H41.9102V93H32.877V78.7812H41.8125V80.3242H34.752V84.8945H40.9141V86.4277ZM46.666 78.7812L51.3145 90.3828L55.9629 78.7812H58.3945V93H56.5195V87.4629L56.6953 81.4863L52.0273 93H50.5918L45.9336 81.5156L46.1191 87.4629V93H44.2441V78.7812H46.666ZM63.5801 87.4336V93H61.7051V78.7812H66.9492C68.5052 78.7812 69.7227 79.1784 70.6016 79.9727C71.487 80.7669 71.9297 81.8184 71.9297 83.127C71.9297 84.5072 71.4967 85.5716 70.6309 86.3203C69.7715 87.0625 68.5378 87.4336 66.9297 87.4336H63.5801ZM63.5801 85.9004H66.9492C67.9518 85.9004 68.7201 85.666 69.2539 85.1973C69.7878 84.722 70.0547 84.0384 70.0547 83.1465C70.0547 82.3001 69.7878 81.623 69.2539 81.1152C68.7201 80.6074 67.9876 80.3438 67.0566 80.3242H63.5801V85.9004ZM76.207 91.4668H82.9453V93H74.3223V78.7812H76.207V91.4668ZM93.1309 89.2891H87.1738L85.8359 93H83.9023L89.332 78.7812H90.9727L96.4121 93H94.4883L93.1309 89.2891ZM87.7402 87.7461H92.5742L90.1523 81.0957L87.7402 87.7461ZM106.881 80.3242H102.311V93H100.445V80.3242H95.8848V78.7812H106.881V80.3242ZM117.027 86.4277H110.865V91.4668H118.023V93H108.99V78.7812H117.926V80.3242H110.865V84.8945H117.027V86.4277Z" fill="black"/>
<path d="M46.707 272V257.781H50.7207C51.9577 257.781 53.0514 258.055 54.002 258.602C54.9525 259.148 55.6849 259.926 56.1992 260.936C56.7201 261.945 56.9837 263.104 56.9902 264.412V265.32C56.9902 266.661 56.7298 267.837 56.209 268.846C55.6947 269.855 54.9557 270.63 53.9922 271.17C53.0352 271.71 51.9186 271.987 50.6426 272H46.707ZM48.582 259.324V270.467H50.5547C52 270.467 53.123 270.018 53.9238 269.119C54.7311 268.221 55.1348 266.941 55.1348 265.281V264.451C55.1348 262.837 54.7539 261.583 53.9922 260.691C53.237 259.793 52.1628 259.337 50.7695 259.324H48.582ZM67.4688 268.289H61.5117L60.1738 272H58.2402L63.6699 257.781H65.3105L70.75 272H68.8262L67.4688 268.289ZM62.0781 266.746H66.9121L64.4902 260.096L62.0781 266.746ZM81.2188 259.324H76.6484V272H74.7832V259.324H70.2227V257.781H81.2188V259.324ZM90.3984 268.289H84.4414L83.1035 272H81.1699L86.5996 257.781H88.2402L93.6797 272H91.7559L90.3984 268.289ZM85.0078 266.746H89.8418L87.4199 260.096L85.0078 266.746Z" fill="black"/>
<path d="M10.9922 451V436.781H15.0059C16.2428 436.781 17.3366 437.055 18.2871 437.602C19.2376 438.148 19.9701 438.926 20.4844 439.936C21.0052 440.945 21.2689 442.104 21.2754 443.412V444.32C21.2754 445.661 21.015 446.837 20.4941 447.846C19.9798 448.855 19.2409 449.63 18.2773 450.17C17.3203 450.71 16.2038 450.987 14.9277 451H10.9922ZM12.8672 438.324V449.467H14.8398C16.2852 449.467 17.4082 449.018 18.209 448.119C19.0163 447.221 19.4199 445.941 19.4199 444.281V443.451C19.4199 441.837 19.0391 440.583 18.2773 439.691C17.5221 438.793 16.4479 438.337 15.0547 438.324H12.8672ZM35.0547 444.35C35.0547 445.743 34.8203 446.96 34.3516 448.002C33.8828 449.037 33.2188 449.828 32.3594 450.375C31.5 450.922 30.4974 451.195 29.3516 451.195C28.2318 451.195 27.2389 450.922 26.373 450.375C25.5072 449.822 24.8333 449.037 24.3516 448.021C23.8763 446.999 23.6322 445.818 23.6191 444.477V443.451C23.6191 442.084 23.8568 440.876 24.332 439.828C24.8073 438.78 25.4779 437.979 26.3438 437.426C27.2161 436.866 28.2122 436.586 29.332 436.586C30.4714 436.586 31.474 436.863 32.3398 437.416C33.2122 437.963 33.8828 438.76 34.3516 439.809C34.8203 440.85 35.0547 442.064 35.0547 443.451V444.35ZM33.1895 443.432C33.1895 441.745 32.8509 440.453 32.1738 439.555C31.4967 438.65 30.5495 438.197 29.332 438.197C28.1471 438.197 27.2129 438.65 26.5293 439.555C25.8522 440.453 25.5039 441.703 25.4844 443.305V444.35C25.4844 445.984 25.8262 447.27 26.5098 448.207C27.1999 449.138 28.1471 449.604 29.3516 449.604C30.5625 449.604 31.5 449.164 32.1641 448.285C32.8281 447.4 33.1699 446.133 33.1895 444.486V443.432ZM48.3262 446.488C48.1504 447.992 47.5938 449.154 46.6562 449.975C45.7253 450.788 44.485 451.195 42.9355 451.195C41.2559 451.195 39.9082 450.593 38.8926 449.389C37.8835 448.184 37.3789 446.573 37.3789 444.555V443.188C37.3789 441.866 37.6133 440.704 38.082 439.701C38.5573 438.699 39.2279 437.93 40.0938 437.396C40.9596 436.856 41.9622 436.586 43.1016 436.586C44.612 436.586 45.8229 437.009 46.7344 437.855C47.6458 438.695 48.1764 439.861 48.3262 441.352H46.4414C46.2786 440.219 45.9238 439.398 45.377 438.891C44.8366 438.383 44.0781 438.129 43.1016 438.129C41.9036 438.129 40.9629 438.572 40.2793 439.457C39.6022 440.342 39.2637 441.602 39.2637 443.236V444.613C39.2637 446.156 39.5859 447.383 40.2305 448.295C40.875 449.206 41.7767 449.662 42.9355 449.662C43.9772 449.662 44.7747 449.428 45.3281 448.959C45.888 448.484 46.2591 447.66 46.4414 446.488H48.3262ZM60.9043 436.781V446.449C60.8978 447.79 60.4746 448.887 59.6348 449.74C58.8014 450.593 57.6686 451.072 56.2363 451.176L55.7383 451.195C54.1823 451.195 52.9421 450.775 52.0176 449.936C51.0931 449.096 50.6243 447.94 50.6113 446.469V436.781H52.4668V446.41C52.4668 447.439 52.75 448.24 53.3164 448.812C53.8828 449.379 54.6901 449.662 55.7383 449.662C56.7995 449.662 57.61 449.379 58.1699 448.812C58.7363 448.246 59.0195 447.449 59.0195 446.42V436.781H60.9043ZM66.2852 436.781L70.9336 448.383L75.582 436.781H78.0137V451H76.1387V445.463L76.3145 439.486L71.6465 451H70.2109L65.5527 439.516L65.7383 445.463V451H63.8633V436.781H66.2852ZM89.3613 444.428H83.1992V449.467H90.3574V451H81.3242V436.781H90.2598V438.324H83.1992V442.895H89.3613V444.428ZM103.619 451H101.734L94.5762 440.043V451H92.6914V436.781H94.5762L101.754 447.787V436.781H103.619V451ZM116.48 438.324H111.91V451H110.045V438.324H105.484V436.781H116.48V438.324ZM122.623 444.662C121.015 444.2 119.843 443.633 119.107 442.963C118.378 442.286 118.014 441.452 118.014 440.463C118.014 439.343 118.46 438.419 119.352 437.689C120.25 436.954 121.415 436.586 122.848 436.586C123.824 436.586 124.693 436.775 125.455 437.152C126.223 437.53 126.816 438.051 127.232 438.715C127.656 439.379 127.867 440.105 127.867 440.893H125.982C125.982 440.033 125.709 439.359 125.162 438.871C124.615 438.376 123.844 438.129 122.848 438.129C121.923 438.129 121.201 438.334 120.68 438.744C120.165 439.148 119.908 439.711 119.908 440.434C119.908 441.013 120.152 441.505 120.641 441.908C121.135 442.305 121.972 442.67 123.15 443.002C124.335 443.334 125.26 443.702 125.924 444.105C126.594 444.503 127.089 444.968 127.408 445.502C127.734 446.036 127.896 446.664 127.896 447.387C127.896 448.539 127.447 449.464 126.549 450.16C125.65 450.85 124.449 451.195 122.945 451.195C121.969 451.195 121.057 451.01 120.211 450.639C119.365 450.261 118.71 449.747 118.248 449.096C117.792 448.445 117.564 447.706 117.564 446.879H119.449C119.449 447.738 119.765 448.419 120.396 448.92C121.035 449.415 121.884 449.662 122.945 449.662C123.935 449.662 124.693 449.46 125.221 449.057C125.748 448.653 126.012 448.103 126.012 447.406C126.012 446.71 125.768 446.173 125.279 445.795C124.791 445.411 123.906 445.033 122.623 444.662Z" fill="black"/>
<line x1="138.5" y1="26" x2="138.5" y2="497" stroke="#CCCCCC"/>
</svg>
