<svg width="622" height="221" viewBox="0 0 622 221" fill="none" xmlns="http://www.w3.org/2000/svg">
<rect width="622" height="221" fill="white"/>
<path d="M59.7676 31.3242H55.1973V44H53.332V31.3242H48.7715V29.7812H59.7676V31.3242ZM69.9141 37.4277H63.752V42.4668H70.9102V44H61.877V29.7812H70.8125V31.3242H63.752V35.8945H69.9141V37.4277ZM75.666 29.7812L80.3145 41.3828L84.9629 29.7812H87.3945V44H85.5195V38.4629L85.6953 32.4863L81.0273 44H79.5918L74.9336 32.5156L75.1191 38.4629V44H73.2441V29.7812H75.666ZM92.5801 38.4336V44H90.7051V29.7812H95.9492C97.5052 29.7812 98.7227 30.1784 99.6016 30.9727C100.487 31.7669 100.93 32.8184 100.93 34.127C100.93 35.5072 100.497 36.5716 99.6309 37.3203C98.7715 38.0625 97.5378 38.4336 95.9297 38.4336H92.5801ZM92.5801 36.9004H95.9492C96.9518 36.9004 97.7201 36.666 98.2539 36.1973C98.7878 35.722 99.0547 35.0384 99.0547 34.1465C99.0547 33.3001 98.7878 32.623 98.2539 32.1152C97.7201 31.6074 96.9876 31.3438 96.0566 31.3242H92.5801V36.9004ZM105.207 42.4668H111.945V44H103.322V29.7812H105.207V42.4668ZM122.131 40.2891H116.174L114.836 44H112.902L118.332 29.7812H119.973L125.412 44H123.488L122.131 40.2891ZM116.74 38.7461H121.574L119.152 32.0957L116.74 38.7461ZM135.881 31.3242H131.311V44H129.445V31.3242H124.885V29.7812H135.881V31.3242ZM146.027 37.4277H139.865V42.4668H147.023V44H137.99V29.7812H146.926V31.3242H139.865V35.8945H146.027V37.4277Z" fill="black"/>
<path d="M213.673 114.933H223.585V119.205H213.673V130.436H209.132V119.205H199.22V114.933H209.132V104.557H213.673V114.933Z" fill="black"/>
<path d="M417.352 114.127H396.99V110.196H417.352V114.127ZM417.352 124.259H396.99V120.353H417.352V124.259Z" fill="black"/>
<path d="M283.707 44V29.7812H287.721C288.958 29.7812 290.051 30.0547 291.002 30.6016C291.952 31.1484 292.685 31.9264 293.199 32.9355C293.72 33.9447 293.984 35.1035 293.99 36.4121V37.3203C293.99 38.6615 293.73 39.8366 293.209 40.8457C292.695 41.8548 291.956 42.6296 290.992 43.1699C290.035 43.7103 288.919 43.987 287.643 44H283.707ZM285.582 31.3242V42.4668H287.555C289 42.4668 290.123 42.0176 290.924 41.1191C291.731 40.2207 292.135 38.9414 292.135 37.2812V36.4512C292.135 34.8366 291.754 33.5833 290.992 32.6914C290.237 31.793 289.163 31.3372 287.77 31.3242H285.582ZM304.469 40.2891H298.512L297.174 44H295.24L300.67 29.7812H302.311L307.75 44H305.826L304.469 40.2891ZM299.078 38.7461H303.912L301.49 32.0957L299.078 38.7461ZM318.219 31.3242H313.648V44H311.783V31.3242H307.223V29.7812H318.219V31.3242ZM327.398 40.2891H321.441L320.104 44H318.17L323.6 29.7812H325.24L330.68 44H328.756L327.398 40.2891ZM322.008 38.7461H326.842L324.42 32.0957L322.008 38.7461Z" fill="black"/>
<path d="M491.227 29.7812V44H489.342V29.7812H491.227ZM495.25 29.7812H497.076L501.734 41.373L506.383 29.7812H508.219L502.438 44H501.012L495.25 29.7812ZM494.654 29.7812H496.266L496.529 38.4531V44H494.654V29.7812ZM507.193 29.7812H508.805V44H506.93V38.4531L507.193 29.7812ZM517.555 31.041L512.848 44H510.924L516.344 29.7812H517.584L517.555 31.041ZM521.5 44L516.783 31.041L516.754 29.7812H517.994L523.434 44H521.5ZM521.256 38.7363V40.2793H513.268V38.7363H521.256ZM535.729 36.9199V42.125C535.553 42.3854 535.273 42.6784 534.889 43.0039C534.505 43.3229 533.974 43.6029 533.297 43.8438C532.626 44.0781 531.76 44.1953 530.699 44.1953C529.833 44.1953 529.036 44.0456 528.307 43.7461C527.584 43.4401 526.956 42.9974 526.422 42.418C525.895 41.832 525.484 41.1224 525.191 40.2891C524.905 39.4492 524.762 38.4987 524.762 37.4375V36.334C524.762 35.2728 524.885 34.3255 525.133 33.4922C525.387 32.6589 525.758 31.9525 526.246 31.373C526.734 30.7871 527.333 30.3444 528.043 30.0449C528.753 29.7389 529.566 29.5859 530.484 29.5859C531.572 29.5859 532.48 29.7747 533.209 30.1523C533.945 30.5234 534.518 31.0378 534.928 31.6953C535.344 32.3529 535.611 33.1016 535.729 33.9414H533.844C533.759 33.4271 533.59 32.9583 533.336 32.5352C533.089 32.112 532.734 31.7734 532.271 31.5195C531.809 31.2591 531.214 31.1289 530.484 31.1289C529.827 31.1289 529.257 31.2493 528.775 31.4902C528.294 31.7311 527.896 32.0762 527.584 32.5254C527.271 32.9746 527.037 33.5182 526.881 34.1562C526.731 34.7943 526.656 35.5137 526.656 36.3145V37.4375C526.656 38.2578 526.751 38.9902 526.939 39.6348C527.135 40.2793 527.411 40.8294 527.77 41.2852C528.128 41.7344 528.554 42.0762 529.049 42.3105C529.55 42.5449 530.104 42.6621 530.709 42.6621C531.38 42.6621 531.923 42.6068 532.34 42.4961C532.757 42.3789 533.082 42.2422 533.316 42.0859C533.551 41.9232 533.73 41.7702 533.854 41.627V38.4434H530.562V36.9199H535.729ZM547.887 42.4668V44H540.357V42.4668H547.887ZM540.738 29.7812V44H538.854V29.7812H540.738ZM546.891 35.8945V37.4277H540.357V35.8945H546.891ZM547.789 29.7812V31.3242H540.357V29.7812H547.789ZM557.799 40.4062C557.799 40.0742 557.747 39.7812 557.643 39.5273C557.545 39.2669 557.369 39.0326 557.115 38.8242C556.868 38.6159 556.523 38.4173 556.08 38.2285C555.644 38.0397 555.09 37.8477 554.42 37.6523C553.717 37.444 553.082 37.2129 552.516 36.959C551.949 36.6986 551.464 36.4023 551.061 36.0703C550.657 35.7383 550.348 35.3574 550.133 34.9277C549.918 34.498 549.811 34.0065 549.811 33.4531C549.811 32.8997 549.924 32.3887 550.152 31.9199C550.38 31.4512 550.706 31.0443 551.129 30.6992C551.559 30.3477 552.07 30.0742 552.662 29.8789C553.255 29.6836 553.915 29.5859 554.645 29.5859C555.712 29.5859 556.617 29.791 557.359 30.2012C558.108 30.6048 558.678 31.1354 559.068 31.793C559.459 32.444 559.654 33.1406 559.654 33.8828H557.779C557.779 33.349 557.665 32.877 557.438 32.4668C557.21 32.0501 556.865 31.7246 556.402 31.4902C555.94 31.2493 555.354 31.1289 554.645 31.1289C553.974 31.1289 553.421 31.2298 552.984 31.4316C552.548 31.6335 552.223 31.9069 552.008 32.252C551.799 32.597 551.695 32.9909 551.695 33.4336C551.695 33.7331 551.757 34.0065 551.881 34.2539C552.011 34.4948 552.21 34.7194 552.477 34.9277C552.75 35.1361 553.095 35.3281 553.512 35.5039C553.935 35.6797 554.439 35.849 555.025 36.0117C555.833 36.2396 556.529 36.4935 557.115 36.7734C557.701 37.0534 558.183 37.3691 558.561 37.7207C558.945 38.0658 559.228 38.4596 559.41 38.9023C559.599 39.3385 559.693 39.8333 559.693 40.3867C559.693 40.9661 559.576 41.4902 559.342 41.959C559.107 42.4277 558.772 42.8281 558.336 43.1602C557.9 43.4922 557.376 43.7493 556.764 43.9316C556.158 44.1074 555.481 44.1953 554.732 44.1953C554.075 44.1953 553.427 44.1042 552.789 43.9219C552.158 43.7396 551.581 43.4661 551.061 43.1016C550.546 42.737 550.133 42.2878 549.82 41.7539C549.514 41.2135 549.361 40.5885 549.361 39.8789H551.236C551.236 40.3672 551.331 40.7871 551.52 41.1387C551.708 41.4837 551.965 41.7702 552.291 41.998C552.623 42.2259 552.997 42.3952 553.414 42.5059C553.837 42.61 554.277 42.6621 554.732 42.6621C555.39 42.6621 555.947 42.571 556.402 42.3887C556.858 42.2064 557.203 41.946 557.438 41.6074C557.678 41.2689 557.799 40.8685 557.799 40.4062Z" fill="black"/>
<rect x="464.5" y="64.5" width="65" height="65" fill="#FFECEC" stroke="black"/>
<rect x="514.5" y="82.5" width="65" height="65" fill="#FFF9DD" stroke="black"/>
<rect x="477.5" y="113.5" width="65" height="65" fill="#ECFFF8" stroke="black"/>
<rect x="522.5" y="132.5" width="65" height="65" fill="#E8EAFF" stroke="black"/>
<circle cx="519.289" cy="72.3947" r="2.60526" fill="#EEEEEE"/>
<path d="M520.117 93.5469V98H518.617V86.625H522.812C524.057 86.625 525.031 86.9427 525.734 87.5781C526.443 88.2135 526.797 89.0547 526.797 90.1016C526.797 91.2057 526.451 92.0573 525.758 92.6562C525.07 93.25 524.083 93.5469 522.797 93.5469H520.117ZM520.117 92.3203H522.812C523.615 92.3203 524.229 92.1328 524.656 91.7578C525.083 91.3776 525.297 90.8307 525.297 90.1172C525.297 89.4401 525.083 88.8984 524.656 88.4922C524.229 88.0859 523.643 87.875 522.898 87.8594H520.117V92.3203ZM537.453 98H535.945L530.219 89.2344V98H528.711V86.625H530.219L535.961 95.4297V86.625H537.453V98ZM548.516 96.5078C548.13 97.0599 547.591 97.474 546.898 97.75C546.211 98.0208 545.409 98.1562 544.492 98.1562C543.565 98.1562 542.742 97.9401 542.023 97.5078C541.305 97.0703 540.747 96.4505 540.352 95.6484C539.961 94.8464 539.76 93.9167 539.75 92.8594V91.8672C539.75 90.1536 540.148 88.8255 540.945 87.8828C541.747 86.9401 542.872 86.4688 544.32 86.4688C545.508 86.4688 546.464 86.7734 547.188 87.3828C547.911 87.987 548.354 88.8464 548.516 89.9609H547.016C546.734 88.4557 545.839 87.7031 544.328 87.7031C543.323 87.7031 542.56 88.0573 542.039 88.7656C541.523 89.4688 541.263 90.4896 541.258 91.8281V92.7578C541.258 94.0339 541.549 95.0495 542.133 95.8047C542.716 96.5547 543.505 96.9297 544.5 96.9297C545.062 96.9297 545.555 96.8672 545.977 96.7422C546.398 96.6172 546.747 96.4062 547.023 96.1094V93.5547H544.391V92.3359H548.516V96.5078Z" fill="black"/>
<path d="M470.117 76.5469V81H468.617V69.625H472.812C474.057 69.625 475.031 69.9427 475.734 70.5781C476.443 71.2135 476.797 72.0547 476.797 73.1016C476.797 74.2057 476.451 75.0573 475.758 75.6562C475.07 76.25 474.083 76.5469 472.797 76.5469H470.117ZM470.117 75.3203H472.812C473.615 75.3203 474.229 75.1328 474.656 74.7578C475.083 74.3776 475.297 73.8307 475.297 73.1172C475.297 72.4401 475.083 71.8984 474.656 71.4922C474.229 71.0859 473.643 70.875 472.898 70.8594H470.117V75.3203ZM487.453 81H485.945L480.219 72.2344V81H478.711V69.625H480.219L485.961 78.4297V69.625H487.453V81ZM498.516 79.5078C498.13 80.0599 497.591 80.474 496.898 80.75C496.211 81.0208 495.409 81.1562 494.492 81.1562C493.565 81.1562 492.742 80.9401 492.023 80.5078C491.305 80.0703 490.747 79.4505 490.352 78.6484C489.961 77.8464 489.76 76.9167 489.75 75.8594V74.8672C489.75 73.1536 490.148 71.8255 490.945 70.8828C491.747 69.9401 492.872 69.4688 494.32 69.4688C495.508 69.4688 496.464 69.7734 497.188 70.3828C497.911 70.987 498.354 71.8464 498.516 72.9609H497.016C496.734 71.4557 495.839 70.7031 494.328 70.7031C493.323 70.7031 492.56 71.0573 492.039 71.7656C491.523 72.4688 491.263 73.4896 491.258 74.8281V75.7578C491.258 77.0339 491.549 78.0495 492.133 78.8047C492.716 79.5547 493.505 79.9297 494.5 79.9297C495.062 79.9297 495.555 79.8672 495.977 79.7422C496.398 79.6172 496.747 79.4062 497.023 79.1094V76.5547H494.391V75.3359H498.516V79.5078Z" fill="black"/>
<path d="M484.117 127.547V132H482.617V120.625H486.812C488.057 120.625 489.031 120.943 489.734 121.578C490.443 122.214 490.797 123.055 490.797 124.102C490.797 125.206 490.451 126.057 489.758 126.656C489.07 127.25 488.083 127.547 486.797 127.547H484.117ZM484.117 126.32H486.812C487.615 126.32 488.229 126.133 488.656 125.758C489.083 125.378 489.297 124.831 489.297 124.117C489.297 123.44 489.083 122.898 488.656 122.492C488.229 122.086 487.643 121.875 486.898 121.859H484.117V126.32ZM501.453 132H499.945L494.219 123.234V132H492.711V120.625H494.219L499.961 129.43V120.625H501.453V132ZM512.516 130.508C512.13 131.06 511.591 131.474 510.898 131.75C510.211 132.021 509.409 132.156 508.492 132.156C507.565 132.156 506.742 131.94 506.023 131.508C505.305 131.07 504.747 130.451 504.352 129.648C503.961 128.846 503.76 127.917 503.75 126.859V125.867C503.75 124.154 504.148 122.826 504.945 121.883C505.747 120.94 506.872 120.469 508.32 120.469C509.508 120.469 510.464 120.773 511.188 121.383C511.911 121.987 512.354 122.846 512.516 123.961H511.016C510.734 122.456 509.839 121.703 508.328 121.703C507.323 121.703 506.56 122.057 506.039 122.766C505.523 123.469 505.263 124.49 505.258 125.828V126.758C505.258 128.034 505.549 129.049 506.133 129.805C506.716 130.555 507.505 130.93 508.5 130.93C509.062 130.93 509.555 130.867 509.977 130.742C510.398 130.617 510.747 130.406 511.023 130.109V127.555H508.391V126.336H512.516V130.508Z" fill="black"/>
<path d="M529.117 145.547V150H527.617V138.625H531.812C533.057 138.625 534.031 138.943 534.734 139.578C535.443 140.214 535.797 141.055 535.797 142.102C535.797 143.206 535.451 144.057 534.758 144.656C534.07 145.25 533.083 145.547 531.797 145.547H529.117ZM529.117 144.32H531.812C532.615 144.32 533.229 144.133 533.656 143.758C534.083 143.378 534.297 142.831 534.297 142.117C534.297 141.44 534.083 140.898 533.656 140.492C533.229 140.086 532.643 139.875 531.898 139.859H529.117V144.32ZM546.453 150H544.945L539.219 141.234V150H537.711V138.625H539.219L544.961 147.43V138.625H546.453V150ZM557.516 148.508C557.13 149.06 556.591 149.474 555.898 149.75C555.211 150.021 554.409 150.156 553.492 150.156C552.565 150.156 551.742 149.94 551.023 149.508C550.305 149.07 549.747 148.451 549.352 147.648C548.961 146.846 548.76 145.917 548.75 144.859V143.867C548.75 142.154 549.148 140.826 549.945 139.883C550.747 138.94 551.872 138.469 553.32 138.469C554.508 138.469 555.464 138.773 556.188 139.383C556.911 139.987 557.354 140.846 557.516 141.961H556.016C555.734 140.456 554.839 139.703 553.328 139.703C552.323 139.703 551.56 140.057 551.039 140.766C550.523 141.469 550.263 142.49 550.258 143.828V144.758C550.258 146.034 550.549 147.049 551.133 147.805C551.716 148.555 552.505 148.93 553.5 148.93C554.062 148.93 554.555 148.867 554.977 148.742C555.398 148.617 555.747 148.406 556.023 148.109V145.555H553.391V144.336H557.516V148.508Z" fill="black"/>
<path d="M355.171 115.103L355.171 115.103C358.607 118.896 360.5 123.828 360.5 128.994C360.5 140.308 351.458 149.5 340.364 149.5H284.798H284.221C271.702 149.5 261.5 139.129 261.5 126.363C261.5 115.085 269.468 105.673 279.961 103.638L280.276 103.577L280.352 103.266C281.541 98.3994 284.094 93.9663 287.763 90.4898L287.763 90.4897C292.521 85.9803 298.72 83.5 305.22 83.5C312.492 83.5 319.363 86.6414 324.191 92.0497L324.367 92.2467L324.629 92.2126C325.446 92.1062 326.27 92.0523 327.099 92.0523C336.869 92.0523 344.982 99.4765 346.258 109.089L346.299 109.4L346.596 109.498C349.851 110.575 352.805 112.489 355.171 115.103Z" fill="#EEEEEE" stroke="black"/>
<path d="M296.727 134.361C294.998 133.873 293.694 133.067 292.815 131.944C291.946 130.831 291.512 129.356 291.512 127.521V124.605C291.512 122.232 290.477 121.046 288.406 121.046V118.922C290.477 118.922 291.512 117.74 291.512 115.377V112.33C291.531 110.543 291.966 109.103 292.815 108.009C293.675 106.905 294.979 106.104 296.727 105.606L297.283 107.291C295.242 107.945 294.222 109.649 294.222 112.403V115.362C294.222 117.579 293.406 119.122 291.775 119.991C293.406 120.87 294.222 122.428 294.222 124.664V127.682C294.251 130.367 295.271 132.032 297.283 132.677L296.727 134.361ZM299.744 127.579C299.744 127.11 299.881 126.72 300.154 126.407C300.438 126.095 300.857 125.938 301.414 125.938C301.971 125.938 302.391 126.095 302.674 126.407C302.967 126.72 303.113 127.11 303.113 127.579C303.113 128.028 302.967 128.404 302.674 128.707C302.391 129.01 301.971 129.161 301.414 129.161C300.857 129.161 300.438 129.01 300.154 128.707C299.881 128.404 299.744 128.028 299.744 127.579ZM307.654 127.579C307.654 127.11 307.791 126.72 308.064 126.407C308.348 126.095 308.768 125.938 309.324 125.938C309.881 125.938 310.301 126.095 310.584 126.407C310.877 126.72 311.023 127.11 311.023 127.579C311.023 128.028 310.877 128.404 310.584 128.707C310.301 129.01 309.881 129.161 309.324 129.161C308.768 129.161 308.348 129.01 308.064 128.707C307.791 128.404 307.654 128.028 307.654 127.579ZM315.564 127.579C315.564 127.11 315.701 126.72 315.975 126.407C316.258 126.095 316.678 125.938 317.234 125.938C317.791 125.938 318.211 126.095 318.494 126.407C318.787 126.72 318.934 127.11 318.934 127.579C318.934 128.028 318.787 128.404 318.494 128.707C318.211 129.01 317.791 129.161 317.234 129.161C316.678 129.161 316.258 129.01 315.975 128.707C315.701 128.404 315.564 128.028 315.564 127.579ZM321.644 132.677C323.626 132.042 324.651 130.426 324.72 127.828V124.605C324.72 122.35 325.604 120.812 327.371 119.991C325.604 119.19 324.72 117.652 324.72 115.377V112.403C324.72 109.649 323.699 107.945 321.658 107.291L322.215 105.606C323.943 106.095 325.242 106.891 326.111 107.994C326.98 109.088 327.42 110.538 327.43 112.345V115.421C327.43 117.755 328.465 118.922 330.535 118.922V121.046C328.465 121.046 327.43 122.232 327.43 124.605V127.564C327.43 129.4 326.985 130.87 326.097 131.974C325.218 133.077 323.924 133.873 322.215 134.361L321.644 132.677Z" fill="black"/>
<rect x="41.5" y="64.5" width="113" height="133" fill="white" stroke="black"/>
<g clip-path="url(#clip0_1_2)">
<path d="M60.5 83C60.5 82.0275 60.8951 81.0949 61.5983 80.4073C62.3016 79.7196 63.2554 79.3333 64.25 79.3333C65.2446 79.3333 66.1984 79.7196 66.9017 80.4073C67.6049 81.0949 68 82.0275 68 83C68 83.9725 67.6049 84.9051 66.9017 85.5927C66.1984 86.2804 65.2446 86.6667 64.25 86.6667C63.2554 86.6667 62.3016 86.2804 61.5983 85.5927C60.8951 84.9051 60.5 83.9725 60.5 83Z" fill="#1ABCFE"/>
<path d="M53 90.3333C53 89.3609 53.3951 88.4282 54.0983 87.7406C54.8016 87.053 55.7554 86.6667 56.75 86.6667H60.5V90.3333C60.5 91.3058 60.1049 92.2384 59.4017 92.9261C58.6984 93.6137 57.7446 94 56.75 94C55.7554 94 54.8016 93.6137 54.0983 92.9261C53.3951 92.2384 53 91.3058 53 90.3333V90.3333Z" fill="#0ACF83"/>
<path d="M60.5 72V79.3333H64.25C65.2446 79.3333 66.1984 78.947 66.9017 78.2594C67.6049 77.5718 68 76.6391 68 75.6667C68 74.6942 67.6049 73.7616 66.9017 73.0739C66.1984 72.3863 65.2446 72 64.25 72H60.5Z" fill="#FF7262"/>
<path d="M53 75.6667C53 76.6391 53.3951 77.5718 54.0983 78.2594C54.8016 78.947 55.7554 79.3333 56.75 79.3333H60.5V72H56.75C55.7554 72 54.8016 72.3863 54.0983 73.0739C53.3951 73.7616 53 74.6942 53 75.6667V75.6667Z" fill="#F24E1E"/>
<path d="M53 83C53 83.9725 53.3951 84.9051 54.0983 85.5927C54.8016 86.2804 55.7554 86.6667 56.75 86.6667H60.5V79.3333H56.75C55.7554 79.3333 54.8016 79.7196 54.0983 80.4073C53.3951 81.0949 53 82.0275 53 83V83Z" fill="#A259FF"/>
</g>
<path d="M83.6562 73.8594H80V84H78.5078V73.8594H74.8594V72.625H83.6562V73.8594ZM86.6875 84H85.2422V75.5469H86.6875V84ZM85.125 73.3047C85.125 73.0703 85.1953 72.8724 85.3359 72.7109C85.4818 72.5495 85.6953 72.4688 85.9766 72.4688C86.2578 72.4688 86.4714 72.5495 86.6172 72.7109C86.763 72.8724 86.8359 73.0703 86.8359 73.3047C86.8359 73.5391 86.763 73.7344 86.6172 73.8906C86.4714 74.0469 86.2578 74.125 85.9766 74.125C85.6953 74.125 85.4818 74.0469 85.3359 73.8906C85.1953 73.7344 85.125 73.5391 85.125 73.3047ZM90.9688 73.5V75.5469H92.5469V76.6641H90.9688V81.9062C90.9688 82.2448 91.0391 82.5 91.1797 82.6719C91.3203 82.8385 91.5599 82.9219 91.8984 82.9219C92.0651 82.9219 92.2943 82.8906 92.5859 82.8281V84C92.2057 84.1042 91.8359 84.1562 91.4766 84.1562C90.8307 84.1562 90.3438 83.9609 90.0156 83.5703C89.6875 83.1797 89.5234 82.625 89.5234 81.9062V76.6641H87.9844V75.5469H89.5234V73.5H90.9688ZM95.8125 84H94.3672V72H95.8125V84ZM101.641 84.1562C100.495 84.1562 99.5625 83.7812 98.8438 83.0312C98.125 82.276 97.7656 81.2682 97.7656 80.0078V79.7422C97.7656 78.9036 97.9245 78.1562 98.2422 77.5C98.5651 76.8385 99.013 76.3229 99.5859 75.9531C100.164 75.5781 100.789 75.3906 101.461 75.3906C102.56 75.3906 103.414 75.7526 104.023 76.4766C104.633 77.2005 104.938 78.237 104.938 79.5859V80.1875H99.2109C99.2318 81.0208 99.474 81.6953 99.9375 82.2109C100.406 82.7214 101 82.9766 101.719 82.9766C102.229 82.9766 102.661 82.8724 103.016 82.6641C103.37 82.4557 103.68 82.1797 103.945 81.8359L104.828 82.5234C104.12 83.612 103.057 84.1562 101.641 84.1562ZM101.461 76.5781C100.878 76.5781 100.388 76.7917 99.9922 77.2188C99.5964 77.6406 99.3516 78.2344 99.2578 79H103.492V78.8906C103.451 78.1562 103.253 77.5885 102.898 77.1875C102.544 76.7812 102.065 76.5781 101.461 76.5781Z" fill="black"/>
<path d="M59.3535 113.028H56.8398V120H55.814V113.028H53.3057V112.18H59.3535V113.028ZM62.2324 120.107C61.4447 120.107 60.8037 119.85 60.3096 119.334C59.8154 118.815 59.5684 118.122 59.5684 117.255V117.073C59.5684 116.496 59.6776 115.982 59.896 115.531C60.118 115.076 60.4259 114.722 60.8198 114.468C61.2173 114.21 61.647 114.081 62.1089 114.081C62.8644 114.081 63.4517 114.33 63.8706 114.828C64.2896 115.325 64.499 116.038 64.499 116.965V117.379H60.562C60.5763 117.952 60.7428 118.416 61.0615 118.77C61.3838 119.121 61.792 119.296 62.2861 119.296C62.637 119.296 62.9342 119.225 63.1777 119.082C63.4212 118.938 63.6343 118.749 63.8169 118.512L64.4238 118.985C63.9368 119.733 63.2064 120.107 62.2324 120.107ZM62.1089 114.897C61.7078 114.897 61.3713 115.044 61.0991 115.338C60.827 115.628 60.6587 116.036 60.5942 116.562H63.5054V116.487C63.4767 115.982 63.3407 115.592 63.0972 115.316C62.8537 115.037 62.5243 114.897 62.1089 114.897ZM67.6035 116.31L68.8926 114.188H70.0527L68.1514 117.062L70.1118 120H68.9624L67.6196 117.825L66.2769 120H65.1221L67.0825 117.062L65.1812 114.188H66.3306L67.6035 116.31ZM72.459 112.781V114.188H73.5439V114.957H72.459V118.561C72.459 118.793 72.5073 118.969 72.604 119.087C72.7007 119.201 72.8654 119.259 73.0981 119.259C73.2127 119.259 73.3703 119.237 73.5708 119.194V120C73.3094 120.072 73.0552 120.107 72.8081 120.107C72.3641 120.107 72.0293 119.973 71.8037 119.705C71.5781 119.436 71.4653 119.055 71.4653 118.561V114.957H70.4072V114.188H71.4653V112.781H72.459Z" fill="black"/>
<rect x="53" y="143" width="88" height="44" fill="#EEEEEE"/>
<path d="M86.1147 167H85.271V160.602H86.1147V167ZM88.2988 162.245L88.3208 162.772C88.6694 162.362 89.1396 162.157 89.7314 162.157C90.3965 162.157 90.8491 162.412 91.0894 162.922C91.2476 162.693 91.4526 162.509 91.7046 162.368C91.9595 162.228 92.2598 162.157 92.6055 162.157C93.6484 162.157 94.1787 162.709 94.1963 163.814V167H93.3833V163.862C93.3833 163.522 93.3057 163.269 93.1504 163.102C92.9951 162.932 92.7344 162.847 92.3682 162.847C92.0664 162.847 91.8159 162.938 91.6167 163.12C91.4175 163.298 91.3018 163.54 91.2695 163.845V167H90.4521V163.884C90.4521 163.193 90.1138 162.847 89.437 162.847C88.9038 162.847 88.5391 163.074 88.3428 163.528V167H87.5298V162.245H88.2988ZM98.3623 167C98.3154 166.906 98.2773 166.739 98.248 166.499C97.8701 166.892 97.4189 167.088 96.8945 167.088C96.4258 167.088 96.0405 166.956 95.7388 166.692C95.4399 166.426 95.2905 166.089 95.2905 165.682C95.2905 165.187 95.478 164.803 95.853 164.53C96.231 164.255 96.7612 164.117 97.4438 164.117H98.2349V163.744C98.2349 163.459 98.1499 163.234 97.98 163.067C97.8101 162.897 97.5596 162.812 97.2285 162.812C96.9385 162.812 96.6953 162.885 96.499 163.032C96.3027 163.178 96.2046 163.355 96.2046 163.563H95.3872C95.3872 163.326 95.4707 163.098 95.6377 162.878C95.8076 162.655 96.0361 162.479 96.3232 162.351C96.6133 162.222 96.9312 162.157 97.2769 162.157C97.8247 162.157 98.2539 162.295 98.5645 162.57C98.875 162.843 99.0361 163.219 99.0479 163.7V165.888C99.0479 166.325 99.1035 166.672 99.2148 166.93V167H98.3623ZM97.0132 166.38C97.2681 166.38 97.5098 166.314 97.7383 166.183C97.9668 166.051 98.1323 165.879 98.2349 165.668V164.693H97.5977C96.6016 164.693 96.1035 164.984 96.1035 165.567C96.1035 165.822 96.1885 166.021 96.3584 166.165C96.5283 166.309 96.7466 166.38 97.0132 166.38ZM100.129 164.583C100.129 163.842 100.3 163.253 100.643 162.816C100.986 162.377 101.44 162.157 102.005 162.157C102.585 162.157 103.038 162.362 103.363 162.772L103.403 162.245H104.146V166.886C104.146 167.501 103.962 167.986 103.596 168.34C103.233 168.695 102.744 168.872 102.128 168.872C101.786 168.872 101.45 168.799 101.122 168.652C100.794 168.506 100.543 168.305 100.371 168.05L100.792 167.562C101.141 167.993 101.567 168.208 102.071 168.208C102.467 168.208 102.774 168.097 102.994 167.875C103.217 167.652 103.328 167.338 103.328 166.934V166.525C103.003 166.9 102.559 167.088 101.997 167.088C101.44 167.088 100.989 166.864 100.643 166.416C100.3 165.967 100.129 165.356 100.129 164.583ZM100.946 164.675C100.946 165.211 101.056 165.633 101.276 165.941C101.496 166.246 101.803 166.398 102.199 166.398C102.711 166.398 103.088 166.165 103.328 165.699V163.528C103.079 163.074 102.706 162.847 102.208 162.847C101.812 162.847 101.503 163.001 101.28 163.309C101.058 163.616 100.946 164.072 100.946 164.675ZM107.349 167.088C106.705 167.088 106.18 166.877 105.776 166.455C105.372 166.03 105.169 165.463 105.169 164.754V164.605C105.169 164.133 105.259 163.713 105.438 163.344C105.619 162.972 105.871 162.682 106.193 162.474C106.519 162.263 106.87 162.157 107.248 162.157C107.866 162.157 108.347 162.361 108.689 162.768C109.032 163.175 109.204 163.758 109.204 164.517V164.855H105.982C105.994 165.324 106.13 165.704 106.391 165.994C106.655 166.281 106.989 166.424 107.393 166.424C107.68 166.424 107.923 166.366 108.123 166.249C108.322 166.131 108.496 165.976 108.646 165.783L109.142 166.169C108.744 166.782 108.146 167.088 107.349 167.088ZM107.248 162.825C106.92 162.825 106.645 162.945 106.422 163.186C106.199 163.423 106.062 163.757 106.009 164.188H108.391V164.126C108.367 163.713 108.256 163.394 108.057 163.168C107.857 162.939 107.588 162.825 107.248 162.825Z" fill="black"/>
<rect x="137" y="127" width="4" height="9" fill="#555555"/>
<rect x="132" y="111" width="4" height="25" fill="#555555"/>
<rect x="127" y="132" width="4" height="4" fill="#555555"/>
<rect x="122" y="123" width="4" height="13" fill="#555555"/>
<defs>
<clipPath id="clip0_1_2">
<rect width="15" height="22" fill="white" transform="translate(53 72)"/>
</clipPath>
</defs>
</svg>
