<svg width="622" height="221" viewBox="0 0 622 221" fill="none" xmlns="http://www.w3.org/2000/svg">
<rect width="622" height="221" fill="white"/>
<path d="M59.7676 31.3242H55.1973V44H53.332V31.3242H48.7715V29.7812H59.7676V31.3242ZM69.9141 37.4277H63.752V42.4668H70.9102V44H61.877V29.7812H70.8125V31.3242H63.752V35.8945H69.9141V37.4277ZM75.666 29.7812L80.3145 41.3828L84.9629 29.7812H87.3945V44H85.5195V38.4629L85.6953 32.4863L81.0273 44H79.5918L74.9336 32.5156L75.1191 38.4629V44H73.2441V29.7812H75.666ZM92.5801 38.4336V44H90.7051V29.7812H95.9492C97.5052 29.7812 98.7227 30.1784 99.6016 30.9727C100.487 31.7669 100.93 32.8184 100.93 34.127C100.93 35.5072 100.497 36.5716 99.6309 37.3203C98.7715 38.0625 97.5378 38.4336 95.9297 38.4336H92.5801ZM92.5801 36.9004H95.9492C96.9518 36.9004 97.7201 36.666 98.2539 36.1973C98.7878 35.722 99.0547 35.0384 99.0547 34.1465C99.0547 33.3001 98.7878 32.623 98.2539 32.1152C97.7201 31.6074 96.9876 31.3438 96.0566 31.3242H92.5801V36.9004ZM105.207 42.4668H111.945V44H103.322V29.7812H105.207V42.4668ZM122.131 40.2891H116.174L114.836 44H112.902L118.332 29.7812H119.973L125.412 44H123.488L122.131 40.2891ZM116.74 38.7461H121.574L119.152 32.0957L116.74 38.7461ZM135.881 31.3242H131.311V44H129.445V31.3242H124.885V29.7812H135.881V31.3242ZM146.027 37.4277H139.865V42.4668H147.023V44H137.99V29.7812H146.926V31.3242H139.865V35.8945H146.027V37.4277Z" fill="black"/>
<path d="M213.673 114.933H223.585V119.205H213.673V130.436H209.132V119.205H199.22V114.933H209.132V104.557H213.673V114.933Z" fill="black"/>
<path d="M417.352 114.127H396.99V110.196H417.352V114.127ZM417.352 124.259H396.99V120.353H417.352V124.259Z" fill="black"/>
<path d="M283.707 44V29.7812H287.721C288.958 29.7812 290.051 30.0547 291.002 30.6016C291.952 31.1484 292.685 31.9264 293.199 32.9355C293.72 33.9447 293.984 35.1035 293.99 36.4121V37.3203C293.99 38.6615 293.73 39.8366 293.209 40.8457C292.695 41.8548 291.956 42.6296 290.992 43.1699C290.035 43.7103 288.919 43.987 287.643 44H283.707ZM285.582 31.3242V42.4668H287.555C289 42.4668 290.123 42.0176 290.924 41.1191C291.731 40.2207 292.135 38.9414 292.135 37.2812V36.4512C292.135 34.8366 291.754 33.5833 290.992 32.6914C290.237 31.793 289.163 31.3372 287.77 31.3242H285.582ZM304.469 40.2891H298.512L297.174 44H295.24L300.67 29.7812H302.311L307.75 44H305.826L304.469 40.2891ZM299.078 38.7461H303.912L301.49 32.0957L299.078 38.7461ZM318.219 31.3242H313.648V44H311.783V31.3242H307.223V29.7812H318.219V31.3242ZM327.398 40.2891H321.441L320.104 44H318.17L323.6 29.7812H325.24L330.68 44H328.756L327.398 40.2891ZM322.008 38.7461H326.842L324.42 32.0957L322.008 38.7461Z" fill="black"/>
<path d="M465.992 44V29.7812H470.006C471.243 29.7812 472.337 30.0547 473.287 30.6016C474.238 31.1484 474.97 31.9264 475.484 32.9355C476.005 33.9447 476.269 35.1035 476.275 36.4121V37.3203C476.275 38.6615 476.015 39.8366 475.494 40.8457C474.98 41.8548 474.241 42.6296 473.277 43.1699C472.32 43.7103 471.204 43.987 469.928 44H465.992ZM467.867 31.3242V42.4668H469.84C471.285 42.4668 472.408 42.0176 473.209 41.1191C474.016 40.2207 474.42 38.9414 474.42 37.2812V36.4512C474.42 34.8366 474.039 33.5833 473.277 32.6914C472.522 31.793 471.448 31.3372 470.055 31.3242H467.867ZM490.055 37.3496C490.055 38.7428 489.82 39.9603 489.352 41.002C488.883 42.0371 488.219 42.8281 487.359 43.375C486.5 43.9219 485.497 44.1953 484.352 44.1953C483.232 44.1953 482.239 43.9219 481.373 43.375C480.507 42.8216 479.833 42.0371 479.352 41.0215C478.876 39.9993 478.632 38.8177 478.619 37.4766V36.4512C478.619 35.084 478.857 33.8763 479.332 32.8281C479.807 31.7799 480.478 30.9792 481.344 30.4258C482.216 29.8659 483.212 29.5859 484.332 29.5859C485.471 29.5859 486.474 29.8626 487.34 30.416C488.212 30.9629 488.883 31.7604 489.352 32.8086C489.82 33.8503 490.055 35.0645 490.055 36.4512V37.3496ZM488.189 36.4316C488.189 34.7454 487.851 33.4531 487.174 32.5547C486.497 31.6497 485.549 31.1973 484.332 31.1973C483.147 31.1973 482.213 31.6497 481.529 32.5547C480.852 33.4531 480.504 34.7031 480.484 36.3047V37.3496C480.484 38.9837 480.826 40.2695 481.51 41.207C482.2 42.138 483.147 42.6035 484.352 42.6035C485.562 42.6035 486.5 42.1641 487.164 41.2852C487.828 40.3997 488.17 39.1335 488.189 37.4863V36.4316ZM503.326 39.4883C503.15 40.9922 502.594 42.1543 501.656 42.9746C500.725 43.7884 499.485 44.1953 497.936 44.1953C496.256 44.1953 494.908 43.5931 493.893 42.3887C492.883 41.1842 492.379 39.5729 492.379 37.5547V36.1875C492.379 34.8659 492.613 33.7038 493.082 32.7012C493.557 31.6986 494.228 30.9303 495.094 30.3965C495.96 29.8561 496.962 29.5859 498.102 29.5859C499.612 29.5859 500.823 30.0091 501.734 30.8555C502.646 31.6953 503.176 32.8607 503.326 34.3516H501.441C501.279 33.2188 500.924 32.3984 500.377 31.8906C499.837 31.3828 499.078 31.1289 498.102 31.1289C496.904 31.1289 495.963 31.5716 495.279 32.457C494.602 33.3424 494.264 34.6022 494.264 36.2363V37.6133C494.264 39.1562 494.586 40.3835 495.23 41.2949C495.875 42.2064 496.777 42.6621 497.936 42.6621C498.977 42.6621 499.775 42.4277 500.328 41.959C500.888 41.4837 501.259 40.6602 501.441 39.4883H503.326ZM515.904 29.7812V39.4492C515.898 40.7904 515.475 41.8874 514.635 42.7402C513.801 43.5931 512.669 44.0716 511.236 44.1758L510.738 44.1953C509.182 44.1953 507.942 43.7754 507.018 42.9355C506.093 42.0957 505.624 40.9401 505.611 39.4688V29.7812H507.467V39.4102C507.467 40.4388 507.75 41.2396 508.316 41.8125C508.883 42.3789 509.69 42.6621 510.738 42.6621C511.799 42.6621 512.61 42.3789 513.17 41.8125C513.736 41.2461 514.02 40.4486 514.02 39.4199V29.7812H515.904ZM521.285 29.7812L525.934 41.3828L530.582 29.7812H533.014V44H531.139V38.4629L531.314 32.4863L526.646 44H525.211L520.553 32.5156L520.738 38.4629V44H518.863V29.7812H521.285ZM544.361 37.4277H538.199V42.4668H545.357V44H536.324V29.7812H545.26V31.3242H538.199V35.8945H544.361V37.4277ZM558.619 44H556.734L549.576 33.043V44H547.691V29.7812H549.576L556.754 40.7871V29.7812H558.619V44ZM571.48 31.3242H566.91V44H565.045V31.3242H560.484V29.7812H571.48V31.3242ZM577.623 37.6621C576.015 37.1999 574.843 36.6335 574.107 35.9629C573.378 35.2858 573.014 34.4525 573.014 33.4629C573.014 32.3431 573.46 31.4186 574.352 30.6895C575.25 29.9538 576.415 29.5859 577.848 29.5859C578.824 29.5859 579.693 29.7747 580.455 30.1523C581.223 30.5299 581.816 31.0508 582.232 31.7148C582.656 32.3789 582.867 33.1048 582.867 33.8926H580.982C580.982 33.0332 580.709 32.3594 580.162 31.8711C579.615 31.3763 578.844 31.1289 577.848 31.1289C576.923 31.1289 576.201 31.334 575.68 31.7441C575.165 32.1478 574.908 32.7109 574.908 33.4336C574.908 34.013 575.152 34.5046 575.641 34.9082C576.135 35.3053 576.972 35.6699 578.15 36.002C579.335 36.334 580.26 36.7018 580.924 37.1055C581.594 37.5026 582.089 37.9681 582.408 38.502C582.734 39.0358 582.896 39.6641 582.896 40.3867C582.896 41.5391 582.447 42.4635 581.549 43.1602C580.65 43.8503 579.449 44.1953 577.945 44.1953C576.969 44.1953 576.057 44.0098 575.211 43.6387C574.365 43.2611 573.71 42.7467 573.248 42.0957C572.792 41.4447 572.564 40.7057 572.564 39.8789H574.449C574.449 40.7383 574.765 41.4186 575.396 41.9199C576.035 42.4147 576.884 42.6621 577.945 42.6621C578.935 42.6621 579.693 42.4603 580.221 42.0566C580.748 41.653 581.012 41.1029 581.012 40.4062C581.012 39.7096 580.768 39.1725 580.279 38.7949C579.791 38.4108 578.906 38.0332 577.623 37.6621Z" fill="black"/>
<rect x="41.5" y="64.5" width="113" height="113" fill="white" stroke="black"/>
<path d="M60.6562 78.8594H57V89H55.5078V78.8594H51.8594V77.625H60.6562V78.8594ZM63.6875 89H62.2422V80.5469H63.6875V89ZM62.125 78.3047C62.125 78.0703 62.1953 77.8724 62.3359 77.7109C62.4818 77.5495 62.6953 77.4688 62.9766 77.4688C63.2578 77.4688 63.4714 77.5495 63.6172 77.7109C63.763 77.8724 63.8359 78.0703 63.8359 78.3047C63.8359 78.5391 63.763 78.7344 63.6172 78.8906C63.4714 79.0469 63.2578 79.125 62.9766 79.125C62.6953 79.125 62.4818 79.0469 62.3359 78.8906C62.1953 78.7344 62.125 78.5391 62.125 78.3047ZM67.9688 78.5V80.5469H69.5469V81.6641H67.9688V86.9062C67.9688 87.2448 68.0391 87.5 68.1797 87.6719C68.3203 87.8385 68.5599 87.9219 68.8984 87.9219C69.0651 87.9219 69.2943 87.8906 69.5859 87.8281V89C69.2057 89.1042 68.8359 89.1562 68.4766 89.1562C67.8307 89.1562 67.3438 88.9609 67.0156 88.5703C66.6875 88.1797 66.5234 87.625 66.5234 86.9062V81.6641H64.9844V80.5469H66.5234V78.5H67.9688ZM72.8125 89H71.3672V77H72.8125V89ZM78.6406 89.1562C77.4948 89.1562 76.5625 88.7812 75.8438 88.0312C75.125 87.276 74.7656 86.2682 74.7656 85.0078V84.7422C74.7656 83.9036 74.9245 83.1562 75.2422 82.5C75.5651 81.8385 76.013 81.3229 76.5859 80.9531C77.1641 80.5781 77.7891 80.3906 78.4609 80.3906C79.5599 80.3906 80.4141 80.7526 81.0234 81.4766C81.6328 82.2005 81.9375 83.237 81.9375 84.5859V85.1875H76.2109C76.2318 86.0208 76.474 86.6953 76.9375 87.2109C77.4062 87.7214 78 87.9766 78.7188 87.9766C79.2292 87.9766 79.6615 87.8724 80.0156 87.6641C80.3698 87.4557 80.6797 87.1797 80.9453 86.8359L81.8281 87.5234C81.1198 88.612 80.0573 89.1562 78.6406 89.1562ZM78.4609 81.5781C77.8776 81.5781 77.388 81.7917 76.9922 82.2188C76.5964 82.6406 76.3516 83.2344 76.2578 84H80.4922V83.8906C80.4505 83.1562 80.2526 82.5885 79.8984 82.1875C79.5443 81.7812 79.0651 81.5781 78.4609 81.5781Z" fill="black"/>
<path d="M123.6 105.761H120.629V114H119.417V105.761H116.452V104.758H123.6V105.761ZM127.002 114.127C126.071 114.127 125.313 113.822 124.729 113.213C124.146 112.599 123.854 111.78 123.854 110.756V110.541C123.854 109.859 123.983 109.252 124.241 108.719C124.503 108.181 124.867 107.762 125.333 107.462C125.802 107.157 126.31 107.005 126.856 107.005C127.749 107.005 128.443 107.299 128.938 107.887C129.433 108.475 129.681 109.318 129.681 110.414V110.902H125.028C125.045 111.579 125.242 112.127 125.618 112.546C125.999 112.961 126.481 113.168 127.065 113.168C127.48 113.168 127.831 113.084 128.119 112.915C128.407 112.745 128.659 112.521 128.875 112.242L129.592 112.8C129.016 113.685 128.153 114.127 127.002 114.127ZM126.856 107.97C126.382 107.97 125.984 108.143 125.663 108.49C125.341 108.833 125.142 109.315 125.066 109.938H128.506V109.849C128.472 109.252 128.312 108.791 128.024 108.465C127.736 108.135 127.347 107.97 126.856 107.97ZM133.35 109.639L134.873 107.132H136.244L133.997 110.528L136.314 114H134.956L133.369 111.429L131.782 114H130.417L132.734 110.528L130.487 107.132H131.845L133.35 109.639ZM139.088 105.469V107.132H140.37V108.04H139.088V112.299C139.088 112.574 139.145 112.781 139.259 112.921C139.374 113.056 139.568 113.124 139.843 113.124C139.979 113.124 140.165 113.099 140.402 113.048V114C140.093 114.085 139.792 114.127 139.5 114.127C138.976 114.127 138.58 113.968 138.313 113.651C138.047 113.333 137.914 112.883 137.914 112.299V108.04H136.663V107.132H137.914V105.469H139.088Z" fill="black"/>
<rect x="53" y="122" width="88" height="44" fill="#EEEEEE"/>
<circle cx="136.5" cy="78.5" r="4.5" fill="#EEEEEE"/>
<rect x="464.5" y="64.5" width="65" height="65" fill="white" stroke="black"/>
<rect x="514.5" y="82.5" width="65" height="65" fill="white" stroke="black"/>
<rect x="477.5" y="113.5" width="65" height="65" fill="white" stroke="black"/>
<rect x="522.5" y="132.5" width="65" height="65" fill="white" stroke="black"/>
<path d="M471.102 78.5469V83H469.602V71.625H473.797C475.042 71.625 476.016 71.9427 476.719 72.5781C477.427 73.2135 477.781 74.0547 477.781 75.1016C477.781 76.2057 477.435 77.0573 476.742 77.6562C476.055 78.25 475.068 78.5469 473.781 78.5469H471.102ZM471.102 77.3203H473.797C474.599 77.3203 475.214 77.1328 475.641 76.7578C476.068 76.3776 476.281 75.8307 476.281 75.1172C476.281 74.4401 476.068 73.8984 475.641 73.4922C475.214 73.0859 474.628 72.875 473.883 72.8594H471.102V77.3203ZM479.695 83V71.625H482.906C483.896 71.625 484.771 71.8438 485.531 72.2812C486.292 72.7188 486.878 73.3411 487.289 74.1484C487.706 74.9557 487.917 75.8828 487.922 76.9297V77.6562C487.922 78.7292 487.714 79.6693 487.297 80.4766C486.885 81.2839 486.294 81.9036 485.523 82.3359C484.758 82.7682 483.865 82.9896 482.844 83H479.695ZM481.195 72.8594V81.7734H482.773C483.93 81.7734 484.828 81.4141 485.469 80.6953C486.115 79.9766 486.438 78.9531 486.438 77.625V76.9609C486.438 75.6693 486.133 74.6667 485.523 73.9531C484.919 73.2344 484.06 72.8698 482.945 72.8594H481.195ZM496.469 77.9766H491.695V83H490.195V71.625H497.242V72.8594H491.695V76.75H496.469V77.9766Z" fill="black"/>
<path d="M494.164 130.508C493.779 131.06 493.24 131.474 492.547 131.75C491.859 132.021 491.057 132.156 490.141 132.156C489.214 132.156 488.391 131.94 487.672 131.508C486.953 131.07 486.396 130.451 486 129.648C485.609 128.846 485.409 127.917 485.398 126.859V125.867C485.398 124.154 485.797 122.826 486.594 121.883C487.396 120.94 488.521 120.469 489.969 120.469C491.156 120.469 492.112 120.773 492.836 121.383C493.56 121.987 494.003 122.846 494.164 123.961H492.664C492.383 122.456 491.487 121.703 489.977 121.703C488.971 121.703 488.208 122.057 487.688 122.766C487.172 123.469 486.911 124.49 486.906 125.828V126.758C486.906 128.034 487.198 129.049 487.781 129.805C488.365 130.555 489.154 130.93 490.148 130.93C490.711 130.93 491.203 130.867 491.625 130.742C492.047 130.617 492.396 130.406 492.672 130.109V127.555H490.039V126.336H494.164V130.508ZM498.281 132H496.781V120.625H498.281V132ZM507.305 126.977H502.531V132H501.031V120.625H508.078V121.859H502.531V125.75H507.305V126.977Z" fill="black"/>
<circle cx="519.289" cy="72.3947" r="2.60526" fill="#EEEEEE"/>
<path d="M520.117 96.5469V101H518.617V89.625H522.812C524.057 89.625 525.031 89.9427 525.734 90.5781C526.443 91.2135 526.797 92.0547 526.797 93.1016C526.797 94.2057 526.451 95.0573 525.758 95.6562C525.07 96.25 524.083 96.5469 522.797 96.5469H520.117ZM520.117 95.3203H522.812C523.615 95.3203 524.229 95.1328 524.656 94.7578C525.083 94.3776 525.297 93.8307 525.297 93.1172C525.297 92.4401 525.083 91.8984 524.656 91.4922C524.229 91.0859 523.643 90.875 522.898 90.8594H520.117V95.3203ZM537.453 101H535.945L530.219 92.2344V101H528.711V89.625H530.219L535.961 98.4297V89.625H537.453V101ZM548.516 99.5078C548.13 100.06 547.591 100.474 546.898 100.75C546.211 101.021 545.409 101.156 544.492 101.156C543.565 101.156 542.742 100.94 542.023 100.508C541.305 100.07 540.747 99.4505 540.352 98.6484C539.961 97.8464 539.76 96.9167 539.75 95.8594V94.8672C539.75 93.1536 540.148 91.8255 540.945 90.8828C541.747 89.9401 542.872 89.4688 544.32 89.4688C545.508 89.4688 546.464 89.7734 547.188 90.3828C547.911 90.987 548.354 91.8464 548.516 92.9609H547.016C546.734 91.4557 545.839 90.7031 544.328 90.7031C543.323 90.7031 542.56 91.0573 542.039 91.7656C541.523 92.4688 541.263 93.4896 541.258 94.8281V95.7578C541.258 97.0339 541.549 98.0495 542.133 98.8047C542.716 99.5547 543.505 99.9297 544.5 99.9297C545.062 99.9297 545.555 99.8672 545.977 99.7422C546.398 99.6172 546.747 99.4062 547.023 99.1094V96.5547H544.391V95.3359H548.516V99.5078Z" fill="black"/>
<path d="M528.141 147.414L528.359 148.914L528.68 147.562L530.93 139.625H532.195L534.391 147.562L534.703 148.938L534.945 147.406L536.711 139.625H538.219L535.461 151H534.094L531.75 142.711L531.57 141.844L531.391 142.711L528.961 151H527.594L524.844 139.625H526.344L528.141 147.414ZM546.32 145.742H541.391V149.773H547.117V151H539.891V139.625H547.039V140.859H541.391V144.516H546.32V145.742ZM548.984 151V139.625H552.703C553.938 139.625 554.865 139.88 555.484 140.391C556.109 140.901 556.422 141.656 556.422 142.656C556.422 143.188 556.271 143.659 555.969 144.07C555.667 144.477 555.255 144.792 554.734 145.016C555.349 145.188 555.833 145.516 556.188 146C556.547 146.479 556.727 147.052 556.727 147.719C556.727 148.74 556.396 149.542 555.734 150.125C555.073 150.708 554.138 151 552.93 151H548.984ZM550.484 145.68V149.773H552.961C553.659 149.773 554.208 149.594 554.609 149.234C555.016 148.87 555.219 148.37 555.219 147.734C555.219 146.365 554.474 145.68 552.984 145.68H550.484ZM550.484 144.477H552.75C553.406 144.477 553.93 144.312 554.32 143.984C554.716 143.656 554.914 143.211 554.914 142.648C554.914 142.023 554.732 141.57 554.367 141.289C554.003 141.003 553.448 140.859 552.703 140.859H550.484V144.477Z" fill="black"/>
<path d="M355.171 115.103L355.171 115.103C355.385 115.339 355.592 115.579 355.793 115.823L356.179 115.505C356.594 116.007 356.984 116.527 357.348 117.063L356.934 117.344C357.291 117.869 357.623 118.41 357.929 118.964L358.367 118.723C358.681 119.292 358.968 119.875 359.228 120.47L358.77 120.67C359.024 121.251 359.25 121.843 359.45 122.446L359.924 122.289C360.128 122.904 360.303 123.53 360.45 124.164L359.963 124.277C360.106 124.893 360.22 125.517 360.307 126.148L360.802 126.08C360.89 126.721 360.949 127.368 360.978 128.02L360.479 128.042C360.493 128.358 360.5 128.676 360.5 128.994C360.5 129.328 360.492 129.661 360.476 129.992L360.976 130.016C360.943 130.703 360.878 131.381 360.782 132.05L360.287 131.979C360.192 132.642 360.065 133.296 359.909 133.937L360.394 134.056C360.232 134.722 360.038 135.375 359.815 136.015L359.343 135.85C359.122 136.481 358.872 137.098 358.594 137.699L359.048 137.909C358.761 138.529 358.445 139.133 358.102 139.719L357.671 139.467C357.333 140.042 356.969 140.6 356.58 141.137L356.985 141.43C356.585 141.983 356.159 142.515 355.709 143.025L355.334 142.694C354.893 143.193 354.429 143.67 353.942 144.123L354.283 144.489C353.785 144.953 353.264 145.393 352.722 145.807L352.419 145.409C351.891 145.813 351.343 146.19 350.776 146.54L351.039 146.965C350.461 147.323 349.864 147.652 349.25 147.951L349.031 147.502C348.435 147.792 347.824 148.054 347.198 148.284L347.371 148.753C346.735 148.988 346.084 149.191 345.421 149.362L345.296 148.878C344.657 149.042 344.006 149.176 343.344 149.276L343.419 149.77C342.751 149.872 342.073 149.94 341.386 149.975L341.361 149.475C341.031 149.492 340.698 149.5 340.364 149.5H339.372V150H337.387V149.5H335.403V150H333.418V149.5H331.434V150H329.449V149.5H327.465V150H325.48V149.5H323.496V150H321.511V149.5H319.527V150H317.542V149.5H315.558V150H313.573V149.5H311.589V150H309.604V149.5H307.62V150H305.635V149.5H303.651V150H301.666V149.5H299.682V150H297.697V149.5H295.713V150H293.728V149.5H291.744V150H289.759V149.5H287.775V150H285.79V149.5H284.798H284.654V150H284.365V149.5H284.221C283.886 149.5 283.553 149.493 283.221 149.478L283.199 149.977C282.512 149.947 281.833 149.886 281.163 149.796L281.229 149.3C280.564 149.211 279.908 149.092 279.263 148.945L279.152 149.433C278.484 149.281 277.827 149.099 277.182 148.89L277.336 148.414C276.7 148.208 276.076 147.974 275.465 147.713L275.268 148.173C274.64 147.904 274.025 147.609 273.426 147.287L273.663 146.847C273.074 146.531 272.501 146.19 271.944 145.824L271.67 146.242C271.1 145.868 270.547 145.469 270.012 145.047L270.322 144.654C269.799 144.241 269.294 143.805 268.808 143.348L268.465 143.712C267.969 143.245 267.494 142.756 267.039 142.247L267.412 141.914C266.968 141.417 266.546 140.901 266.145 140.366L265.745 140.666C265.337 140.122 264.952 139.559 264.591 138.979L265.016 138.715C264.664 138.15 264.336 137.569 264.033 136.972L263.587 137.199C263.279 136.594 262.996 135.974 262.739 135.339L263.203 135.152C262.954 134.536 262.73 133.907 262.533 133.266L262.055 133.413C261.856 132.766 261.683 132.106 261.539 131.437L262.027 131.331C261.888 130.684 261.775 130.026 261.69 129.359L261.194 129.423C261.108 128.752 261.05 128.072 261.021 127.386L261.521 127.365C261.507 127.032 261.5 126.698 261.5 126.363C261.5 126.03 261.507 125.7 261.521 125.371L261.021 125.35C261.049 124.669 261.106 123.996 261.19 123.331L261.686 123.394C261.77 122.733 261.881 122.081 262.018 121.439L261.529 121.335C261.671 120.67 261.841 120.016 262.036 119.374L262.515 119.52C262.708 118.884 262.928 118.261 263.173 117.65L262.709 117.464C262.961 116.835 263.239 116.219 263.542 115.618L263.989 115.843C264.287 115.251 264.609 114.673 264.955 114.112L264.529 113.85C264.884 113.273 265.263 112.714 265.664 112.172L266.066 112.47C266.459 111.937 266.875 111.423 267.312 110.928L266.937 110.597C267.384 110.09 267.852 109.603 268.34 109.137L268.685 109.498C269.163 109.041 269.661 108.606 270.176 108.192L269.863 107.802C270.389 107.379 270.934 106.979 271.495 106.603L271.774 107.019C272.322 106.652 272.887 106.308 273.467 105.99L273.226 105.552C273.817 105.227 274.422 104.928 275.042 104.655L275.243 105.113C275.846 104.848 276.462 104.609 277.09 104.397L276.931 103.923C277.567 103.709 278.217 103.521 278.876 103.362L278.993 103.848C279.314 103.771 279.636 103.701 279.961 103.638L280.276 103.577L280.352 103.266C280.426 102.963 280.506 102.661 280.59 102.361L280.109 102.225C280.282 101.612 280.477 101.006 280.692 100.409L281.163 100.579C281.375 99.9915 281.608 99.4123 281.861 98.8426L281.404 98.6396C281.662 98.0583 281.941 97.4866 282.24 96.9254L282.681 97.1606C282.974 96.6102 283.287 96.0702 283.62 95.5417L283.196 95.2755C283.534 94.7379 283.892 94.2118 284.269 93.6985L284.672 93.9943C285.04 93.4923 285.427 93.0027 285.832 92.5265L285.452 92.2025C285.863 91.7195 286.292 91.25 286.739 90.7951L287.095 91.1455C287.314 90.9234 287.536 90.7048 287.763 90.4898L287.763 90.4897C287.997 90.2681 288.234 90.0514 288.475 89.8397L288.145 89.4643C288.638 89.0298 289.146 88.6158 289.666 88.2226L289.968 88.6215C290.482 88.233 291.009 87.8652 291.547 87.5188L291.277 87.0983C291.829 86.7431 292.393 86.4097 292.967 86.0987L293.205 86.5385C293.771 86.2323 294.347 85.9484 294.933 85.687L294.729 85.2304C295.327 84.9633 295.935 84.7194 296.552 84.499L296.72 84.9698C297.324 84.7538 297.937 84.5608 298.557 84.3915L298.425 83.9092C299.056 83.7368 299.694 83.5884 300.338 83.4644L300.433 83.9554C301.062 83.8343 301.696 83.737 302.336 83.6639L302.279 83.1672C302.928 83.0931 303.581 83.0434 304.238 83.0185L304.257 83.5182C304.577 83.5061 304.898 83.5 305.22 83.5C305.578 83.5 305.935 83.5076 306.292 83.5228L306.313 83.0232C307.044 83.0543 307.77 83.1165 308.49 83.2088L308.426 83.7048C309.137 83.796 309.842 83.9173 310.538 84.0677L310.643 83.579C311.357 83.7332 312.063 83.9174 312.758 84.1308L312.611 84.6088C313.295 84.8186 313.969 85.0572 314.631 85.3236L314.818 84.8598C315.494 85.1317 316.158 85.4321 316.809 85.76L316.584 86.2065C317.222 86.5279 317.846 86.8762 318.456 87.2505L318.717 86.8245C319.337 87.2052 319.942 87.6123 320.53 88.045L320.234 88.4477C320.808 88.8703 321.366 89.3177 321.906 89.789L322.234 89.4124C322.781 89.8899 323.31 90.3916 323.819 90.9166L323.46 91.2647C323.709 91.5208 323.952 91.7825 324.191 92.0497L324.367 92.2467L324.629 92.2126C324.833 92.1859 325.038 92.1626 325.244 92.1425L325.195 91.6449C325.617 91.6038 326.039 91.5763 326.464 91.5626L326.48 92.0623C326.686 92.0556 326.892 92.0523 327.099 92.0523C327.434 92.0523 327.767 92.061 328.098 92.0782L328.124 91.5789C328.813 91.6148 329.493 91.6867 330.163 91.7928L330.084 92.2866C330.747 92.3916 331.398 92.531 332.037 92.7029L332.167 92.2201C332.83 92.3987 333.48 92.6115 334.115 92.8566L333.934 93.323C334.558 93.5638 335.166 93.8365 335.757 94.1392L335.985 93.6942C336.594 94.0065 337.186 94.3498 337.758 94.7222L337.485 95.1412C338.044 95.5051 338.583 95.8974 339.101 96.3162L339.415 95.9274C339.947 96.3571 340.456 96.8139 340.941 97.2957L340.589 97.6505C341.061 98.1197 341.51 98.6132 341.934 99.129L342.32 98.8117C342.753 99.3388 343.16 99.8887 343.539 100.459L343.123 100.736C343.491 101.29 343.831 101.863 344.144 102.455L344.586 102.221C344.903 102.823 345.192 103.443 345.449 104.08L344.986 104.267C345.234 104.882 345.453 105.512 345.64 106.156L346.12 106.016C346.31 106.668 346.468 107.333 346.593 108.011L346.101 108.101C346.162 108.428 346.214 108.757 346.258 109.089L346.299 109.4L346.596 109.498C346.87 109.589 347.141 109.685 347.41 109.787L347.587 109.319C348.139 109.529 348.681 109.762 349.212 110.019L348.994 110.469C349.512 110.719 350.019 110.992 350.514 111.286L350.77 110.857C351.276 111.157 351.769 111.481 352.25 111.825L351.958 112.232C352.424 112.566 352.877 112.922 353.316 113.298L353.641 112.918C354.087 113.3 354.519 113.702 354.934 114.124L354.578 114.475C354.78 114.68 354.977 114.889 355.171 115.103Z" fill="#EEEEEE" stroke="black" stroke-dasharray="2 2"/>
<path d="M296.727 134.361C294.998 133.873 293.694 133.067 292.815 131.944C291.946 130.831 291.512 129.356 291.512 127.521V124.605C291.512 122.232 290.477 121.046 288.406 121.046V118.922C290.477 118.922 291.512 117.74 291.512 115.377V112.33C291.531 110.543 291.966 109.103 292.815 108.009C293.675 106.905 294.979 106.104 296.727 105.606L297.283 107.291C295.242 107.945 294.222 109.649 294.222 112.403V115.362C294.222 117.579 293.406 119.122 291.775 119.991C293.406 120.87 294.222 122.428 294.222 124.664V127.682C294.251 130.367 295.271 132.032 297.283 132.677L296.727 134.361ZM299.744 127.579C299.744 127.11 299.881 126.72 300.154 126.407C300.438 126.095 300.857 125.938 301.414 125.938C301.971 125.938 302.391 126.095 302.674 126.407C302.967 126.72 303.113 127.11 303.113 127.579C303.113 128.028 302.967 128.404 302.674 128.707C302.391 129.01 301.971 129.161 301.414 129.161C300.857 129.161 300.438 129.01 300.154 128.707C299.881 128.404 299.744 128.028 299.744 127.579ZM307.654 127.579C307.654 127.11 307.791 126.72 308.064 126.407C308.348 126.095 308.768 125.938 309.324 125.938C309.881 125.938 310.301 126.095 310.584 126.407C310.877 126.72 311.023 127.11 311.023 127.579C311.023 128.028 310.877 128.404 310.584 128.707C310.301 129.01 309.881 129.161 309.324 129.161C308.768 129.161 308.348 129.01 308.064 128.707C307.791 128.404 307.654 128.028 307.654 127.579ZM315.564 127.579C315.564 127.11 315.701 126.72 315.975 126.407C316.258 126.095 316.678 125.938 317.234 125.938C317.791 125.938 318.211 126.095 318.494 126.407C318.787 126.72 318.934 127.11 318.934 127.579C318.934 128.028 318.787 128.404 318.494 128.707C318.211 129.01 317.791 129.161 317.234 129.161C316.678 129.161 316.258 129.01 315.975 128.707C315.701 128.404 315.564 128.028 315.564 127.579ZM321.644 132.677C323.626 132.042 324.651 130.426 324.72 127.828V124.605C324.72 122.35 325.604 120.812 327.371 119.991C325.604 119.19 324.72 117.652 324.72 115.377V112.403C324.72 109.649 323.699 107.945 321.658 107.291L322.215 105.606C323.943 106.095 325.242 106.891 326.111 107.994C326.98 109.088 327.42 110.538 327.43 112.345V115.421C327.43 117.755 328.465 118.922 330.535 118.922V121.046C328.465 121.046 327.43 122.232 327.43 124.605V127.564C327.43 129.4 326.985 130.87 326.097 131.974C325.218 133.077 323.924 133.873 322.215 134.361L321.644 132.677Z" fill="black"/>
</svg>
