<svg width="622" height="221" viewBox="0 0 622 221" fill="none" xmlns="http://www.w3.org/2000/svg">
<rect width="622" height="221" fill="white"/>
<path d="M59.7676 31.3242H55.1973V44H53.332V31.3242H48.7715V29.7812H59.7676V31.3242ZM69.9141 37.4277H63.752V42.4668H70.9102V44H61.877V29.7812H70.8125V31.3242H63.752V35.8945H69.9141V37.4277ZM75.666 29.7812L80.3145 41.3828L84.9629 29.7812H87.3945V44H85.5195V38.4629L85.6953 32.4863L81.0273 44H79.5918L74.9336 32.5156L75.1191 38.4629V44H73.2441V29.7812H75.666ZM92.5801 38.4336V44H90.7051V29.7812H95.9492C97.5052 29.7812 98.7227 30.1784 99.6016 30.9727C100.487 31.7669 100.93 32.8184 100.93 34.127C100.93 35.5072 100.497 36.5716 99.6309 37.3203C98.7715 38.0625 97.5378 38.4336 95.9297 38.4336H92.5801ZM92.5801 36.9004H95.9492C96.9518 36.9004 97.7201 36.666 98.2539 36.1973C98.7878 35.722 99.0547 35.0384 99.0547 34.1465C99.0547 33.3001 98.7878 32.623 98.2539 32.1152C97.7201 31.6074 96.9876 31.3438 96.0566 31.3242H92.5801V36.9004ZM105.207 42.4668H111.945V44H103.322V29.7812H105.207V42.4668ZM122.131 40.2891H116.174L114.836 44H112.902L118.332 29.7812H119.973L125.412 44H123.488L122.131 40.2891ZM116.74 38.7461H121.574L119.152 32.0957L116.74 38.7461ZM135.881 31.3242H131.311V44H129.445V31.3242H124.885V29.7812H135.881V31.3242ZM146.027 37.4277H139.865V42.4668H147.023V44H137.99V29.7812H146.926V31.3242H139.865V35.8945H146.027V37.4277Z" fill="black"/>
<path d="M213.673 114.933H223.585V119.205H213.673V130.436H209.132V119.205H199.22V114.933H209.132V104.557H213.673V114.933Z" fill="black"/>
<path d="M417.352 114.127H396.99V110.196H417.352V114.127ZM417.352 124.259H396.99V120.353H417.352V124.259Z" fill="black"/>
<path d="M283.707 44V29.7812H287.721C288.958 29.7812 290.051 30.0547 291.002 30.6016C291.952 31.1484 292.685 31.9264 293.199 32.9355C293.72 33.9447 293.984 35.1035 293.99 36.4121V37.3203C293.99 38.6615 293.73 39.8366 293.209 40.8457C292.695 41.8548 291.956 42.6296 290.992 43.1699C290.035 43.7103 288.919 43.987 287.643 44H283.707ZM285.582 31.3242V42.4668H287.555C289 42.4668 290.123 42.0176 290.924 41.1191C291.731 40.2207 292.135 38.9414 292.135 37.2812V36.4512C292.135 34.8366 291.754 33.5833 290.992 32.6914C290.237 31.793 289.163 31.3372 287.77 31.3242H285.582ZM304.469 40.2891H298.512L297.174 44H295.24L300.67 29.7812H302.311L307.75 44H305.826L304.469 40.2891ZM299.078 38.7461H303.912L301.49 32.0957L299.078 38.7461ZM318.219 31.3242H313.648V44H311.783V31.3242H307.223V29.7812H318.219V31.3242ZM327.398 40.2891H321.441L320.104 44H318.17L323.6 29.7812H325.24L330.68 44H328.756L327.398 40.2891ZM322.008 38.7461H326.842L324.42 32.0957L322.008 38.7461Z" fill="black"/>
<path d="M465.992 44V29.7812H470.006C471.243 29.7812 472.337 30.0547 473.287 30.6016C474.238 31.1484 474.97 31.9264 475.484 32.9355C476.005 33.9447 476.269 35.1035 476.275 36.4121V37.3203C476.275 38.6615 476.015 39.8366 475.494 40.8457C474.98 41.8548 474.241 42.6296 473.277 43.1699C472.32 43.7103 471.204 43.987 469.928 44H465.992ZM467.867 31.3242V42.4668H469.84C471.285 42.4668 472.408 42.0176 473.209 41.1191C474.016 40.2207 474.42 38.9414 474.42 37.2812V36.4512C474.42 34.8366 474.039 33.5833 473.277 32.6914C472.522 31.793 471.448 31.3372 470.055 31.3242H467.867ZM490.055 37.3496C490.055 38.7428 489.82 39.9603 489.352 41.002C488.883 42.0371 488.219 42.8281 487.359 43.375C486.5 43.9219 485.497 44.1953 484.352 44.1953C483.232 44.1953 482.239 43.9219 481.373 43.375C480.507 42.8216 479.833 42.0371 479.352 41.0215C478.876 39.9993 478.632 38.8177 478.619 37.4766V36.4512C478.619 35.084 478.857 33.8763 479.332 32.8281C479.807 31.7799 480.478 30.9792 481.344 30.4258C482.216 29.8659 483.212 29.5859 484.332 29.5859C485.471 29.5859 486.474 29.8626 487.34 30.416C488.212 30.9629 488.883 31.7604 489.352 32.8086C489.82 33.8503 490.055 35.0645 490.055 36.4512V37.3496ZM488.189 36.4316C488.189 34.7454 487.851 33.4531 487.174 32.5547C486.497 31.6497 485.549 31.1973 484.332 31.1973C483.147 31.1973 482.213 31.6497 481.529 32.5547C480.852 33.4531 480.504 34.7031 480.484 36.3047V37.3496C480.484 38.9837 480.826 40.2695 481.51 41.207C482.2 42.138 483.147 42.6035 484.352 42.6035C485.562 42.6035 486.5 42.1641 487.164 41.2852C487.828 40.3997 488.17 39.1335 488.189 37.4863V36.4316ZM503.326 39.4883C503.15 40.9922 502.594 42.1543 501.656 42.9746C500.725 43.7884 499.485 44.1953 497.936 44.1953C496.256 44.1953 494.908 43.5931 493.893 42.3887C492.883 41.1842 492.379 39.5729 492.379 37.5547V36.1875C492.379 34.8659 492.613 33.7038 493.082 32.7012C493.557 31.6986 494.228 30.9303 495.094 30.3965C495.96 29.8561 496.962 29.5859 498.102 29.5859C499.612 29.5859 500.823 30.0091 501.734 30.8555C502.646 31.6953 503.176 32.8607 503.326 34.3516H501.441C501.279 33.2188 500.924 32.3984 500.377 31.8906C499.837 31.3828 499.078 31.1289 498.102 31.1289C496.904 31.1289 495.963 31.5716 495.279 32.457C494.602 33.3424 494.264 34.6022 494.264 36.2363V37.6133C494.264 39.1562 494.586 40.3835 495.23 41.2949C495.875 42.2064 496.777 42.6621 497.936 42.6621C498.977 42.6621 499.775 42.4277 500.328 41.959C500.888 41.4837 501.259 40.6602 501.441 39.4883H503.326ZM515.904 29.7812V39.4492C515.898 40.7904 515.475 41.8874 514.635 42.7402C513.801 43.5931 512.669 44.0716 511.236 44.1758L510.738 44.1953C509.182 44.1953 507.942 43.7754 507.018 42.9355C506.093 42.0957 505.624 40.9401 505.611 39.4688V29.7812H507.467V39.4102C507.467 40.4388 507.75 41.2396 508.316 41.8125C508.883 42.3789 509.69 42.6621 510.738 42.6621C511.799 42.6621 512.61 42.3789 513.17 41.8125C513.736 41.2461 514.02 40.4486 514.02 39.4199V29.7812H515.904ZM521.285 29.7812L525.934 41.3828L530.582 29.7812H533.014V44H531.139V38.4629L531.314 32.4863L526.646 44H525.211L520.553 32.5156L520.738 38.4629V44H518.863V29.7812H521.285ZM544.361 37.4277H538.199V42.4668H545.357V44H536.324V29.7812H545.26V31.3242H538.199V35.8945H544.361V37.4277ZM558.619 44H556.734L549.576 33.043V44H547.691V29.7812H549.576L556.754 40.7871V29.7812H558.619V44ZM571.48 31.3242H566.91V44H565.045V31.3242H560.484V29.7812H571.48V31.3242ZM577.623 37.6621C576.015 37.1999 574.843 36.6335 574.107 35.9629C573.378 35.2858 573.014 34.4525 573.014 33.4629C573.014 32.3431 573.46 31.4186 574.352 30.6895C575.25 29.9538 576.415 29.5859 577.848 29.5859C578.824 29.5859 579.693 29.7747 580.455 30.1523C581.223 30.5299 581.816 31.0508 582.232 31.7148C582.656 32.3789 582.867 33.1048 582.867 33.8926H580.982C580.982 33.0332 580.709 32.3594 580.162 31.8711C579.615 31.3763 578.844 31.1289 577.848 31.1289C576.923 31.1289 576.201 31.334 575.68 31.7441C575.165 32.1478 574.908 32.7109 574.908 33.4336C574.908 34.013 575.152 34.5046 575.641 34.9082C576.135 35.3053 576.972 35.6699 578.15 36.002C579.335 36.334 580.26 36.7018 580.924 37.1055C581.594 37.5026 582.089 37.9681 582.408 38.502C582.734 39.0358 582.896 39.6641 582.896 40.3867C582.896 41.5391 582.447 42.4635 581.549 43.1602C580.65 43.8503 579.449 44.1953 577.945 44.1953C576.969 44.1953 576.057 44.0098 575.211 43.6387C574.365 43.2611 573.71 42.7467 573.248 42.0957C572.792 41.4447 572.564 40.7057 572.564 39.8789H574.449C574.449 40.7383 574.765 41.4186 575.396 41.9199C576.035 42.4147 576.884 42.6621 577.945 42.6621C578.935 42.6621 579.693 42.4603 580.221 42.0566C580.748 41.653 581.012 41.1029 581.012 40.4062C581.012 39.7096 580.768 39.1725 580.279 38.7949C579.791 38.4108 578.906 38.0332 577.623 37.6621Z" fill="black"/>
<rect x="464.5" y="64.5" width="65" height="65" fill="white" stroke="black"/>
<rect x="514.5" y="82.5" width="65" height="65" fill="white" stroke="black"/>
<rect x="477.5" y="113.5" width="65" height="65" fill="white" stroke="black"/>
<rect x="522.5" y="132.5" width="65" height="65" fill="white" stroke="black"/>
<path d="M471.102 78.5469V83H469.602V71.625H473.797C475.042 71.625 476.016 71.9427 476.719 72.5781C477.427 73.2135 477.781 74.0547 477.781 75.1016C477.781 76.2057 477.435 77.0573 476.742 77.6562C476.055 78.25 475.068 78.5469 473.781 78.5469H471.102ZM471.102 77.3203H473.797C474.599 77.3203 475.214 77.1328 475.641 76.7578C476.068 76.3776 476.281 75.8307 476.281 75.1172C476.281 74.4401 476.068 73.8984 475.641 73.4922C475.214 73.0859 474.628 72.875 473.883 72.8594H471.102V77.3203ZM479.695 83V71.625H482.906C483.896 71.625 484.771 71.8438 485.531 72.2812C486.292 72.7188 486.878 73.3411 487.289 74.1484C487.706 74.9557 487.917 75.8828 487.922 76.9297V77.6562C487.922 78.7292 487.714 79.6693 487.297 80.4766C486.885 81.2839 486.294 81.9036 485.523 82.3359C484.758 82.7682 483.865 82.9896 482.844 83H479.695ZM481.195 72.8594V81.7734H482.773C483.93 81.7734 484.828 81.4141 485.469 80.6953C486.115 79.9766 486.438 78.9531 486.438 77.625V76.9609C486.438 75.6693 486.133 74.6667 485.523 73.9531C484.919 73.2344 484.06 72.8698 482.945 72.8594H481.195ZM496.469 77.9766H491.695V83H490.195V71.625H497.242V72.8594H491.695V76.75H496.469V77.9766Z" fill="black"/>
<path d="M494.164 130.508C493.779 131.06 493.24 131.474 492.547 131.75C491.859 132.021 491.057 132.156 490.141 132.156C489.214 132.156 488.391 131.94 487.672 131.508C486.953 131.07 486.396 130.451 486 129.648C485.609 128.846 485.409 127.917 485.398 126.859V125.867C485.398 124.154 485.797 122.826 486.594 121.883C487.396 120.94 488.521 120.469 489.969 120.469C491.156 120.469 492.112 120.773 492.836 121.383C493.56 121.987 494.003 122.846 494.164 123.961H492.664C492.383 122.456 491.487 121.703 489.977 121.703C488.971 121.703 488.208 122.057 487.688 122.766C487.172 123.469 486.911 124.49 486.906 125.828V126.758C486.906 128.034 487.198 129.049 487.781 129.805C488.365 130.555 489.154 130.93 490.148 130.93C490.711 130.93 491.203 130.867 491.625 130.742C492.047 130.617 492.396 130.406 492.672 130.109V127.555H490.039V126.336H494.164V130.508ZM498.281 132H496.781V120.625H498.281V132ZM507.305 126.977H502.531V132H501.031V120.625H508.078V121.859H502.531V125.75H507.305V126.977Z" fill="black"/>
<circle cx="519.289" cy="72.3947" r="2.60526" fill="#EEEEEE"/>
<path d="M520.117 96.5469V101H518.617V89.625H522.812C524.057 89.625 525.031 89.9427 525.734 90.5781C526.443 91.2135 526.797 92.0547 526.797 93.1016C526.797 94.2057 526.451 95.0573 525.758 95.6562C525.07 96.25 524.083 96.5469 522.797 96.5469H520.117ZM520.117 95.3203H522.812C523.615 95.3203 524.229 95.1328 524.656 94.7578C525.083 94.3776 525.297 93.8307 525.297 93.1172C525.297 92.4401 525.083 91.8984 524.656 91.4922C524.229 91.0859 523.643 90.875 522.898 90.8594H520.117V95.3203ZM537.453 101H535.945L530.219 92.2344V101H528.711V89.625H530.219L535.961 98.4297V89.625H537.453V101ZM548.516 99.5078C548.13 100.06 547.591 100.474 546.898 100.75C546.211 101.021 545.409 101.156 544.492 101.156C543.565 101.156 542.742 100.94 542.023 100.508C541.305 100.07 540.747 99.4505 540.352 98.6484C539.961 97.8464 539.76 96.9167 539.75 95.8594V94.8672C539.75 93.1536 540.148 91.8255 540.945 90.8828C541.747 89.9401 542.872 89.4688 544.32 89.4688C545.508 89.4688 546.464 89.7734 547.188 90.3828C547.911 90.987 548.354 91.8464 548.516 92.9609H547.016C546.734 91.4557 545.839 90.7031 544.328 90.7031C543.323 90.7031 542.56 91.0573 542.039 91.7656C541.523 92.4688 541.263 93.4896 541.258 94.8281V95.7578C541.258 97.0339 541.549 98.0495 542.133 98.8047C542.716 99.5547 543.505 99.9297 544.5 99.9297C545.062 99.9297 545.555 99.8672 545.977 99.7422C546.398 99.6172 546.747 99.4062 547.023 99.1094V96.5547H544.391V95.3359H548.516V99.5078Z" fill="black"/>
<path d="M528.141 147.414L528.359 148.914L528.68 147.562L530.93 139.625H532.195L534.391 147.562L534.703 148.938L534.945 147.406L536.711 139.625H538.219L535.461 151H534.094L531.75 142.711L531.57 141.844L531.391 142.711L528.961 151H527.594L524.844 139.625H526.344L528.141 147.414ZM546.32 145.742H541.391V149.773H547.117V151H539.891V139.625H547.039V140.859H541.391V144.516H546.32V145.742ZM548.984 151V139.625H552.703C553.938 139.625 554.865 139.88 555.484 140.391C556.109 140.901 556.422 141.656 556.422 142.656C556.422 143.188 556.271 143.659 555.969 144.07C555.667 144.477 555.255 144.792 554.734 145.016C555.349 145.188 555.833 145.516 556.188 146C556.547 146.479 556.727 147.052 556.727 147.719C556.727 148.74 556.396 149.542 555.734 150.125C555.073 150.708 554.138 151 552.93 151H548.984ZM550.484 145.68V149.773H552.961C553.659 149.773 554.208 149.594 554.609 149.234C555.016 148.87 555.219 148.37 555.219 147.734C555.219 146.365 554.474 145.68 552.984 145.68H550.484ZM550.484 144.477H552.75C553.406 144.477 553.93 144.312 554.32 143.984C554.716 143.656 554.914 143.211 554.914 142.648C554.914 142.023 554.732 141.57 554.367 141.289C554.003 141.003 553.448 140.859 552.703 140.859H550.484V144.477Z" fill="black"/>
<path d="M355.171 115.103L355.171 115.103C358.607 118.896 360.5 123.828 360.5 128.994C360.5 140.308 351.458 149.5 340.364 149.5H284.798H284.221C271.702 149.5 261.5 139.129 261.5 126.363C261.5 115.085 269.468 105.673 279.961 103.638L280.276 103.577L280.352 103.266C281.541 98.3994 284.094 93.9663 287.763 90.4898L287.763 90.4897C292.521 85.9803 298.72 83.5 305.22 83.5C312.492 83.5 319.363 86.6414 324.191 92.0497L324.367 92.2467L324.629 92.2126C325.446 92.1062 326.27 92.0523 327.099 92.0523C336.869 92.0523 344.982 99.4765 346.258 109.089L346.299 109.4L346.596 109.498C349.851 110.575 352.805 112.489 355.171 115.103Z" fill="#EEEEEE" stroke="#999999"/>
<path d="M296.727 134.361C294.998 133.873 293.694 133.067 292.815 131.944C291.946 130.831 291.512 129.356 291.512 127.521V124.605C291.512 122.232 290.477 121.046 288.406 121.046V118.922C290.477 118.922 291.512 117.74 291.512 115.377V112.33C291.531 110.543 291.966 109.103 292.815 108.009C293.675 106.905 294.979 106.104 296.727 105.606L297.283 107.291C295.242 107.945 294.222 109.649 294.222 112.403V115.362C294.222 117.579 293.406 119.122 291.775 119.991C293.406 120.87 294.222 122.428 294.222 124.664V127.682C294.251 130.367 295.271 132.032 297.283 132.677L296.727 134.361ZM299.744 127.579C299.744 127.11 299.881 126.72 300.154 126.407C300.438 126.095 300.857 125.938 301.414 125.938C301.971 125.938 302.391 126.095 302.674 126.407C302.967 126.72 303.113 127.11 303.113 127.579C303.113 128.028 302.967 128.404 302.674 128.707C302.391 129.01 301.971 129.161 301.414 129.161C300.857 129.161 300.438 129.01 300.154 128.707C299.881 128.404 299.744 128.028 299.744 127.579ZM307.654 127.579C307.654 127.11 307.791 126.72 308.064 126.407C308.348 126.095 308.768 125.938 309.324 125.938C309.881 125.938 310.301 126.095 310.584 126.407C310.877 126.72 311.023 127.11 311.023 127.579C311.023 128.028 310.877 128.404 310.584 128.707C310.301 129.01 309.881 129.161 309.324 129.161C308.768 129.161 308.348 129.01 308.064 128.707C307.791 128.404 307.654 128.028 307.654 127.579ZM315.564 127.579C315.564 127.11 315.701 126.72 315.975 126.407C316.258 126.095 316.678 125.938 317.234 125.938C317.791 125.938 318.211 126.095 318.494 126.407C318.787 126.72 318.934 127.11 318.934 127.579C318.934 128.028 318.787 128.404 318.494 128.707C318.211 129.01 317.791 129.161 317.234 129.161C316.678 129.161 316.258 129.01 315.975 128.707C315.701 128.404 315.564 128.028 315.564 127.579ZM321.644 132.677C323.626 132.042 324.651 130.426 324.72 127.828V124.605C324.72 122.35 325.604 120.812 327.371 119.991C325.604 119.19 324.72 117.652 324.72 115.377V112.403C324.72 109.649 323.699 107.945 321.658 107.291L322.215 105.606C323.943 106.095 325.242 106.891 326.111 107.994C326.98 109.088 327.42 110.538 327.43 112.345V115.421C327.43 117.755 328.465 118.922 330.535 118.922V121.046C328.465 121.046 327.43 122.232 327.43 124.605V127.564C327.43 129.4 326.985 130.87 326.097 131.974C325.218 133.077 323.924 133.873 322.215 134.361L321.644 132.677Z" fill="black"/>
<rect x="41.5" y="64.5" width="113" height="133" fill="white" stroke="black"/>
<path d="M60.6562 78.8594H57V89H55.5078V78.8594H51.8594V77.625H60.6562V78.8594ZM63.6875 89H62.2422V80.5469H63.6875V89ZM62.125 78.3047C62.125 78.0703 62.1953 77.8724 62.3359 77.7109C62.4818 77.5495 62.6953 77.4688 62.9766 77.4688C63.2578 77.4688 63.4714 77.5495 63.6172 77.7109C63.763 77.8724 63.8359 78.0703 63.8359 78.3047C63.8359 78.5391 63.763 78.7344 63.6172 78.8906C63.4714 79.0469 63.2578 79.125 62.9766 79.125C62.6953 79.125 62.4818 79.0469 62.3359 78.8906C62.1953 78.7344 62.125 78.5391 62.125 78.3047ZM67.9688 78.5V80.5469H69.5469V81.6641H67.9688V86.9062C67.9688 87.2448 68.0391 87.5 68.1797 87.6719C68.3203 87.8385 68.5599 87.9219 68.8984 87.9219C69.0651 87.9219 69.2943 87.8906 69.5859 87.8281V89C69.2057 89.1042 68.8359 89.1562 68.4766 89.1562C67.8307 89.1562 67.3438 88.9609 67.0156 88.5703C66.6875 88.1797 66.5234 87.625 66.5234 86.9062V81.6641H64.9844V80.5469H66.5234V78.5H67.9688ZM72.8125 89H71.3672V77H72.8125V89ZM78.6406 89.1562C77.4948 89.1562 76.5625 88.7812 75.8438 88.0312C75.125 87.276 74.7656 86.2682 74.7656 85.0078V84.7422C74.7656 83.9036 74.9245 83.1562 75.2422 82.5C75.5651 81.8385 76.013 81.3229 76.5859 80.9531C77.1641 80.5781 77.7891 80.3906 78.4609 80.3906C79.5599 80.3906 80.4141 80.7526 81.0234 81.4766C81.6328 82.2005 81.9375 83.237 81.9375 84.5859V85.1875H76.2109C76.2318 86.0208 76.474 86.6953 76.9375 87.2109C77.4062 87.7214 78 87.9766 78.7188 87.9766C79.2292 87.9766 79.6615 87.8724 80.0156 87.6641C80.3698 87.4557 80.6797 87.1797 80.9453 86.8359L81.8281 87.5234C81.1198 88.612 80.0573 89.1562 78.6406 89.1562ZM78.4609 81.5781C77.8776 81.5781 77.388 81.7917 76.9922 82.2188C76.5964 82.6406 76.3516 83.2344 76.2578 84H80.4922V83.8906C80.4505 83.1562 80.2526 82.5885 79.8984 82.1875C79.5443 81.7812 79.0651 81.5781 78.4609 81.5781Z" fill="black"/>
<path d="M59.3535 94.0283H56.8398V101H55.814V94.0283H53.3057V93.1797H59.3535V94.0283ZM62.2324 101.107C61.4447 101.107 60.8037 100.85 60.3096 100.334C59.8154 99.8148 59.5684 99.1219 59.5684 98.2554V98.0728C59.5684 97.4963 59.6776 96.9824 59.896 96.5312C60.118 96.0765 60.4259 95.722 60.8198 95.4678C61.2173 95.21 61.647 95.0811 62.1089 95.0811C62.8644 95.0811 63.4517 95.3299 63.8706 95.8276C64.2896 96.3254 64.499 97.0379 64.499 97.9653V98.3789H60.562C60.5763 98.9518 60.7428 99.4155 61.0615 99.77C61.3838 100.121 61.792 100.296 62.2861 100.296C62.637 100.296 62.9342 100.225 63.1777 100.082C63.4212 99.9383 63.6343 99.7485 63.8169 99.5122L64.4238 99.9849C63.9368 100.733 63.2064 101.107 62.2324 101.107ZM62.1089 95.8975C61.7078 95.8975 61.3713 96.0443 61.0991 96.3379C60.827 96.6279 60.6587 97.0361 60.5942 97.5625H63.5054V97.4873C63.4767 96.9824 63.3407 96.5921 63.0972 96.3164C62.8537 96.0371 62.5243 95.8975 62.1089 95.8975ZM67.6035 97.3101L68.8926 95.1885H70.0527L68.1514 98.062L70.1118 101H68.9624L67.6196 98.8247L66.2769 101H65.1221L67.0825 98.062L65.1812 95.1885H66.3306L67.6035 97.3101ZM72.459 93.7812V95.1885H73.5439V95.9565H72.459V99.5605C72.459 99.7933 72.5073 99.9688 72.604 100.087C72.7007 100.201 72.8654 100.259 73.0981 100.259C73.2127 100.259 73.3703 100.237 73.5708 100.194V101C73.3094 101.072 73.0552 101.107 72.8081 101.107C72.3641 101.107 72.0293 100.973 71.8037 100.705C71.5781 100.436 71.4653 100.055 71.4653 99.5605V95.9565H70.4072V95.1885H71.4653V93.7812H72.459Z" fill="black"/>
<rect x="53" y="143" width="88" height="44" fill="#EEEEEE"/>
<circle cx="136.5" cy="78.5" r="4.5" fill="#DDDDDD"/>
<path d="M86.1147 167H85.271V160.602H86.1147V167ZM88.2988 162.245L88.3208 162.772C88.6694 162.362 89.1396 162.157 89.7314 162.157C90.3965 162.157 90.8491 162.412 91.0894 162.922C91.2476 162.693 91.4526 162.509 91.7046 162.368C91.9595 162.228 92.2598 162.157 92.6055 162.157C93.6484 162.157 94.1787 162.709 94.1963 163.814V167H93.3833V163.862C93.3833 163.522 93.3057 163.269 93.1504 163.102C92.9951 162.932 92.7344 162.847 92.3682 162.847C92.0664 162.847 91.8159 162.938 91.6167 163.12C91.4175 163.298 91.3018 163.54 91.2695 163.845V167H90.4521V163.884C90.4521 163.193 90.1138 162.847 89.437 162.847C88.9038 162.847 88.5391 163.074 88.3428 163.528V167H87.5298V162.245H88.2988ZM98.3623 167C98.3154 166.906 98.2773 166.739 98.248 166.499C97.8701 166.892 97.4189 167.088 96.8945 167.088C96.4258 167.088 96.0405 166.956 95.7388 166.692C95.4399 166.426 95.2905 166.089 95.2905 165.682C95.2905 165.187 95.478 164.803 95.853 164.53C96.231 164.255 96.7612 164.117 97.4438 164.117H98.2349V163.744C98.2349 163.459 98.1499 163.234 97.98 163.067C97.8101 162.897 97.5596 162.812 97.2285 162.812C96.9385 162.812 96.6953 162.885 96.499 163.032C96.3027 163.178 96.2046 163.355 96.2046 163.563H95.3872C95.3872 163.326 95.4707 163.098 95.6377 162.878C95.8076 162.655 96.0361 162.479 96.3232 162.351C96.6133 162.222 96.9312 162.157 97.2769 162.157C97.8247 162.157 98.2539 162.295 98.5645 162.57C98.875 162.843 99.0361 163.219 99.0479 163.7V165.888C99.0479 166.325 99.1035 166.672 99.2148 166.93V167H98.3623ZM97.0132 166.38C97.2681 166.38 97.5098 166.314 97.7383 166.183C97.9668 166.051 98.1323 165.879 98.2349 165.668V164.693H97.5977C96.6016 164.693 96.1035 164.984 96.1035 165.567C96.1035 165.822 96.1885 166.021 96.3584 166.165C96.5283 166.309 96.7466 166.38 97.0132 166.38ZM100.129 164.583C100.129 163.842 100.3 163.253 100.643 162.816C100.986 162.377 101.44 162.157 102.005 162.157C102.585 162.157 103.038 162.362 103.363 162.772L103.403 162.245H104.146V166.886C104.146 167.501 103.962 167.986 103.596 168.34C103.233 168.695 102.744 168.872 102.128 168.872C101.786 168.872 101.45 168.799 101.122 168.652C100.794 168.506 100.543 168.305 100.371 168.05L100.792 167.562C101.141 167.993 101.567 168.208 102.071 168.208C102.467 168.208 102.774 168.097 102.994 167.875C103.217 167.652 103.328 167.338 103.328 166.934V166.525C103.003 166.9 102.559 167.088 101.997 167.088C101.44 167.088 100.989 166.864 100.643 166.416C100.3 165.967 100.129 165.356 100.129 164.583ZM100.946 164.675C100.946 165.211 101.056 165.633 101.276 165.941C101.496 166.246 101.803 166.398 102.199 166.398C102.711 166.398 103.088 166.165 103.328 165.699V163.528C103.079 163.074 102.706 162.847 102.208 162.847C101.812 162.847 101.503 163.001 101.28 163.309C101.058 163.616 100.946 164.072 100.946 164.675ZM107.349 167.088C106.705 167.088 106.18 166.877 105.776 166.455C105.372 166.03 105.169 165.463 105.169 164.754V164.605C105.169 164.133 105.259 163.713 105.438 163.344C105.619 162.972 105.871 162.682 106.193 162.474C106.519 162.263 106.87 162.157 107.248 162.157C107.866 162.157 108.347 162.361 108.689 162.768C109.032 163.175 109.204 163.758 109.204 164.517V164.855H105.982C105.994 165.324 106.13 165.704 106.391 165.994C106.655 166.281 106.989 166.424 107.393 166.424C107.68 166.424 107.923 166.366 108.123 166.249C108.322 166.131 108.496 165.976 108.646 165.783L109.142 166.169C108.744 166.782 108.146 167.088 107.349 167.088ZM107.248 162.825C106.92 162.825 106.645 162.945 106.422 163.186C106.199 163.423 106.062 163.757 106.009 164.188H108.391V164.126C108.367 163.713 108.256 163.394 108.057 163.168C107.857 162.939 107.588 162.825 107.248 162.825Z" fill="black"/>
<rect x="137" y="127" width="4" height="9" fill="#555555"/>
<rect x="132" y="111" width="4" height="25" fill="#555555"/>
<rect x="127" y="132" width="4" height="4" fill="#555555"/>
<rect x="122" y="123" width="4" height="13" fill="#555555"/>
</svg>
