<svg width="622" height="221" viewBox="0 0 622 221" fill="none" xmlns="http://www.w3.org/2000/svg">
<rect width="622" height="221" fill="white"/>
<path d="M59.7676 31.3242H55.1973V44H53.332V31.3242H48.7715V29.7812H59.7676V31.3242ZM69.9141 37.4277H63.752V42.4668H70.9102V44H61.877V29.7812H70.8125V31.3242H63.752V35.8945H69.9141V37.4277ZM75.666 29.7812L80.3145 41.3828L84.9629 29.7812H87.3945V44H85.5195V38.4629L85.6953 32.4863L81.0273 44H79.5918L74.9336 32.5156L75.1191 38.4629V44H73.2441V29.7812H75.666ZM92.5801 38.4336V44H90.7051V29.7812H95.9492C97.5052 29.7812 98.7227 30.1784 99.6016 30.9727C100.487 31.7669 100.93 32.8184 100.93 34.127C100.93 35.5072 100.497 36.5716 99.6309 37.3203C98.7715 38.0625 97.5378 38.4336 95.9297 38.4336H92.5801ZM92.5801 36.9004H95.9492C96.9518 36.9004 97.7201 36.666 98.2539 36.1973C98.7878 35.722 99.0547 35.0384 99.0547 34.1465C99.0547 33.3001 98.7878 32.623 98.2539 32.1152C97.7201 31.6074 96.9876 31.3438 96.0566 31.3242H92.5801V36.9004ZM105.207 42.4668H111.945V44H103.322V29.7812H105.207V42.4668ZM122.131 40.2891H116.174L114.836 44H112.902L118.332 29.7812H119.973L125.412 44H123.488L122.131 40.2891ZM116.74 38.7461H121.574L119.152 32.0957L116.74 38.7461ZM135.881 31.3242H131.311V44H129.445V31.3242H124.885V29.7812H135.881V31.3242ZM146.027 37.4277H139.865V42.4668H147.023V44H137.99V29.7812H146.926V31.3242H139.865V35.8945H146.027V37.4277Z" fill="black"/>
<path d="M213.673 114.933H223.585V119.205H213.673V130.436H209.132V119.205H199.22V114.933H209.132V104.557H213.673V114.933Z" fill="black"/>
<path d="M417.352 114.127H396.99V110.196H417.352V114.127ZM417.352 124.259H396.99V120.353H417.352V124.259Z" fill="black"/>
<path d="M283.707 44V29.7812H287.721C288.958 29.7812 290.051 30.0547 291.002 30.6016C291.952 31.1484 292.685 31.9264 293.199 32.9355C293.72 33.9447 293.984 35.1035 293.99 36.4121V37.3203C293.99 38.6615 293.73 39.8366 293.209 40.8457C292.695 41.8548 291.956 42.6296 290.992 43.1699C290.035 43.7103 288.919 43.987 287.643 44H283.707ZM285.582 31.3242V42.4668H287.555C289 42.4668 290.123 42.0176 290.924 41.1191C291.731 40.2207 292.135 38.9414 292.135 37.2812V36.4512C292.135 34.8366 291.754 33.5833 290.992 32.6914C290.237 31.793 289.163 31.3372 287.77 31.3242H285.582ZM304.469 40.2891H298.512L297.174 44H295.24L300.67 29.7812H302.311L307.75 44H305.826L304.469 40.2891ZM299.078 38.7461H303.912L301.49 32.0957L299.078 38.7461ZM318.219 31.3242H313.648V44H311.783V31.3242H307.223V29.7812H318.219V31.3242ZM327.398 40.2891H321.441L320.104 44H318.17L323.6 29.7812H325.24L330.68 44H328.756L327.398 40.2891ZM322.008 38.7461H326.842L324.42 32.0957L322.008 38.7461Z" fill="black"/>
<path d="M465.992 44V29.7812H470.006C471.243 29.7812 472.337 30.0547 473.287 30.6016C474.238 31.1484 474.97 31.9264 475.484 32.9355C476.005 33.9447 476.269 35.1035 476.275 36.4121V37.3203C476.275 38.6615 476.015 39.8366 475.494 40.8457C474.98 41.8548 474.241 42.6296 473.277 43.1699C472.32 43.7103 471.204 43.987 469.928 44H465.992ZM467.867 31.3242V42.4668H469.84C471.285 42.4668 472.408 42.0176 473.209 41.1191C474.016 40.2207 474.42 38.9414 474.42 37.2812V36.4512C474.42 34.8366 474.039 33.5833 473.277 32.6914C472.522 31.793 471.448 31.3372 470.055 31.3242H467.867ZM490.055 37.3496C490.055 38.7428 489.82 39.9603 489.352 41.002C488.883 42.0371 488.219 42.8281 487.359 43.375C486.5 43.9219 485.497 44.1953 484.352 44.1953C483.232 44.1953 482.239 43.9219 481.373 43.375C480.507 42.8216 479.833 42.0371 479.352 41.0215C478.876 39.9993 478.632 38.8177 478.619 37.4766V36.4512C478.619 35.084 478.857 33.8763 479.332 32.8281C479.807 31.7799 480.478 30.9792 481.344 30.4258C482.216 29.8659 483.212 29.5859 484.332 29.5859C485.471 29.5859 486.474 29.8626 487.34 30.416C488.212 30.9629 488.883 31.7604 489.352 32.8086C489.82 33.8503 490.055 35.0645 490.055 36.4512V37.3496ZM488.189 36.4316C488.189 34.7454 487.851 33.4531 487.174 32.5547C486.497 31.6497 485.549 31.1973 484.332 31.1973C483.147 31.1973 482.213 31.6497 481.529 32.5547C480.852 33.4531 480.504 34.7031 480.484 36.3047V37.3496C480.484 38.9837 480.826 40.2695 481.51 41.207C482.2 42.138 483.147 42.6035 484.352 42.6035C485.562 42.6035 486.5 42.1641 487.164 41.2852C487.828 40.3997 488.17 39.1335 488.189 37.4863V36.4316ZM503.326 39.4883C503.15 40.9922 502.594 42.1543 501.656 42.9746C500.725 43.7884 499.485 44.1953 497.936 44.1953C496.256 44.1953 494.908 43.5931 493.893 42.3887C492.883 41.1842 492.379 39.5729 492.379 37.5547V36.1875C492.379 34.8659 492.613 33.7038 493.082 32.7012C493.557 31.6986 494.228 30.9303 495.094 30.3965C495.96 29.8561 496.962 29.5859 498.102 29.5859C499.612 29.5859 500.823 30.0091 501.734 30.8555C502.646 31.6953 503.176 32.8607 503.326 34.3516H501.441C501.279 33.2188 500.924 32.3984 500.377 31.8906C499.837 31.3828 499.078 31.1289 498.102 31.1289C496.904 31.1289 495.963 31.5716 495.279 32.457C494.602 33.3424 494.264 34.6022 494.264 36.2363V37.6133C494.264 39.1562 494.586 40.3835 495.23 41.2949C495.875 42.2064 496.777 42.6621 497.936 42.6621C498.977 42.6621 499.775 42.4277 500.328 41.959C500.888 41.4837 501.259 40.6602 501.441 39.4883H503.326ZM515.904 29.7812V39.4492C515.898 40.7904 515.475 41.8874 514.635 42.7402C513.801 43.5931 512.669 44.0716 511.236 44.1758L510.738 44.1953C509.182 44.1953 507.942 43.7754 507.018 42.9355C506.093 42.0957 505.624 40.9401 505.611 39.4688V29.7812H507.467V39.4102C507.467 40.4388 507.75 41.2396 508.316 41.8125C508.883 42.3789 509.69 42.6621 510.738 42.6621C511.799 42.6621 512.61 42.3789 513.17 41.8125C513.736 41.2461 514.02 40.4486 514.02 39.4199V29.7812H515.904ZM521.285 29.7812L525.934 41.3828L530.582 29.7812H533.014V44H531.139V38.4629L531.314 32.4863L526.646 44H525.211L520.553 32.5156L520.738 38.4629V44H518.863V29.7812H521.285ZM544.361 37.4277H538.199V42.4668H545.357V44H536.324V29.7812H545.26V31.3242H538.199V35.8945H544.361V37.4277ZM558.619 44H556.734L549.576 33.043V44H547.691V29.7812H549.576L556.754 40.7871V29.7812H558.619V44ZM571.48 31.3242H566.91V44H565.045V31.3242H560.484V29.7812H571.48V31.3242ZM577.623 37.6621C576.015 37.1999 574.843 36.6335 574.107 35.9629C573.378 35.2858 573.014 34.4525 573.014 33.4629C573.014 32.3431 573.46 31.4186 574.352 30.6895C575.25 29.9538 576.415 29.5859 577.848 29.5859C578.824 29.5859 579.693 29.7747 580.455 30.1523C581.223 30.5299 581.816 31.0508 582.232 31.7148C582.656 32.3789 582.867 33.1048 582.867 33.8926H580.982C580.982 33.0332 580.709 32.3594 580.162 31.8711C579.615 31.3763 578.844 31.1289 577.848 31.1289C576.923 31.1289 576.201 31.334 575.68 31.7441C575.165 32.1478 574.908 32.7109 574.908 33.4336C574.908 34.013 575.152 34.5046 575.641 34.9082C576.135 35.3053 576.972 35.6699 578.15 36.002C579.335 36.334 580.26 36.7018 580.924 37.1055C581.594 37.5026 582.089 37.9681 582.408 38.502C582.734 39.0358 582.896 39.6641 582.896 40.3867C582.896 41.5391 582.447 42.4635 581.549 43.1602C580.65 43.8503 579.449 44.1953 577.945 44.1953C576.969 44.1953 576.057 44.0098 575.211 43.6387C574.365 43.2611 573.71 42.7467 573.248 42.0957C572.792 41.4447 572.564 40.7057 572.564 39.8789H574.449C574.449 40.7383 574.765 41.4186 575.396 41.9199C576.035 42.4147 576.884 42.6621 577.945 42.6621C578.935 42.6621 579.693 42.4603 580.221 42.0566C580.748 41.653 581.012 41.1029 581.012 40.4062C581.012 39.7096 580.768 39.1725 580.279 38.7949C579.791 38.4108 578.906 38.0332 577.623 37.6621Z" fill="black"/>
<rect x="464.5" y="64.5" width="65" height="65" fill="white" stroke="black"/>
<rect x="514.5" y="82.5" width="65" height="65" fill="#FFF9DD" stroke="black"/>
<rect x="477.5" y="113.5" width="65" height="65" fill="white" stroke="black"/>
<rect x="522.5" y="132.5" width="65" height="65" fill="white" stroke="black"/>
<path d="M473.797 78.5391H470.758V77.3125H473.797C474.385 77.3125 474.862 77.2188 475.227 77.0312C475.591 76.8438 475.857 76.5833 476.023 76.25C476.195 75.9167 476.281 75.5365 476.281 75.1094C476.281 74.7188 476.195 74.3516 476.023 74.0078C475.857 73.6641 475.591 73.388 475.227 73.1797C474.862 72.9661 474.385 72.8594 473.797 72.8594H471.109V83H469.602V71.625H473.797C474.656 71.625 475.383 71.7734 475.977 72.0703C476.57 72.3672 477.021 72.7786 477.328 73.3047C477.635 73.8255 477.789 74.4219 477.789 75.0938C477.789 75.8229 477.635 76.4453 477.328 76.9609C477.021 77.4766 476.57 77.8698 475.977 78.1406C475.383 78.4062 474.656 78.5391 473.797 78.5391ZM482.773 83H480.398L480.414 81.7734H482.773C483.586 81.7734 484.263 81.6042 484.805 81.2656C485.346 80.9219 485.753 80.4427 486.023 79.8281C486.299 79.2083 486.438 78.4844 486.438 77.6562V76.9609C486.438 76.3099 486.359 75.7318 486.203 75.2266C486.047 74.7161 485.818 74.2865 485.516 73.9375C485.214 73.5833 484.844 73.3151 484.406 73.1328C483.974 72.9505 483.477 72.8594 482.914 72.8594H480.352V71.625H482.914C483.659 71.625 484.339 71.75 484.953 72C485.568 72.2448 486.096 72.6016 486.539 73.0703C486.987 73.5339 487.331 74.0964 487.57 74.7578C487.81 75.4141 487.93 76.1536 487.93 76.9766V77.6562C487.93 78.4792 487.81 79.2214 487.57 79.8828C487.331 80.5391 486.984 81.099 486.531 81.5625C486.083 82.026 485.542 82.3828 484.906 82.6328C484.276 82.8776 483.565 83 482.773 83ZM481.203 71.625V83H479.695V71.625H481.203ZM491.703 71.625V83H490.195V71.625H491.703ZM496.469 76.7422V77.9766H491.375V76.7422H496.469ZM497.242 71.625V72.8594H491.375V71.625H497.242Z" fill="#CCCCCC"/>
<path d="M472.894 92.1782C472.894 92.009 472.856 91.8524 472.78 91.7085C472.708 91.5604 472.558 91.4271 472.329 91.3086C472.105 91.1859 471.766 91.0801 471.313 90.9912C470.933 90.9108 470.588 90.8156 470.279 90.7056C469.974 90.5955 469.714 90.4622 469.498 90.3057C469.286 90.1491 469.124 89.965 469.009 89.7534C468.895 89.5418 468.838 89.2943 468.838 89.0107C468.838 88.7399 468.897 88.4839 469.016 88.2427C469.138 88.0015 469.31 87.7878 469.53 87.6016C469.754 87.4154 470.023 87.2694 470.336 87.1636C470.649 87.0578 470.998 87.0049 471.383 87.0049C471.933 87.0049 472.403 87.1022 472.792 87.2969C473.182 87.4915 473.48 87.7518 473.688 88.0776C473.895 88.3993 473.999 88.7568 473.999 89.1504H472.824C472.824 88.96 472.767 88.7759 472.653 88.5981C472.543 88.4162 472.38 88.266 472.164 88.1475C471.952 88.029 471.692 87.9697 471.383 87.9697C471.057 87.9697 470.793 88.0205 470.59 88.1221C470.391 88.2194 470.245 88.3442 470.152 88.4966C470.063 88.6489 470.019 88.8097 470.019 88.979C470.019 89.106 470.04 89.2202 470.082 89.3218C470.129 89.4191 470.209 89.5101 470.323 89.5947C470.438 89.6751 470.598 89.7513 470.806 89.8232C471.013 89.8952 471.278 89.9671 471.599 90.0391C472.162 90.166 472.625 90.3184 472.989 90.4961C473.353 90.6738 473.624 90.8918 473.802 91.1499C473.979 91.408 474.068 91.7212 474.068 92.0894C474.068 92.3898 474.005 92.6649 473.878 92.9146C473.755 93.1642 473.575 93.38 473.338 93.562C473.106 93.7397 472.826 93.8794 472.5 93.981C472.179 94.0783 471.817 94.127 471.415 94.127C470.81 94.127 470.298 94.019 469.879 93.8032C469.46 93.5874 469.143 93.3081 468.927 92.9653C468.711 92.6226 468.603 92.2607 468.603 91.8799H469.784C469.801 92.2015 469.894 92.4575 470.063 92.6479C470.232 92.8341 470.44 92.9674 470.685 93.0479C470.931 93.124 471.174 93.1621 471.415 93.1621C471.737 93.1621 472.005 93.1198 472.221 93.0352C472.441 92.9505 472.608 92.8341 472.723 92.686C472.837 92.5379 472.894 92.3687 472.894 92.1782ZM475.3 90.6421V90.4961C475.3 90.001 475.372 89.5418 475.516 89.1187C475.66 88.6912 475.867 88.321 476.138 88.0078C476.409 87.6904 476.736 87.445 477.122 87.2715C477.507 87.0938 477.938 87.0049 478.417 87.0049C478.899 87.0049 479.333 87.0938 479.718 87.2715C480.107 87.445 480.437 87.6904 480.708 88.0078C480.983 88.321 481.193 88.6912 481.336 89.1187C481.48 89.5418 481.552 90.001 481.552 90.4961V90.6421C481.552 91.1372 481.48 91.5964 481.336 92.0195C481.193 92.4427 480.983 92.813 480.708 93.1304C480.437 93.4435 480.109 93.689 479.724 93.8667C479.343 94.0402 478.912 94.127 478.429 94.127C477.947 94.127 477.513 94.0402 477.128 93.8667C476.743 93.689 476.413 93.4435 476.138 93.1304C475.867 92.813 475.66 92.4427 475.516 92.0195C475.372 91.5964 475.3 91.1372 475.3 90.6421ZM476.474 90.4961V90.6421C476.474 90.9849 476.514 91.3086 476.595 91.6133C476.675 91.9137 476.796 92.1803 476.957 92.4131C477.122 92.6458 477.327 92.8299 477.572 92.9653C477.818 93.0965 478.103 93.1621 478.429 93.1621C478.751 93.1621 479.032 93.0965 479.273 92.9653C479.519 92.8299 479.722 92.6458 479.883 92.4131C480.044 92.1803 480.164 91.9137 480.245 91.6133C480.329 91.3086 480.372 90.9849 480.372 90.6421V90.4961C480.372 90.1576 480.329 89.8381 480.245 89.5376C480.164 89.2329 480.042 88.9642 479.876 88.7314C479.716 88.4945 479.513 88.3083 479.267 88.1729C479.026 88.0374 478.742 87.9697 478.417 87.9697C478.095 87.9697 477.811 88.0374 477.566 88.1729C477.325 88.3083 477.122 88.4945 476.957 88.7314C476.796 88.9642 476.675 89.2329 476.595 89.5376C476.514 89.8381 476.474 90.1576 476.474 90.4961ZM482.714 90.6421V90.4961C482.714 90.001 482.786 89.5418 482.93 89.1187C483.074 88.6912 483.281 88.321 483.552 88.0078C483.823 87.6904 484.151 87.445 484.536 87.2715C484.921 87.0938 485.352 87.0049 485.831 87.0049C486.313 87.0049 486.747 87.0938 487.132 87.2715C487.521 87.445 487.851 87.6904 488.122 88.0078C488.397 88.321 488.607 88.6912 488.75 89.1187C488.894 89.5418 488.966 90.001 488.966 90.4961V90.6421C488.966 91.1372 488.894 91.5964 488.75 92.0195C488.607 92.4427 488.397 92.813 488.122 93.1304C487.851 93.4435 487.523 93.689 487.138 93.8667C486.757 94.0402 486.326 94.127 485.843 94.127C485.361 94.127 484.927 94.0402 484.542 93.8667C484.157 93.689 483.827 93.4435 483.552 93.1304C483.281 92.813 483.074 92.4427 482.93 92.0195C482.786 91.5964 482.714 91.1372 482.714 90.6421ZM483.888 90.4961V90.6421C483.888 90.9849 483.928 91.3086 484.009 91.6133C484.089 91.9137 484.21 92.1803 484.371 92.4131C484.536 92.6458 484.741 92.8299 484.986 92.9653C485.232 93.0965 485.517 93.1621 485.843 93.1621C486.165 93.1621 486.446 93.0965 486.688 92.9653C486.933 92.8299 487.136 92.6458 487.297 92.4131C487.458 92.1803 487.578 91.9137 487.659 91.6133C487.743 91.3086 487.786 90.9849 487.786 90.6421V90.4961C487.786 90.1576 487.743 89.8381 487.659 89.5376C487.578 89.2329 487.456 88.9642 487.291 88.7314C487.13 88.4945 486.927 88.3083 486.681 88.1729C486.44 88.0374 486.156 87.9697 485.831 87.9697C485.509 87.9697 485.225 88.0374 484.98 88.1729C484.739 88.3083 484.536 88.4945 484.371 88.7314C484.21 88.9642 484.089 89.2329 484.009 89.5376C483.928 89.8381 483.888 90.1576 483.888 90.4961ZM491.613 88.5981V94H490.439V87.1318H491.55L491.613 88.5981ZM491.334 90.3057L490.845 90.2866C490.849 89.8169 490.919 89.3831 491.055 88.9854C491.19 88.5833 491.381 88.2342 491.626 87.938C491.871 87.6418 492.163 87.4132 492.502 87.2524C492.845 87.0874 493.223 87.0049 493.638 87.0049C493.977 87.0049 494.281 87.0514 494.552 87.1445C494.823 87.2334 495.054 87.3773 495.244 87.5762C495.439 87.7751 495.587 88.0332 495.688 88.3506C495.79 88.6637 495.841 89.0467 495.841 89.4995V94H494.66V89.4868C494.66 89.1271 494.607 88.8394 494.501 88.6235C494.396 88.4035 494.241 88.2448 494.038 88.1475C493.835 88.0459 493.585 87.9951 493.289 87.9951C492.997 87.9951 492.73 88.0565 492.489 88.1792C492.252 88.3019 492.047 88.4712 491.874 88.687C491.704 88.9028 491.571 89.1504 491.474 89.4297C491.381 89.7048 491.334 89.9967 491.334 90.3057Z" fill="#CCCCCC"/>
<path d="M488.894 141.178C488.894 141.009 488.856 140.852 488.78 140.708C488.708 140.56 488.558 140.427 488.329 140.309C488.105 140.186 487.766 140.08 487.313 139.991C486.933 139.911 486.588 139.816 486.279 139.706C485.974 139.596 485.714 139.462 485.498 139.306C485.286 139.149 485.124 138.965 485.009 138.753C484.895 138.542 484.838 138.294 484.838 138.011C484.838 137.74 484.897 137.484 485.016 137.243C485.138 137.001 485.31 136.788 485.53 136.602C485.754 136.415 486.023 136.269 486.336 136.164C486.649 136.058 486.998 136.005 487.383 136.005C487.933 136.005 488.403 136.102 488.792 136.297C489.182 136.492 489.48 136.752 489.688 137.078C489.895 137.399 489.999 137.757 489.999 138.15H488.824C488.824 137.96 488.767 137.776 488.653 137.598C488.543 137.416 488.38 137.266 488.164 137.147C487.952 137.029 487.692 136.97 487.383 136.97C487.057 136.97 486.793 137.021 486.59 137.122C486.391 137.219 486.245 137.344 486.152 137.497C486.063 137.649 486.019 137.81 486.019 137.979C486.019 138.106 486.04 138.22 486.082 138.322C486.129 138.419 486.209 138.51 486.323 138.595C486.438 138.675 486.598 138.751 486.806 138.823C487.013 138.895 487.278 138.967 487.599 139.039C488.162 139.166 488.625 139.318 488.989 139.496C489.353 139.674 489.624 139.892 489.802 140.15C489.979 140.408 490.068 140.721 490.068 141.089C490.068 141.39 490.005 141.665 489.878 141.915C489.755 142.164 489.575 142.38 489.338 142.562C489.106 142.74 488.826 142.879 488.5 142.981C488.179 143.078 487.817 143.127 487.415 143.127C486.81 143.127 486.298 143.019 485.879 142.803C485.46 142.587 485.143 142.308 484.927 141.965C484.711 141.623 484.603 141.261 484.603 140.88H485.784C485.801 141.201 485.894 141.458 486.063 141.648C486.232 141.834 486.44 141.967 486.685 142.048C486.931 142.124 487.174 142.162 487.415 142.162C487.737 142.162 488.005 142.12 488.221 142.035C488.441 141.951 488.608 141.834 488.723 141.686C488.837 141.538 488.894 141.369 488.894 141.178ZM491.3 139.642V139.496C491.3 139.001 491.372 138.542 491.516 138.119C491.66 137.691 491.867 137.321 492.138 137.008C492.409 136.69 492.736 136.445 493.122 136.271C493.507 136.094 493.938 136.005 494.417 136.005C494.899 136.005 495.333 136.094 495.718 136.271C496.107 136.445 496.437 136.69 496.708 137.008C496.983 137.321 497.193 137.691 497.336 138.119C497.48 138.542 497.552 139.001 497.552 139.496V139.642C497.552 140.137 497.48 140.596 497.336 141.02C497.193 141.443 496.983 141.813 496.708 142.13C496.437 142.444 496.109 142.689 495.724 142.867C495.343 143.04 494.912 143.127 494.429 143.127C493.947 143.127 493.513 143.04 493.128 142.867C492.743 142.689 492.413 142.444 492.138 142.13C491.867 141.813 491.66 141.443 491.516 141.02C491.372 140.596 491.3 140.137 491.3 139.642ZM492.474 139.496V139.642C492.474 139.985 492.514 140.309 492.595 140.613C492.675 140.914 492.796 141.18 492.957 141.413C493.122 141.646 493.327 141.83 493.572 141.965C493.818 142.097 494.103 142.162 494.429 142.162C494.751 142.162 495.032 142.097 495.273 141.965C495.519 141.83 495.722 141.646 495.883 141.413C496.044 141.18 496.164 140.914 496.245 140.613C496.329 140.309 496.372 139.985 496.372 139.642V139.496C496.372 139.158 496.329 138.838 496.245 138.538C496.164 138.233 496.042 137.964 495.876 137.731C495.716 137.494 495.513 137.308 495.267 137.173C495.026 137.037 494.742 136.97 494.417 136.97C494.095 136.97 493.811 137.037 493.566 137.173C493.325 137.308 493.122 137.494 492.957 137.731C492.796 137.964 492.675 138.233 492.595 138.538C492.514 138.838 492.474 139.158 492.474 139.496ZM498.714 139.642V139.496C498.714 139.001 498.786 138.542 498.93 138.119C499.074 137.691 499.281 137.321 499.552 137.008C499.823 136.69 500.151 136.445 500.536 136.271C500.921 136.094 501.352 136.005 501.831 136.005C502.313 136.005 502.747 136.094 503.132 136.271C503.521 136.445 503.851 136.69 504.122 137.008C504.397 137.321 504.607 137.691 504.75 138.119C504.894 138.542 504.966 139.001 504.966 139.496V139.642C504.966 140.137 504.894 140.596 504.75 141.02C504.607 141.443 504.397 141.813 504.122 142.13C503.851 142.444 503.523 142.689 503.138 142.867C502.757 143.04 502.326 143.127 501.843 143.127C501.361 143.127 500.927 143.04 500.542 142.867C500.157 142.689 499.827 142.444 499.552 142.13C499.281 141.813 499.074 141.443 498.93 141.02C498.786 140.596 498.714 140.137 498.714 139.642ZM499.888 139.496V139.642C499.888 139.985 499.928 140.309 500.009 140.613C500.089 140.914 500.21 141.18 500.371 141.413C500.536 141.646 500.741 141.83 500.986 141.965C501.232 142.097 501.517 142.162 501.843 142.162C502.165 142.162 502.446 142.097 502.688 141.965C502.933 141.83 503.136 141.646 503.297 141.413C503.458 141.18 503.578 140.914 503.659 140.613C503.743 140.309 503.786 139.985 503.786 139.642V139.496C503.786 139.158 503.743 138.838 503.659 138.538C503.578 138.233 503.456 137.964 503.291 137.731C503.13 137.494 502.927 137.308 502.681 137.173C502.44 137.037 502.156 136.97 501.831 136.97C501.509 136.97 501.225 137.037 500.98 137.173C500.739 137.308 500.536 137.494 500.371 137.731C500.21 137.964 500.089 138.233 500.009 138.538C499.928 138.838 499.888 139.158 499.888 139.496ZM507.613 137.598V143H506.439V136.132H507.55L507.613 137.598ZM507.334 139.306L506.845 139.287C506.849 138.817 506.919 138.383 507.055 137.985C507.19 137.583 507.381 137.234 507.626 136.938C507.871 136.642 508.163 136.413 508.502 136.252C508.845 136.087 509.223 136.005 509.638 136.005C509.977 136.005 510.281 136.051 510.552 136.145C510.823 136.233 511.054 136.377 511.244 136.576C511.439 136.775 511.587 137.033 511.688 137.351C511.79 137.664 511.841 138.047 511.841 138.5V143H510.66V138.487C510.66 138.127 510.607 137.839 510.501 137.624C510.396 137.403 510.241 137.245 510.038 137.147C509.835 137.046 509.585 136.995 509.289 136.995C508.997 136.995 508.73 137.056 508.489 137.179C508.252 137.302 508.047 137.471 507.874 137.687C507.704 137.903 507.571 138.15 507.474 138.43C507.381 138.705 507.334 138.997 507.334 139.306Z" fill="#CCCCCC"/>
<path d="M529.894 162.178C529.894 162.009 529.856 161.852 529.78 161.708C529.708 161.56 529.558 161.427 529.329 161.309C529.105 161.186 528.766 161.08 528.313 160.991C527.933 160.911 527.588 160.816 527.279 160.706C526.974 160.596 526.714 160.462 526.498 160.306C526.286 160.149 526.124 159.965 526.009 159.753C525.895 159.542 525.838 159.294 525.838 159.011C525.838 158.74 525.897 158.484 526.016 158.243C526.138 158.001 526.31 157.788 526.53 157.602C526.754 157.415 527.023 157.269 527.336 157.164C527.649 157.058 527.998 157.005 528.383 157.005C528.933 157.005 529.403 157.102 529.792 157.297C530.182 157.492 530.48 157.752 530.688 158.078C530.895 158.399 530.999 158.757 530.999 159.15H529.824C529.824 158.96 529.767 158.776 529.653 158.598C529.543 158.416 529.38 158.266 529.164 158.147C528.952 158.029 528.692 157.97 528.383 157.97C528.057 157.97 527.793 158.021 527.59 158.122C527.391 158.219 527.245 158.344 527.152 158.497C527.063 158.649 527.019 158.81 527.019 158.979C527.019 159.106 527.04 159.22 527.082 159.322C527.129 159.419 527.209 159.51 527.323 159.595C527.438 159.675 527.598 159.751 527.806 159.823C528.013 159.895 528.278 159.967 528.599 160.039C529.162 160.166 529.625 160.318 529.989 160.496C530.353 160.674 530.624 160.892 530.802 161.15C530.979 161.408 531.068 161.721 531.068 162.089C531.068 162.39 531.005 162.665 530.878 162.915C530.755 163.164 530.575 163.38 530.338 163.562C530.106 163.74 529.826 163.879 529.5 163.981C529.179 164.078 528.817 164.127 528.415 164.127C527.81 164.127 527.298 164.019 526.879 163.803C526.46 163.587 526.143 163.308 525.927 162.965C525.711 162.623 525.603 162.261 525.603 161.88H526.784C526.801 162.201 526.894 162.458 527.063 162.648C527.232 162.834 527.44 162.967 527.685 163.048C527.931 163.124 528.174 163.162 528.415 163.162C528.737 163.162 529.005 163.12 529.221 163.035C529.441 162.951 529.608 162.834 529.723 162.686C529.837 162.538 529.894 162.369 529.894 162.178ZM532.3 160.642V160.496C532.3 160.001 532.372 159.542 532.516 159.119C532.66 158.691 532.867 158.321 533.138 158.008C533.409 157.69 533.736 157.445 534.122 157.271C534.507 157.094 534.938 157.005 535.417 157.005C535.899 157.005 536.333 157.094 536.718 157.271C537.107 157.445 537.437 157.69 537.708 158.008C537.983 158.321 538.193 158.691 538.336 159.119C538.48 159.542 538.552 160.001 538.552 160.496V160.642C538.552 161.137 538.48 161.596 538.336 162.02C538.193 162.443 537.983 162.813 537.708 163.13C537.437 163.444 537.109 163.689 536.724 163.867C536.343 164.04 535.912 164.127 535.429 164.127C534.947 164.127 534.513 164.04 534.128 163.867C533.743 163.689 533.413 163.444 533.138 163.13C532.867 162.813 532.66 162.443 532.516 162.02C532.372 161.596 532.3 161.137 532.3 160.642ZM533.474 160.496V160.642C533.474 160.985 533.514 161.309 533.595 161.613C533.675 161.914 533.796 162.18 533.957 162.413C534.122 162.646 534.327 162.83 534.572 162.965C534.818 163.097 535.103 163.162 535.429 163.162C535.751 163.162 536.032 163.097 536.273 162.965C536.519 162.83 536.722 162.646 536.883 162.413C537.044 162.18 537.164 161.914 537.245 161.613C537.329 161.309 537.372 160.985 537.372 160.642V160.496C537.372 160.158 537.329 159.838 537.245 159.538C537.164 159.233 537.042 158.964 536.876 158.731C536.716 158.494 536.513 158.308 536.267 158.173C536.026 158.037 535.742 157.97 535.417 157.97C535.095 157.97 534.811 158.037 534.566 158.173C534.325 158.308 534.122 158.494 533.957 158.731C533.796 158.964 533.675 159.233 533.595 159.538C533.514 159.838 533.474 160.158 533.474 160.496ZM539.714 160.642V160.496C539.714 160.001 539.786 159.542 539.93 159.119C540.074 158.691 540.281 158.321 540.552 158.008C540.823 157.69 541.151 157.445 541.536 157.271C541.921 157.094 542.352 157.005 542.831 157.005C543.313 157.005 543.747 157.094 544.132 157.271C544.521 157.445 544.851 157.69 545.122 158.008C545.397 158.321 545.607 158.691 545.75 159.119C545.894 159.542 545.966 160.001 545.966 160.496V160.642C545.966 161.137 545.894 161.596 545.75 162.02C545.607 162.443 545.397 162.813 545.122 163.13C544.851 163.444 544.523 163.689 544.138 163.867C543.757 164.04 543.326 164.127 542.843 164.127C542.361 164.127 541.927 164.04 541.542 163.867C541.157 163.689 540.827 163.444 540.552 163.13C540.281 162.813 540.074 162.443 539.93 162.02C539.786 161.596 539.714 161.137 539.714 160.642ZM540.888 160.496V160.642C540.888 160.985 540.928 161.309 541.009 161.613C541.089 161.914 541.21 162.18 541.371 162.413C541.536 162.646 541.741 162.83 541.986 162.965C542.232 163.097 542.517 163.162 542.843 163.162C543.165 163.162 543.446 163.097 543.688 162.965C543.933 162.83 544.136 162.646 544.297 162.413C544.458 162.18 544.578 161.914 544.659 161.613C544.743 161.309 544.786 160.985 544.786 160.642V160.496C544.786 160.158 544.743 159.838 544.659 159.538C544.578 159.233 544.456 158.964 544.291 158.731C544.13 158.494 543.927 158.308 543.681 158.173C543.44 158.037 543.156 157.97 542.831 157.97C542.509 157.97 542.225 158.037 541.98 158.173C541.739 158.308 541.536 158.494 541.371 158.731C541.21 158.964 541.089 159.233 541.009 159.538C540.928 159.838 540.888 160.158 540.888 160.496ZM548.613 158.598V164H547.439V157.132H548.55L548.613 158.598ZM548.334 160.306L547.845 160.287C547.849 159.817 547.919 159.383 548.055 158.985C548.19 158.583 548.381 158.234 548.626 157.938C548.871 157.642 549.163 157.413 549.502 157.252C549.845 157.087 550.223 157.005 550.638 157.005C550.977 157.005 551.281 157.051 551.552 157.145C551.823 157.233 552.054 157.377 552.244 157.576C552.439 157.775 552.587 158.033 552.688 158.351C552.79 158.664 552.841 159.047 552.841 159.5V164H551.66V159.487C551.66 159.127 551.607 158.839 551.501 158.624C551.396 158.403 551.241 158.245 551.038 158.147C550.835 158.046 550.585 157.995 550.289 157.995C549.997 157.995 549.73 158.056 549.489 158.179C549.252 158.302 549.047 158.471 548.874 158.687C548.704 158.903 548.571 159.15 548.474 159.43C548.381 159.705 548.334 159.997 548.334 160.306Z" fill="#CCCCCC"/>
<path d="M494.172 126.336V130.5C494.031 130.708 493.807 130.943 493.5 131.203C493.193 131.458 492.768 131.682 492.227 131.875C491.69 132.062 490.997 132.156 490.148 132.156C489.456 132.156 488.818 132.036 488.234 131.797C487.656 131.552 487.154 131.198 486.727 130.734C486.305 130.266 485.977 129.698 485.742 129.031C485.513 128.359 485.398 127.599 485.398 126.75V125.867C485.398 125.018 485.497 124.26 485.695 123.594C485.898 122.927 486.195 122.362 486.586 121.898C486.977 121.43 487.456 121.076 488.023 120.836C488.591 120.591 489.242 120.469 489.977 120.469C490.846 120.469 491.573 120.62 492.156 120.922C492.745 121.219 493.203 121.63 493.531 122.156C493.865 122.682 494.078 123.281 494.172 123.953H492.664C492.596 123.542 492.461 123.167 492.258 122.828C492.06 122.49 491.776 122.219 491.406 122.016C491.036 121.807 490.56 121.703 489.977 121.703C489.451 121.703 488.995 121.799 488.609 121.992C488.224 122.185 487.906 122.461 487.656 122.82C487.406 123.18 487.219 123.615 487.094 124.125C486.974 124.635 486.914 125.211 486.914 125.852V126.75C486.914 127.406 486.99 127.992 487.141 128.508C487.297 129.023 487.518 129.464 487.805 129.828C488.091 130.188 488.432 130.461 488.828 130.648C489.229 130.836 489.672 130.93 490.156 130.93C490.693 130.93 491.128 130.885 491.461 130.797C491.794 130.703 492.055 130.594 492.242 130.469C492.43 130.339 492.573 130.216 492.672 130.102V127.555H490.039V126.336H494.172ZM498.289 120.625V132H496.781V120.625H498.289ZM502.539 120.625V132H501.031V120.625H502.539ZM507.305 125.742V126.977H502.211V125.742H507.305ZM508.078 120.625V121.859H502.211V120.625H508.078Z" fill="#CCCCCC"/>
<circle cx="519.289" cy="72.3947" r="2.60526" fill="#EEEEEE"/>
<path d="M520.117 96.5469V101H518.617V89.625H522.812C524.057 89.625 525.031 89.9427 525.734 90.5781C526.443 91.2135 526.797 92.0547 526.797 93.1016C526.797 94.2057 526.451 95.0573 525.758 95.6562C525.07 96.25 524.083 96.5469 522.797 96.5469H520.117ZM520.117 95.3203H522.812C523.615 95.3203 524.229 95.1328 524.656 94.7578C525.083 94.3776 525.297 93.8307 525.297 93.1172C525.297 92.4401 525.083 91.8984 524.656 91.4922C524.229 91.0859 523.643 90.875 522.898 90.8594H520.117V95.3203ZM537.453 101H535.945L530.219 92.2344V101H528.711V89.625H530.219L535.961 98.4297V89.625H537.453V101ZM548.516 99.5078C548.13 100.06 547.591 100.474 546.898 100.75C546.211 101.021 545.409 101.156 544.492 101.156C543.565 101.156 542.742 100.94 542.023 100.508C541.305 100.07 540.747 99.4505 540.352 98.6484C539.961 97.8464 539.76 96.9167 539.75 95.8594V94.8672C539.75 93.1536 540.148 91.8255 540.945 90.8828C541.747 89.9401 542.872 89.4688 544.32 89.4688C545.508 89.4688 546.464 89.7734 547.188 90.3828C547.911 90.987 548.354 91.8464 548.516 92.9609H547.016C546.734 91.4557 545.839 90.7031 544.328 90.7031C543.323 90.7031 542.56 91.0573 542.039 91.7656C541.523 92.4688 541.263 93.4896 541.258 94.8281V95.7578C541.258 97.0339 541.549 98.0495 542.133 98.8047C542.716 99.5547 543.505 99.9297 544.5 99.9297C545.062 99.9297 545.555 99.8672 545.977 99.7422C546.398 99.6172 546.747 99.4062 547.023 99.1094V96.5547H544.391V95.3359H548.516V99.5078Z" fill="black"/>
<path d="M528.68 147.562L530.938 139.625H532.031L531.398 142.711L528.969 151H527.883L528.68 147.562ZM526.344 139.625L528.141 147.406L528.68 151H527.602L524.844 139.625H526.344ZM534.953 147.398L536.711 139.625H538.219L535.469 151H534.391L534.953 147.398ZM532.195 139.625L534.391 147.562L535.188 151H534.102L531.758 142.711L531.117 139.625H532.195ZM547.117 149.773V151H541.094V149.773H547.117ZM541.398 139.625V151H539.891V139.625H541.398ZM546.32 144.516V145.742H541.094V144.516H546.32ZM547.039 139.625V140.859H541.094V139.625H547.039ZM553.039 145.68H550.156L550.141 144.469H552.758C553.19 144.469 553.568 144.396 553.891 144.25C554.214 144.104 554.464 143.896 554.641 143.625C554.823 143.349 554.914 143.021 554.914 142.641C554.914 142.224 554.833 141.885 554.672 141.625C554.516 141.359 554.273 141.167 553.945 141.047C553.622 140.922 553.211 140.859 552.711 140.859H550.492V151H548.984V139.625H552.711C553.294 139.625 553.815 139.685 554.273 139.805C554.732 139.919 555.12 140.102 555.438 140.352C555.76 140.596 556.005 140.909 556.172 141.289C556.339 141.669 556.422 142.125 556.422 142.656C556.422 143.125 556.302 143.549 556.062 143.93C555.823 144.305 555.49 144.612 555.062 144.852C554.641 145.091 554.146 145.245 553.578 145.312L553.039 145.68ZM552.969 151H549.562L550.414 149.773H552.969C553.448 149.773 553.854 149.69 554.188 149.523C554.526 149.357 554.784 149.122 554.961 148.82C555.138 148.513 555.227 148.151 555.227 147.734C555.227 147.312 555.151 146.948 555 146.641C554.849 146.333 554.612 146.096 554.289 145.93C553.966 145.763 553.549 145.68 553.039 145.68H550.891L550.906 144.469H553.844L554.164 144.906C554.711 144.953 555.174 145.109 555.555 145.375C555.935 145.635 556.224 145.969 556.422 146.375C556.625 146.781 556.727 147.229 556.727 147.719C556.727 148.427 556.57 149.026 556.258 149.516C555.951 150 555.516 150.37 554.953 150.625C554.391 150.875 553.729 151 552.969 151Z" fill="#CCCCCC"/>
<path d="M355.171 115.103L355.171 115.103C358.607 118.896 360.5 123.828 360.5 128.994C360.5 140.308 351.458 149.5 340.364 149.5H284.798H284.221C271.702 149.5 261.5 139.129 261.5 126.363C261.5 115.085 269.468 105.673 279.961 103.638L280.276 103.577L280.352 103.266C281.541 98.3994 284.094 93.9663 287.763 90.4898L287.763 90.4897C292.521 85.9803 298.72 83.5 305.22 83.5C312.492 83.5 319.363 86.6414 324.191 92.0497L324.367 92.2467L324.629 92.2126C325.446 92.1062 326.27 92.0523 327.099 92.0523C336.869 92.0523 344.982 99.4765 346.258 109.089L346.299 109.4L346.596 109.498C349.851 110.575 352.805 112.489 355.171 115.103Z" fill="#FFF9DD" stroke="black"/>
<path d="M296.727 134.361C294.998 133.873 293.694 133.067 292.815 131.944C291.946 130.831 291.512 129.356 291.512 127.521V124.605C291.512 122.232 290.477 121.046 288.406 121.046V118.922C290.477 118.922 291.512 117.74 291.512 115.377V112.33C291.531 110.543 291.966 109.103 292.815 108.009C293.675 106.905 294.979 106.104 296.727 105.606L297.283 107.291C295.242 107.945 294.222 109.649 294.222 112.403V115.362C294.222 117.579 293.406 119.122 291.775 119.991C293.406 120.87 294.222 122.428 294.222 124.664V127.682C294.251 130.367 295.271 132.032 297.283 132.677L296.727 134.361ZM299.744 127.579C299.744 127.11 299.881 126.72 300.154 126.407C300.438 126.095 300.857 125.938 301.414 125.938C301.971 125.938 302.391 126.095 302.674 126.407C302.967 126.72 303.113 127.11 303.113 127.579C303.113 128.028 302.967 128.404 302.674 128.707C302.391 129.01 301.971 129.161 301.414 129.161C300.857 129.161 300.438 129.01 300.154 128.707C299.881 128.404 299.744 128.028 299.744 127.579ZM307.654 127.579C307.654 127.11 307.791 126.72 308.064 126.407C308.348 126.095 308.768 125.938 309.324 125.938C309.881 125.938 310.301 126.095 310.584 126.407C310.877 126.72 311.023 127.11 311.023 127.579C311.023 128.028 310.877 128.404 310.584 128.707C310.301 129.01 309.881 129.161 309.324 129.161C308.768 129.161 308.348 129.01 308.064 128.707C307.791 128.404 307.654 128.028 307.654 127.579ZM315.564 127.579C315.564 127.11 315.701 126.72 315.975 126.407C316.258 126.095 316.678 125.938 317.234 125.938C317.791 125.938 318.211 126.095 318.494 126.407C318.787 126.72 318.934 127.11 318.934 127.579C318.934 128.028 318.787 128.404 318.494 128.707C318.211 129.01 317.791 129.161 317.234 129.161C316.678 129.161 316.258 129.01 315.975 128.707C315.701 128.404 315.564 128.028 315.564 127.579ZM321.644 132.677C323.626 132.042 324.651 130.426 324.72 127.828V124.605C324.72 122.35 325.604 120.812 327.371 119.991C325.604 119.19 324.72 117.652 324.72 115.377V112.403C324.72 109.649 323.699 107.945 321.658 107.291L322.215 105.606C323.943 106.095 325.242 106.891 326.111 107.994C326.98 109.088 327.42 110.538 327.43 112.345V115.421C327.43 117.755 328.465 118.922 330.535 118.922V121.046C328.465 121.046 327.43 122.232 327.43 124.605V127.564C327.43 129.4 326.985 130.87 326.097 131.974C325.218 133.077 323.924 133.873 322.215 134.361L321.644 132.677Z" fill="black"/>
<rect x="41.5" y="64.5" width="113" height="133" fill="#FFF9DD" stroke="black"/>
<g clip-path="url(#clip0_1_2)">
<path d="M60.5 83C60.5 82.0275 60.8951 81.0949 61.5983 80.4073C62.3016 79.7196 63.2554 79.3333 64.25 79.3333C65.2446 79.3333 66.1984 79.7196 66.9017 80.4073C67.6049 81.0949 68 82.0275 68 83C68 83.9725 67.6049 84.9051 66.9017 85.5927C66.1984 86.2804 65.2446 86.6667 64.25 86.6667C63.2554 86.6667 62.3016 86.2804 61.5983 85.5927C60.8951 84.9051 60.5 83.9725 60.5 83Z" fill="#1ABCFE"/>
<path d="M53 90.3333C53 89.3609 53.3951 88.4282 54.0983 87.7406C54.8016 87.053 55.7554 86.6667 56.75 86.6667H60.5V90.3333C60.5 91.3058 60.1049 92.2384 59.4017 92.9261C58.6984 93.6137 57.7446 94 56.75 94C55.7554 94 54.8016 93.6137 54.0983 92.9261C53.3951 92.2384 53 91.3058 53 90.3333V90.3333Z" fill="#0ACF83"/>
<path d="M60.5 72V79.3333H64.25C65.2446 79.3333 66.1984 78.947 66.9017 78.2594C67.6049 77.5718 68 76.6391 68 75.6667C68 74.6942 67.6049 73.7616 66.9017 73.0739C66.1984 72.3863 65.2446 72 64.25 72H60.5Z" fill="#FF7262"/>
<path d="M53 75.6667C53 76.6391 53.3951 77.5718 54.0983 78.2594C54.8016 78.947 55.7554 79.3333 56.75 79.3333H60.5V72H56.75C55.7554 72 54.8016 72.3863 54.0983 73.0739C53.3951 73.7616 53 74.6942 53 75.6667V75.6667Z" fill="#F24E1E"/>
<path d="M53 83C53 83.9725 53.3951 84.9051 54.0983 85.5927C54.8016 86.2804 55.7554 86.6667 56.75 86.6667H60.5V79.3333H56.75C55.7554 79.3333 54.8016 79.7196 54.0983 80.4073C53.3951 81.0949 53 82.0275 53 83V83Z" fill="#A259FF"/>
</g>
<path d="M83.6562 73.8594H80V84H78.5078V73.8594H74.8594V72.625H83.6562V73.8594ZM86.6875 84H85.2422V75.5469H86.6875V84ZM85.125 73.3047C85.125 73.0703 85.1953 72.8724 85.3359 72.7109C85.4818 72.5495 85.6953 72.4688 85.9766 72.4688C86.2578 72.4688 86.4714 72.5495 86.6172 72.7109C86.763 72.8724 86.8359 73.0703 86.8359 73.3047C86.8359 73.5391 86.763 73.7344 86.6172 73.8906C86.4714 74.0469 86.2578 74.125 85.9766 74.125C85.6953 74.125 85.4818 74.0469 85.3359 73.8906C85.1953 73.7344 85.125 73.5391 85.125 73.3047ZM90.9688 73.5V75.5469H92.5469V76.6641H90.9688V81.9062C90.9688 82.2448 91.0391 82.5 91.1797 82.6719C91.3203 82.8385 91.5599 82.9219 91.8984 82.9219C92.0651 82.9219 92.2943 82.8906 92.5859 82.8281V84C92.2057 84.1042 91.8359 84.1562 91.4766 84.1562C90.8307 84.1562 90.3438 83.9609 90.0156 83.5703C89.6875 83.1797 89.5234 82.625 89.5234 81.9062V76.6641H87.9844V75.5469H89.5234V73.5H90.9688ZM95.8125 84H94.3672V72H95.8125V84ZM101.641 84.1562C100.495 84.1562 99.5625 83.7812 98.8438 83.0312C98.125 82.276 97.7656 81.2682 97.7656 80.0078V79.7422C97.7656 78.9036 97.9245 78.1562 98.2422 77.5C98.5651 76.8385 99.013 76.3229 99.5859 75.9531C100.164 75.5781 100.789 75.3906 101.461 75.3906C102.56 75.3906 103.414 75.7526 104.023 76.4766C104.633 77.2005 104.938 78.237 104.938 79.5859V80.1875H99.2109C99.2318 81.0208 99.474 81.6953 99.9375 82.2109C100.406 82.7214 101 82.9766 101.719 82.9766C102.229 82.9766 102.661 82.8724 103.016 82.6641C103.37 82.4557 103.68 82.1797 103.945 81.8359L104.828 82.5234C104.12 83.612 103.057 84.1562 101.641 84.1562ZM101.461 76.5781C100.878 76.5781 100.388 76.7917 99.9922 77.2188C99.5964 77.6406 99.3516 78.2344 99.2578 79H103.492V78.8906C103.451 78.1562 103.253 77.5885 102.898 77.1875C102.544 76.7812 102.065 76.5781 101.461 76.5781Z" fill="black"/>
<path d="M59.3535 113.028H56.8398V120H55.814V113.028H53.3057V112.18H59.3535V113.028ZM62.2324 120.107C61.4447 120.107 60.8037 119.85 60.3096 119.334C59.8154 118.815 59.5684 118.122 59.5684 117.255V117.073C59.5684 116.496 59.6776 115.982 59.896 115.531C60.118 115.076 60.4259 114.722 60.8198 114.468C61.2173 114.21 61.647 114.081 62.1089 114.081C62.8644 114.081 63.4517 114.33 63.8706 114.828C64.2896 115.325 64.499 116.038 64.499 116.965V117.379H60.562C60.5763 117.952 60.7428 118.416 61.0615 118.77C61.3838 119.121 61.792 119.296 62.2861 119.296C62.637 119.296 62.9342 119.225 63.1777 119.082C63.4212 118.938 63.6343 118.749 63.8169 118.512L64.4238 118.985C63.9368 119.733 63.2064 120.107 62.2324 120.107ZM62.1089 114.897C61.7078 114.897 61.3713 115.044 61.0991 115.338C60.827 115.628 60.6587 116.036 60.5942 116.562H63.5054V116.487C63.4767 115.982 63.3407 115.592 63.0972 115.316C62.8537 115.037 62.5243 114.897 62.1089 114.897ZM67.6035 116.31L68.8926 114.188H70.0527L68.1514 117.062L70.1118 120H68.9624L67.6196 117.825L66.2769 120H65.1221L67.0825 117.062L65.1812 114.188H66.3306L67.6035 116.31ZM72.459 112.781V114.188H73.5439V114.957H72.459V118.561C72.459 118.793 72.5073 118.969 72.604 119.087C72.7007 119.201 72.8654 119.259 73.0981 119.259C73.2127 119.259 73.3703 119.237 73.5708 119.194V120C73.3094 120.072 73.0552 120.107 72.8081 120.107C72.3641 120.107 72.0293 119.973 71.8037 119.705C71.5781 119.436 71.4653 119.055 71.4653 118.561V114.957H70.4072V114.188H71.4653V112.781H72.459Z" fill="black"/>
<rect x="53" y="143" width="88" height="44" fill="white"/>
<path d="M86.1147 167H85.271V160.602H86.1147V167ZM88.2988 162.245L88.3208 162.772C88.6694 162.362 89.1396 162.157 89.7314 162.157C90.3965 162.157 90.8491 162.412 91.0894 162.922C91.2476 162.693 91.4526 162.509 91.7046 162.368C91.9595 162.228 92.2598 162.157 92.6055 162.157C93.6484 162.157 94.1787 162.709 94.1963 163.814V167H93.3833V163.862C93.3833 163.522 93.3057 163.269 93.1504 163.102C92.9951 162.932 92.7344 162.847 92.3682 162.847C92.0664 162.847 91.8159 162.938 91.6167 163.12C91.4175 163.298 91.3018 163.54 91.2695 163.845V167H90.4521V163.884C90.4521 163.193 90.1138 162.847 89.437 162.847C88.9038 162.847 88.5391 163.074 88.3428 163.528V167H87.5298V162.245H88.2988ZM98.3623 167C98.3154 166.906 98.2773 166.739 98.248 166.499C97.8701 166.892 97.4189 167.088 96.8945 167.088C96.4258 167.088 96.0405 166.956 95.7388 166.692C95.4399 166.426 95.2905 166.089 95.2905 165.682C95.2905 165.187 95.478 164.803 95.853 164.53C96.231 164.255 96.7612 164.117 97.4438 164.117H98.2349V163.744C98.2349 163.459 98.1499 163.234 97.98 163.067C97.8101 162.897 97.5596 162.812 97.2285 162.812C96.9385 162.812 96.6953 162.885 96.499 163.032C96.3027 163.178 96.2046 163.355 96.2046 163.563H95.3872C95.3872 163.326 95.4707 163.098 95.6377 162.878C95.8076 162.655 96.0361 162.479 96.3232 162.351C96.6133 162.222 96.9312 162.157 97.2769 162.157C97.8247 162.157 98.2539 162.295 98.5645 162.57C98.875 162.843 99.0361 163.219 99.0479 163.7V165.888C99.0479 166.325 99.1035 166.672 99.2148 166.93V167H98.3623ZM97.0132 166.38C97.2681 166.38 97.5098 166.314 97.7383 166.183C97.9668 166.051 98.1323 165.879 98.2349 165.668V164.693H97.5977C96.6016 164.693 96.1035 164.984 96.1035 165.567C96.1035 165.822 96.1885 166.021 96.3584 166.165C96.5283 166.309 96.7466 166.38 97.0132 166.38ZM100.129 164.583C100.129 163.842 100.3 163.253 100.643 162.816C100.986 162.377 101.44 162.157 102.005 162.157C102.585 162.157 103.038 162.362 103.363 162.772L103.403 162.245H104.146V166.886C104.146 167.501 103.962 167.986 103.596 168.34C103.233 168.695 102.744 168.872 102.128 168.872C101.786 168.872 101.45 168.799 101.122 168.652C100.794 168.506 100.543 168.305 100.371 168.05L100.792 167.562C101.141 167.993 101.567 168.208 102.071 168.208C102.467 168.208 102.774 168.097 102.994 167.875C103.217 167.652 103.328 167.338 103.328 166.934V166.525C103.003 166.9 102.559 167.088 101.997 167.088C101.44 167.088 100.989 166.864 100.643 166.416C100.3 165.967 100.129 165.356 100.129 164.583ZM100.946 164.675C100.946 165.211 101.056 165.633 101.276 165.941C101.496 166.246 101.803 166.398 102.199 166.398C102.711 166.398 103.088 166.165 103.328 165.699V163.528C103.079 163.074 102.706 162.847 102.208 162.847C101.812 162.847 101.503 163.001 101.28 163.309C101.058 163.616 100.946 164.072 100.946 164.675ZM107.349 167.088C106.705 167.088 106.18 166.877 105.776 166.455C105.372 166.03 105.169 165.463 105.169 164.754V164.605C105.169 164.133 105.259 163.713 105.438 163.344C105.619 162.972 105.871 162.682 106.193 162.474C106.519 162.263 106.87 162.157 107.248 162.157C107.866 162.157 108.347 162.361 108.689 162.768C109.032 163.175 109.204 163.758 109.204 164.517V164.855H105.982C105.994 165.324 106.13 165.704 106.391 165.994C106.655 166.281 106.989 166.424 107.393 166.424C107.68 166.424 107.923 166.366 108.123 166.249C108.322 166.131 108.496 165.976 108.646 165.783L109.142 166.169C108.744 166.782 108.146 167.088 107.349 167.088ZM107.248 162.825C106.92 162.825 106.645 162.945 106.422 163.186C106.199 163.423 106.062 163.757 106.009 164.188H108.391V164.126C108.367 163.713 108.256 163.394 108.057 163.168C107.857 162.939 107.588 162.825 107.248 162.825Z" fill="black"/>
<rect x="137" y="127" width="4" height="9" fill="#555555"/>
<rect x="132" y="111" width="4" height="25" fill="#555555"/>
<rect x="127" y="132" width="4" height="4" fill="#555555"/>
<rect x="122" y="123" width="4" height="13" fill="#555555"/>
<defs>
<clipPath id="clip0_1_2">
<rect width="15" height="22" fill="white" transform="translate(53 72)"/>
</clipPath>
</defs>
</svg>
