<svg width="299" height="525" viewBox="0 0 299 525" fill="none" xmlns="http://www.w3.org/2000/svg">
<rect width="299" height="525" fill="white"/>
<path d="M262.171 263.103L262.171 263.103C265.607 266.896 267.5 271.828 267.5 276.994C267.5 288.308 258.458 297.5 247.364 297.5H191.798H191.221C178.702 297.5 168.5 287.129 168.5 274.363C168.5 263.085 176.468 253.673 186.961 251.638L187.276 251.577L187.352 251.266C188.541 246.399 191.094 241.966 194.763 238.49L194.763 238.49C199.521 233.98 205.72 231.5 212.22 231.5C219.492 231.5 226.363 234.641 231.191 240.05L231.367 240.247L231.629 240.213C232.446 240.106 233.27 240.052 234.099 240.052C243.869 240.052 251.982 247.477 253.258 257.089L253.299 257.4L253.596 257.498C256.851 258.575 259.805 260.489 262.171 263.103Z" fill="#EEEEEE" stroke="black"/>
<path d="M203.727 282.361C201.998 281.873 200.694 281.067 199.815 279.944C198.946 278.831 198.512 277.356 198.512 275.521V272.605C198.512 270.232 197.477 269.046 195.406 269.046V266.922C197.477 266.922 198.512 265.74 198.512 263.377V260.33C198.531 258.543 198.966 257.103 199.815 256.009C200.675 254.905 201.979 254.104 203.727 253.606L204.283 255.291C202.242 255.945 201.222 257.649 201.222 260.403V263.362C201.222 265.579 200.406 267.122 198.775 267.991C200.406 268.87 201.222 270.428 201.222 272.664V275.682C201.251 278.367 202.271 280.032 204.283 280.677L203.727 282.361ZM206.744 275.579C206.744 275.11 206.881 274.72 207.154 274.407C207.438 274.095 207.857 273.938 208.414 273.938C208.971 273.938 209.391 274.095 209.674 274.407C209.967 274.72 210.113 275.11 210.113 275.579C210.113 276.028 209.967 276.404 209.674 276.707C209.391 277.01 208.971 277.161 208.414 277.161C207.857 277.161 207.438 277.01 207.154 276.707C206.881 276.404 206.744 276.028 206.744 275.579ZM214.654 275.579C214.654 275.11 214.791 274.72 215.064 274.407C215.348 274.095 215.768 273.938 216.324 273.938C216.881 273.938 217.301 274.095 217.584 274.407C217.877 274.72 218.023 275.11 218.023 275.579C218.023 276.028 217.877 276.404 217.584 276.707C217.301 277.01 216.881 277.161 216.324 277.161C215.768 277.161 215.348 277.01 215.064 276.707C214.791 276.404 214.654 276.028 214.654 275.579ZM222.564 275.579C222.564 275.11 222.701 274.72 222.975 274.407C223.258 274.095 223.678 273.938 224.234 273.938C224.791 273.938 225.211 274.095 225.494 274.407C225.787 274.72 225.934 275.11 225.934 275.579C225.934 276.028 225.787 276.404 225.494 276.707C225.211 277.01 224.791 277.161 224.234 277.161C223.678 277.161 223.258 277.01 222.975 276.707C222.701 276.404 222.564 276.028 222.564 275.579ZM228.644 280.677C230.626 280.042 231.651 278.426 231.72 275.828V272.605C231.72 270.35 232.604 268.812 234.371 267.991C232.604 267.19 231.72 265.652 231.72 263.377V260.403C231.72 257.649 230.699 255.945 228.658 255.291L229.215 253.606C230.943 254.095 232.242 254.891 233.111 255.994C233.98 257.088 234.42 258.538 234.43 260.345V263.421C234.43 265.755 235.465 266.922 237.535 266.922V269.046C235.465 269.046 234.43 270.232 234.43 272.605V275.564C234.43 277.4 233.985 278.87 233.097 279.974C232.218 281.077 230.924 281.873 229.215 282.361L228.644 280.677Z" fill="black"/>
<path d="M71.6729 167.933H81.585V172.205H71.6729V183.436H67.1318V172.205H57.2197V167.933H67.1318V157.557H71.6729V167.933Z" fill="black"/>
<path d="M79.3516 352.127H58.9902V348.196H79.3516V352.127ZM79.3516 362.259H58.9902V358.353H79.3516V362.259Z" fill="black"/>
<path d="M30.7676 80.3242H26.1973V93H24.332V80.3242H19.7715V78.7812H30.7676V80.3242ZM40.9141 86.4277H34.752V91.4668H41.9102V93H32.877V78.7812H41.8125V80.3242H34.752V84.8945H40.9141V86.4277ZM46.666 78.7812L51.3145 90.3828L55.9629 78.7812H58.3945V93H56.5195V87.4629L56.6953 81.4863L52.0273 93H50.5918L45.9336 81.5156L46.1191 87.4629V93H44.2441V78.7812H46.666ZM63.5801 87.4336V93H61.7051V78.7812H66.9492C68.5052 78.7812 69.7227 79.1784 70.6016 79.9727C71.487 80.7669 71.9297 81.8184 71.9297 83.127C71.9297 84.5072 71.4967 85.5716 70.6309 86.3203C69.7715 87.0625 68.5378 87.4336 66.9297 87.4336H63.5801ZM63.5801 85.9004H66.9492C67.9518 85.9004 68.7201 85.666 69.2539 85.1973C69.7878 84.722 70.0547 84.0384 70.0547 83.1465C70.0547 82.3001 69.7878 81.623 69.2539 81.1152C68.7201 80.6074 67.9876 80.3438 67.0566 80.3242H63.5801V85.9004ZM76.207 91.4668H82.9453V93H74.3223V78.7812H76.207V91.4668ZM93.1309 89.2891H87.1738L85.8359 93H83.9023L89.332 78.7812H90.9727L96.4121 93H94.4883L93.1309 89.2891ZM87.7402 87.7461H92.5742L90.1523 81.0957L87.7402 87.7461ZM106.881 80.3242H102.311V93H100.445V80.3242H95.8848V78.7812H106.881V80.3242ZM117.027 86.4277H110.865V91.4668H118.023V93H108.99V78.7812H117.926V80.3242H110.865V84.8945H117.027V86.4277Z" fill="black"/>
<path d="M46.707 272V257.781H50.7207C51.9577 257.781 53.0514 258.055 54.002 258.602C54.9525 259.148 55.6849 259.926 56.1992 260.936C56.7201 261.945 56.9837 263.104 56.9902 264.412V265.32C56.9902 266.661 56.7298 267.837 56.209 268.846C55.6947 269.855 54.9557 270.63 53.9922 271.17C53.0352 271.71 51.9186 271.987 50.6426 272H46.707ZM48.582 259.324V270.467H50.5547C52 270.467 53.123 270.018 53.9238 269.119C54.7311 268.221 55.1348 266.941 55.1348 265.281V264.451C55.1348 262.837 54.7539 261.583 53.9922 260.691C53.237 259.793 52.1628 259.337 50.7695 259.324H48.582ZM67.4688 268.289H61.5117L60.1738 272H58.2402L63.6699 257.781H65.3105L70.75 272H68.8262L67.4688 268.289ZM62.0781 266.746H66.9121L64.4902 260.096L62.0781 266.746ZM81.2188 259.324H76.6484V272H74.7832V259.324H70.2227V257.781H81.2188V259.324ZM90.3984 268.289H84.4414L83.1035 272H81.1699L86.5996 257.781H88.2402L93.6797 272H91.7559L90.3984 268.289ZM85.0078 266.746H89.8418L87.4199 260.096L85.0078 266.746Z" fill="black"/>
<path d="M36.2266 436.781V451H34.3418V436.781H36.2266ZM40.25 436.781H42.0762L46.7344 448.373L51.3828 436.781H53.2188L47.4375 451H46.0117L40.25 436.781ZM39.6543 436.781H41.2656L41.5293 445.453V451H39.6543V436.781ZM52.1934 436.781H53.8047V451H51.9297V445.453L52.1934 436.781ZM62.5547 438.041L57.8477 451H55.9238L61.3438 436.781H62.584L62.5547 438.041ZM66.5 451L61.7832 438.041L61.7539 436.781H62.9941L68.4336 451H66.5ZM66.2559 445.736V447.279H58.2676V445.736H66.2559ZM80.7285 443.92V449.125C80.5527 449.385 80.2728 449.678 79.8887 450.004C79.5046 450.323 78.974 450.603 78.2969 450.844C77.6263 451.078 76.7604 451.195 75.6992 451.195C74.8333 451.195 74.0358 451.046 73.3066 450.746C72.584 450.44 71.9557 449.997 71.4219 449.418C70.8945 448.832 70.4844 448.122 70.1914 447.289C69.9049 446.449 69.7617 445.499 69.7617 444.438V443.334C69.7617 442.273 69.8854 441.326 70.1328 440.492C70.3867 439.659 70.7578 438.952 71.2461 438.373C71.7344 437.787 72.3333 437.344 73.043 437.045C73.7526 436.739 74.5664 436.586 75.4844 436.586C76.5716 436.586 77.4798 436.775 78.209 437.152C78.9447 437.523 79.5176 438.038 79.9277 438.695C80.3444 439.353 80.6113 440.102 80.7285 440.941H78.8438C78.7591 440.427 78.5898 439.958 78.3359 439.535C78.0885 439.112 77.7337 438.773 77.2715 438.52C76.8092 438.259 76.2135 438.129 75.4844 438.129C74.8268 438.129 74.2572 438.249 73.7754 438.49C73.2936 438.731 72.8965 439.076 72.584 439.525C72.2715 439.975 72.0371 440.518 71.8809 441.156C71.7311 441.794 71.6562 442.514 71.6562 443.314V444.438C71.6562 445.258 71.7507 445.99 71.9395 446.635C72.1348 447.279 72.4115 447.829 72.7695 448.285C73.1276 448.734 73.554 449.076 74.0488 449.311C74.5501 449.545 75.1035 449.662 75.709 449.662C76.3796 449.662 76.9232 449.607 77.3398 449.496C77.7565 449.379 78.082 449.242 78.3164 449.086C78.5508 448.923 78.7298 448.77 78.8535 448.627V445.443H75.5625V443.92H80.7285ZM92.8867 449.467V451H85.3574V449.467H92.8867ZM85.7383 436.781V451H83.8535V436.781H85.7383ZM91.8906 442.895V444.428H85.3574V442.895H91.8906ZM92.7891 436.781V438.324H85.3574V436.781H92.7891ZM102.799 447.406C102.799 447.074 102.747 446.781 102.643 446.527C102.545 446.267 102.369 446.033 102.115 445.824C101.868 445.616 101.523 445.417 101.08 445.229C100.644 445.04 100.09 444.848 99.4199 444.652C98.7168 444.444 98.082 444.213 97.5156 443.959C96.9492 443.699 96.4642 443.402 96.0605 443.07C95.6569 442.738 95.3477 442.357 95.1328 441.928C94.918 441.498 94.8105 441.007 94.8105 440.453C94.8105 439.9 94.9245 439.389 95.1523 438.92C95.3802 438.451 95.7057 438.044 96.1289 437.699C96.5586 437.348 97.0697 437.074 97.6621 436.879C98.2546 436.684 98.9154 436.586 99.6445 436.586C100.712 436.586 101.617 436.791 102.359 437.201C103.108 437.605 103.678 438.135 104.068 438.793C104.459 439.444 104.654 440.141 104.654 440.883H102.779C102.779 440.349 102.665 439.877 102.438 439.467C102.21 439.05 101.865 438.725 101.402 438.49C100.94 438.249 100.354 438.129 99.6445 438.129C98.974 438.129 98.4206 438.23 97.9844 438.432C97.5482 438.633 97.2227 438.907 97.0078 439.252C96.7995 439.597 96.6953 439.991 96.6953 440.434C96.6953 440.733 96.7572 441.007 96.8809 441.254C97.0111 441.495 97.2096 441.719 97.4766 441.928C97.75 442.136 98.0951 442.328 98.5117 442.504C98.9349 442.68 99.4395 442.849 100.025 443.012C100.833 443.24 101.529 443.493 102.115 443.773C102.701 444.053 103.183 444.369 103.561 444.721C103.945 445.066 104.228 445.46 104.41 445.902C104.599 446.339 104.693 446.833 104.693 447.387C104.693 447.966 104.576 448.49 104.342 448.959C104.107 449.428 103.772 449.828 103.336 450.16C102.9 450.492 102.376 450.749 101.764 450.932C101.158 451.107 100.481 451.195 99.7324 451.195C99.0749 451.195 98.4271 451.104 97.7891 450.922C97.1576 450.74 96.5814 450.466 96.0605 450.102C95.5462 449.737 95.1328 449.288 94.8203 448.754C94.5143 448.214 94.3613 447.589 94.3613 446.879H96.2363C96.2363 447.367 96.3307 447.787 96.5195 448.139C96.7083 448.484 96.9655 448.77 97.291 448.998C97.623 449.226 97.9974 449.395 98.4141 449.506C98.8372 449.61 99.2767 449.662 99.7324 449.662C100.39 449.662 100.947 449.571 101.402 449.389C101.858 449.206 102.203 448.946 102.438 448.607C102.678 448.269 102.799 447.868 102.799 447.406Z" fill="black"/>
<line x1="138.5" y1="26" x2="138.5" y2="497" stroke="#CCCCCC"/>
<rect x="162.5" y="18.5" width="113" height="133" fill="white" stroke="black"/>
<g clip-path="url(#clip0_6_2)">
<path d="M181.5 37C181.5 36.0275 181.895 35.0949 182.598 34.4073C183.302 33.7196 184.255 33.3333 185.25 33.3333C186.245 33.3333 187.198 33.7196 187.902 34.4073C188.605 35.0949 189 36.0275 189 37C189 37.9725 188.605 38.9051 187.902 39.5927C187.198 40.2804 186.245 40.6667 185.25 40.6667C184.255 40.6667 183.302 40.2804 182.598 39.5927C181.895 38.9051 181.5 37.9725 181.5 37Z" fill="#1ABCFE"/>
<path d="M174 44.3333C174 43.3609 174.395 42.4282 175.098 41.7406C175.802 41.053 176.755 40.6667 177.75 40.6667H181.5V44.3333C181.5 45.3058 181.105 46.2384 180.402 46.9261C179.698 47.6137 178.745 48 177.75 48C176.755 48 175.802 47.6137 175.098 46.9261C174.395 46.2384 174 45.3058 174 44.3333V44.3333Z" fill="#0ACF83"/>
<path d="M181.5 26V33.3333H185.25C186.245 33.3333 187.198 32.947 187.902 32.2594C188.605 31.5718 189 30.6391 189 29.6667C189 28.6942 188.605 27.7616 187.902 27.0739C187.198 26.3863 186.245 26 185.25 26H181.5Z" fill="#FF7262"/>
<path d="M174 29.6667C174 30.6391 174.395 31.5718 175.098 32.2594C175.802 32.947 176.755 33.3333 177.75 33.3333H181.5V26H177.75C176.755 26 175.802 26.3863 175.098 27.0739C174.395 27.7616 174 28.6942 174 29.6667V29.6667Z" fill="#F24E1E"/>
<path d="M174 37C174 37.9725 174.395 38.9051 175.098 39.5927C175.802 40.2804 176.755 40.6667 177.75 40.6667H181.5V33.3333H177.75C176.755 33.3333 175.802 33.7196 175.098 34.4073C174.395 35.0949 174 36.0275 174 37V37Z" fill="#A259FF"/>
</g>
<path d="M204.656 27.8594H201V38H199.508V27.8594H195.859V26.625H204.656V27.8594ZM207.688 38H206.242V29.5469H207.688V38ZM206.125 27.3047C206.125 27.0703 206.195 26.8724 206.336 26.7109C206.482 26.5495 206.695 26.4688 206.977 26.4688C207.258 26.4688 207.471 26.5495 207.617 26.7109C207.763 26.8724 207.836 27.0703 207.836 27.3047C207.836 27.5391 207.763 27.7344 207.617 27.8906C207.471 28.0469 207.258 28.125 206.977 28.125C206.695 28.125 206.482 28.0469 206.336 27.8906C206.195 27.7344 206.125 27.5391 206.125 27.3047ZM211.969 27.5V29.5469H213.547V30.6641H211.969V35.9062C211.969 36.2448 212.039 36.5 212.18 36.6719C212.32 36.8385 212.56 36.9219 212.898 36.9219C213.065 36.9219 213.294 36.8906 213.586 36.8281V38C213.206 38.1042 212.836 38.1562 212.477 38.1562C211.831 38.1562 211.344 37.9609 211.016 37.5703C210.688 37.1797 210.523 36.625 210.523 35.9062V30.6641H208.984V29.5469H210.523V27.5H211.969ZM216.812 38H215.367V26H216.812V38ZM222.641 38.1562C221.495 38.1562 220.562 37.7812 219.844 37.0312C219.125 36.276 218.766 35.2682 218.766 34.0078V33.7422C218.766 32.9036 218.924 32.1562 219.242 31.5C219.565 30.8385 220.013 30.3229 220.586 29.9531C221.164 29.5781 221.789 29.3906 222.461 29.3906C223.56 29.3906 224.414 29.7526 225.023 30.4766C225.633 31.2005 225.938 32.237 225.938 33.5859V34.1875H220.211C220.232 35.0208 220.474 35.6953 220.938 36.2109C221.406 36.7214 222 36.9766 222.719 36.9766C223.229 36.9766 223.661 36.8724 224.016 36.6641C224.37 36.4557 224.68 36.1797 224.945 35.8359L225.828 36.5234C225.12 37.612 224.057 38.1562 222.641 38.1562ZM222.461 30.5781C221.878 30.5781 221.388 30.7917 220.992 31.2188C220.596 31.6406 220.352 32.2344 220.258 33H224.492V32.8906C224.451 32.1562 224.253 31.5885 223.898 31.1875C223.544 30.7812 223.065 30.5781 222.461 30.5781Z" fill="black"/>
<path d="M180.354 67.0283H177.84V74H176.814V67.0283H174.306V66.1797H180.354V67.0283ZM183.232 74.1074C182.445 74.1074 181.804 73.8496 181.31 73.334C180.815 72.8148 180.568 72.1219 180.568 71.2554V71.0728C180.568 70.4963 180.678 69.9824 180.896 69.5312C181.118 69.0765 181.426 68.722 181.82 68.4678C182.217 68.21 182.647 68.0811 183.109 68.0811C183.864 68.0811 184.452 68.3299 184.871 68.8276C185.29 69.3254 185.499 70.0379 185.499 70.9653V71.3789H181.562C181.576 71.9518 181.743 72.4155 182.062 72.77C182.384 73.1209 182.792 73.2964 183.286 73.2964C183.637 73.2964 183.934 73.2248 184.178 73.0815C184.421 72.9383 184.634 72.7485 184.817 72.5122L185.424 72.9849C184.937 73.7332 184.206 74.1074 183.232 74.1074ZM183.109 68.8975C182.708 68.8975 182.371 69.0443 182.099 69.3379C181.827 69.6279 181.659 70.0361 181.594 70.5625H184.505V70.4873C184.477 69.9824 184.341 69.5921 184.097 69.3164C183.854 69.0371 183.524 68.8975 183.109 68.8975ZM188.604 70.3101L189.893 68.1885H191.053L189.151 71.062L191.112 74H189.962L188.62 71.8247L187.277 74H186.122L188.083 71.062L186.181 68.1885H187.331L188.604 70.3101ZM193.459 66.7812V68.1885H194.544V68.9565H193.459V72.5605C193.459 72.7933 193.507 72.9688 193.604 73.0869C193.701 73.2015 193.865 73.2588 194.098 73.2588C194.213 73.2588 194.37 73.2373 194.571 73.1943V74C194.309 74.0716 194.055 74.1074 193.808 74.1074C193.364 74.1074 193.029 73.9731 192.804 73.7046C192.578 73.436 192.465 73.0547 192.465 72.5605V68.9565H191.407V68.1885H192.465V66.7812H193.459Z" fill="black"/>
<rect x="174" y="97" width="88" height="44" fill="#EEEEEE"/>
<path d="M207.115 121H206.271V114.602H207.115V121ZM209.299 116.245L209.321 116.772C209.669 116.362 210.14 116.157 210.731 116.157C211.396 116.157 211.849 116.412 212.089 116.922C212.248 116.693 212.453 116.509 212.705 116.368C212.959 116.228 213.26 116.157 213.605 116.157C214.648 116.157 215.179 116.709 215.196 117.814V121H214.383V117.862C214.383 117.522 214.306 117.269 214.15 117.102C213.995 116.932 213.734 116.847 213.368 116.847C213.066 116.847 212.816 116.938 212.617 117.12C212.417 117.298 212.302 117.54 212.27 117.845V121H211.452V117.884C211.452 117.193 211.114 116.847 210.437 116.847C209.904 116.847 209.539 117.074 209.343 117.528V121H208.53V116.245H209.299ZM219.362 121C219.315 120.906 219.277 120.739 219.248 120.499C218.87 120.892 218.419 121.088 217.895 121.088C217.426 121.088 217.041 120.956 216.739 120.692C216.44 120.426 216.291 120.089 216.291 119.682C216.291 119.187 216.478 118.803 216.853 118.53C217.231 118.255 217.761 118.117 218.444 118.117H219.235V117.744C219.235 117.459 219.15 117.234 218.98 117.067C218.81 116.897 218.56 116.812 218.229 116.812C217.938 116.812 217.695 116.885 217.499 117.032C217.303 117.178 217.205 117.355 217.205 117.563H216.387C216.387 117.326 216.471 117.098 216.638 116.878C216.808 116.655 217.036 116.479 217.323 116.351C217.613 116.222 217.931 116.157 218.277 116.157C218.825 116.157 219.254 116.295 219.564 116.57C219.875 116.843 220.036 117.219 220.048 117.7V119.888C220.048 120.325 220.104 120.672 220.215 120.93V121H219.362ZM218.013 120.38C218.268 120.38 218.51 120.314 218.738 120.183C218.967 120.051 219.132 119.879 219.235 119.668V118.693H218.598C217.602 118.693 217.104 118.984 217.104 119.567C217.104 119.822 217.188 120.021 217.358 120.165C217.528 120.309 217.747 120.38 218.013 120.38ZM221.129 118.583C221.129 117.842 221.3 117.253 221.643 116.816C221.986 116.377 222.44 116.157 223.005 116.157C223.585 116.157 224.038 116.362 224.363 116.772L224.403 116.245H225.146V120.886C225.146 121.501 224.962 121.986 224.596 122.34C224.233 122.695 223.744 122.872 223.128 122.872C222.786 122.872 222.45 122.799 222.122 122.652C221.794 122.506 221.543 122.305 221.371 122.05L221.792 121.562C222.141 121.993 222.567 122.208 223.071 122.208C223.467 122.208 223.774 122.097 223.994 121.875C224.217 121.652 224.328 121.338 224.328 120.934V120.525C224.003 120.9 223.559 121.088 222.997 121.088C222.44 121.088 221.989 120.864 221.643 120.416C221.3 119.967 221.129 119.356 221.129 118.583ZM221.946 118.675C221.946 119.211 222.056 119.633 222.276 119.941C222.496 120.246 222.803 120.398 223.199 120.398C223.711 120.398 224.088 120.165 224.328 119.699V117.528C224.079 117.074 223.706 116.847 223.208 116.847C222.812 116.847 222.503 117.001 222.28 117.309C222.058 117.616 221.946 118.072 221.946 118.675ZM228.349 121.088C227.705 121.088 227.18 120.877 226.776 120.455C226.372 120.03 226.169 119.463 226.169 118.754V118.605C226.169 118.133 226.259 117.713 226.438 117.344C226.619 116.972 226.871 116.682 227.193 116.474C227.519 116.263 227.87 116.157 228.248 116.157C228.866 116.157 229.347 116.361 229.689 116.768C230.032 117.175 230.204 117.758 230.204 118.517V118.855H226.982C226.994 119.324 227.13 119.704 227.391 119.994C227.655 120.281 227.989 120.424 228.393 120.424C228.68 120.424 228.923 120.366 229.123 120.249C229.322 120.131 229.496 119.976 229.646 119.783L230.142 120.169C229.744 120.782 229.146 121.088 228.349 121.088ZM228.248 116.825C227.92 116.825 227.645 116.945 227.422 117.186C227.199 117.423 227.062 117.757 227.009 118.188H229.391V118.126C229.367 117.713 229.256 117.394 229.057 117.168C228.857 116.939 228.588 116.825 228.248 116.825Z" fill="black"/>
<rect x="258" y="81" width="4" height="9" fill="#555555"/>
<rect x="253" y="65" width="4" height="25" fill="#555555"/>
<rect x="248" y="86" width="4" height="4" fill="#555555"/>
<rect x="243" y="77" width="4" height="13" fill="#555555"/>
<rect x="157.5" y="372.5" width="65" height="65" fill="#FFECEC" stroke="black"/>
<rect x="207.5" y="390.5" width="65" height="65" fill="#FFF9DD" stroke="black"/>
<rect x="170.5" y="421.5" width="65" height="65" fill="#ECFFF8" stroke="black"/>
<rect x="215.5" y="440.5" width="65" height="65" fill="#E8EAFF" stroke="black"/>
<circle cx="212.289" cy="380.395" r="2.60526" fill="#EEEEEE"/>
<path d="M213.117 401.547V406H211.617V394.625H215.812C217.057 394.625 218.031 394.943 218.734 395.578C219.443 396.214 219.797 397.055 219.797 398.102C219.797 399.206 219.451 400.057 218.758 400.656C218.07 401.25 217.083 401.547 215.797 401.547H213.117ZM213.117 400.32H215.812C216.615 400.32 217.229 400.133 217.656 399.758C218.083 399.378 218.297 398.831 218.297 398.117C218.297 397.44 218.083 396.898 217.656 396.492C217.229 396.086 216.643 395.875 215.898 395.859H213.117V400.32ZM230.453 406H228.945L223.219 397.234V406H221.711V394.625H223.219L228.961 403.43V394.625H230.453V406ZM241.516 404.508C241.13 405.06 240.591 405.474 239.898 405.75C239.211 406.021 238.409 406.156 237.492 406.156C236.565 406.156 235.742 405.94 235.023 405.508C234.305 405.07 233.747 404.451 233.352 403.648C232.961 402.846 232.76 401.917 232.75 400.859V399.867C232.75 398.154 233.148 396.826 233.945 395.883C234.747 394.94 235.872 394.469 237.32 394.469C238.508 394.469 239.464 394.773 240.188 395.383C240.911 395.987 241.354 396.846 241.516 397.961H240.016C239.734 396.456 238.839 395.703 237.328 395.703C236.323 395.703 235.56 396.057 235.039 396.766C234.523 397.469 234.263 398.49 234.258 399.828V400.758C234.258 402.034 234.549 403.049 235.133 403.805C235.716 404.555 236.505 404.93 237.5 404.93C238.062 404.93 238.555 404.867 238.977 404.742C239.398 404.617 239.747 404.406 240.023 404.109V401.555H237.391V400.336H241.516V404.508Z" fill="black"/>
<path d="M163.117 384.547V389H161.617V377.625H165.812C167.057 377.625 168.031 377.943 168.734 378.578C169.443 379.214 169.797 380.055 169.797 381.102C169.797 382.206 169.451 383.057 168.758 383.656C168.07 384.25 167.083 384.547 165.797 384.547H163.117ZM163.117 383.32H165.812C166.615 383.32 167.229 383.133 167.656 382.758C168.083 382.378 168.297 381.831 168.297 381.117C168.297 380.44 168.083 379.898 167.656 379.492C167.229 379.086 166.643 378.875 165.898 378.859H163.117V383.32ZM180.453 389H178.945L173.219 380.234V389H171.711V377.625H173.219L178.961 386.43V377.625H180.453V389ZM191.516 387.508C191.13 388.06 190.591 388.474 189.898 388.75C189.211 389.021 188.409 389.156 187.492 389.156C186.565 389.156 185.742 388.94 185.023 388.508C184.305 388.07 183.747 387.451 183.352 386.648C182.961 385.846 182.76 384.917 182.75 383.859V382.867C182.75 381.154 183.148 379.826 183.945 378.883C184.747 377.94 185.872 377.469 187.32 377.469C188.508 377.469 189.464 377.773 190.188 378.383C190.911 378.987 191.354 379.846 191.516 380.961H190.016C189.734 379.456 188.839 378.703 187.328 378.703C186.323 378.703 185.56 379.057 185.039 379.766C184.523 380.469 184.263 381.49 184.258 382.828V383.758C184.258 385.034 184.549 386.049 185.133 386.805C185.716 387.555 186.505 387.93 187.5 387.93C188.062 387.93 188.555 387.867 188.977 387.742C189.398 387.617 189.747 387.406 190.023 387.109V384.555H187.391V383.336H191.516V387.508Z" fill="black"/>
<path d="M177.117 435.547V440H175.617V428.625H179.812C181.057 428.625 182.031 428.943 182.734 429.578C183.443 430.214 183.797 431.055 183.797 432.102C183.797 433.206 183.451 434.057 182.758 434.656C182.07 435.25 181.083 435.547 179.797 435.547H177.117ZM177.117 434.32H179.812C180.615 434.32 181.229 434.133 181.656 433.758C182.083 433.378 182.297 432.831 182.297 432.117C182.297 431.44 182.083 430.898 181.656 430.492C181.229 430.086 180.643 429.875 179.898 429.859H177.117V434.32ZM194.453 440H192.945L187.219 431.234V440H185.711V428.625H187.219L192.961 437.43V428.625H194.453V440ZM205.516 438.508C205.13 439.06 204.591 439.474 203.898 439.75C203.211 440.021 202.409 440.156 201.492 440.156C200.565 440.156 199.742 439.94 199.023 439.508C198.305 439.07 197.747 438.451 197.352 437.648C196.961 436.846 196.76 435.917 196.75 434.859V433.867C196.75 432.154 197.148 430.826 197.945 429.883C198.747 428.94 199.872 428.469 201.32 428.469C202.508 428.469 203.464 428.773 204.188 429.383C204.911 429.987 205.354 430.846 205.516 431.961H204.016C203.734 430.456 202.839 429.703 201.328 429.703C200.323 429.703 199.56 430.057 199.039 430.766C198.523 431.469 198.263 432.49 198.258 433.828V434.758C198.258 436.034 198.549 437.049 199.133 437.805C199.716 438.555 200.505 438.93 201.5 438.93C202.062 438.93 202.555 438.867 202.977 438.742C203.398 438.617 203.747 438.406 204.023 438.109V435.555H201.391V434.336H205.516V438.508Z" fill="black"/>
<path d="M222.117 453.547V458H220.617V446.625H224.812C226.057 446.625 227.031 446.943 227.734 447.578C228.443 448.214 228.797 449.055 228.797 450.102C228.797 451.206 228.451 452.057 227.758 452.656C227.07 453.25 226.083 453.547 224.797 453.547H222.117ZM222.117 452.32H224.812C225.615 452.32 226.229 452.133 226.656 451.758C227.083 451.378 227.297 450.831 227.297 450.117C227.297 449.44 227.083 448.898 226.656 448.492C226.229 448.086 225.643 447.875 224.898 447.859H222.117V452.32ZM239.453 458H237.945L232.219 449.234V458H230.711V446.625H232.219L237.961 455.43V446.625H239.453V458ZM250.516 456.508C250.13 457.06 249.591 457.474 248.898 457.75C248.211 458.021 247.409 458.156 246.492 458.156C245.565 458.156 244.742 457.94 244.023 457.508C243.305 457.07 242.747 456.451 242.352 455.648C241.961 454.846 241.76 453.917 241.75 452.859V451.867C241.75 450.154 242.148 448.826 242.945 447.883C243.747 446.94 244.872 446.469 246.32 446.469C247.508 446.469 248.464 446.773 249.188 447.383C249.911 447.987 250.354 448.846 250.516 449.961H249.016C248.734 448.456 247.839 447.703 246.328 447.703C245.323 447.703 244.56 448.057 244.039 448.766C243.523 449.469 243.263 450.49 243.258 451.828V452.758C243.258 454.034 243.549 455.049 244.133 455.805C244.716 456.555 245.505 456.93 246.5 456.93C247.062 456.93 247.555 456.867 247.977 456.742C248.398 456.617 248.747 456.406 249.023 456.109V453.555H246.391V452.336H250.516V456.508Z" fill="black"/>
<defs>
<clipPath id="clip0_6_2">
<rect width="15" height="22" fill="white" transform="translate(174 26)"/>
</clipPath>
</defs>
</svg>
