<svg width="299" height="525" viewBox="0 0 299 525" fill="none" xmlns="http://www.w3.org/2000/svg">
<rect width="299" height="525" fill="white"/>
<path d="M262.171 263.103L262.171 263.103C265.607 266.896 267.5 271.828 267.5 276.994C267.5 288.308 258.458 297.5 247.364 297.5H191.798H191.221C178.702 297.5 168.5 287.129 168.5 274.363C168.5 263.085 176.468 253.673 186.961 251.638L187.276 251.577L187.352 251.266C188.541 246.399 191.094 241.966 194.763 238.49L194.763 238.49C199.521 233.98 205.72 231.5 212.22 231.5C219.492 231.5 226.363 234.641 231.191 240.05L231.367 240.247L231.629 240.213C232.446 240.106 233.27 240.052 234.099 240.052C243.869 240.052 251.982 247.477 253.258 257.089L253.299 257.4L253.596 257.498C256.851 258.575 259.805 260.489 262.171 263.103Z" fill="#FFF9DD" stroke="black"/>
<path d="M203.727 282.361C201.998 281.873 200.694 281.067 199.815 279.944C198.946 278.831 198.512 277.356 198.512 275.521V272.605C198.512 270.232 197.477 269.046 195.406 269.046V266.922C197.477 266.922 198.512 265.74 198.512 263.377V260.33C198.531 258.543 198.966 257.103 199.815 256.009C200.675 254.905 201.979 254.104 203.727 253.606L204.283 255.291C202.242 255.945 201.222 257.649 201.222 260.403V263.362C201.222 265.579 200.406 267.122 198.775 267.991C200.406 268.87 201.222 270.428 201.222 272.664V275.682C201.251 278.367 202.271 280.032 204.283 280.677L203.727 282.361ZM206.744 275.579C206.744 275.11 206.881 274.72 207.154 274.407C207.438 274.095 207.857 273.938 208.414 273.938C208.971 273.938 209.391 274.095 209.674 274.407C209.967 274.72 210.113 275.11 210.113 275.579C210.113 276.028 209.967 276.404 209.674 276.707C209.391 277.01 208.971 277.161 208.414 277.161C207.857 277.161 207.438 277.01 207.154 276.707C206.881 276.404 206.744 276.028 206.744 275.579ZM214.654 275.579C214.654 275.11 214.791 274.72 215.064 274.407C215.348 274.095 215.768 273.938 216.324 273.938C216.881 273.938 217.301 274.095 217.584 274.407C217.877 274.72 218.023 275.11 218.023 275.579C218.023 276.028 217.877 276.404 217.584 276.707C217.301 277.01 216.881 277.161 216.324 277.161C215.768 277.161 215.348 277.01 215.064 276.707C214.791 276.404 214.654 276.028 214.654 275.579ZM222.564 275.579C222.564 275.11 222.701 274.72 222.975 274.407C223.258 274.095 223.678 273.938 224.234 273.938C224.791 273.938 225.211 274.095 225.494 274.407C225.787 274.72 225.934 275.11 225.934 275.579C225.934 276.028 225.787 276.404 225.494 276.707C225.211 277.01 224.791 277.161 224.234 277.161C223.678 277.161 223.258 277.01 222.975 276.707C222.701 276.404 222.564 276.028 222.564 275.579ZM228.644 280.677C230.626 280.042 231.651 278.426 231.72 275.828V272.605C231.72 270.35 232.604 268.812 234.371 267.991C232.604 267.19 231.72 265.652 231.72 263.377V260.403C231.72 257.649 230.699 255.945 228.658 255.291L229.215 253.606C230.943 254.095 232.242 254.891 233.111 255.994C233.98 257.088 234.42 258.538 234.43 260.345V263.421C234.43 265.755 235.465 266.922 237.535 266.922V269.046C235.465 269.046 234.43 270.232 234.43 272.605V275.564C234.43 277.4 233.985 278.87 233.097 279.974C232.218 281.077 230.924 281.873 229.215 282.361L228.644 280.677Z" fill="black"/>
<path d="M71.6729 167.933H81.585V172.205H71.6729V183.436H67.1318V172.205H57.2197V167.933H67.1318V157.557H71.6729V167.933Z" fill="black"/>
<path d="M79.3516 352.127H58.9902V348.196H79.3516V352.127ZM79.3516 362.259H58.9902V358.353H79.3516V362.259Z" fill="black"/>
<path d="M30.7676 80.3242H26.1973V93H24.332V80.3242H19.7715V78.7812H30.7676V80.3242ZM40.9141 86.4277H34.752V91.4668H41.9102V93H32.877V78.7812H41.8125V80.3242H34.752V84.8945H40.9141V86.4277ZM46.666 78.7812L51.3145 90.3828L55.9629 78.7812H58.3945V93H56.5195V87.4629L56.6953 81.4863L52.0273 93H50.5918L45.9336 81.5156L46.1191 87.4629V93H44.2441V78.7812H46.666ZM63.5801 87.4336V93H61.7051V78.7812H66.9492C68.5052 78.7812 69.7227 79.1784 70.6016 79.9727C71.487 80.7669 71.9297 81.8184 71.9297 83.127C71.9297 84.5072 71.4967 85.5716 70.6309 86.3203C69.7715 87.0625 68.5378 87.4336 66.9297 87.4336H63.5801ZM63.5801 85.9004H66.9492C67.9518 85.9004 68.7201 85.666 69.2539 85.1973C69.7878 84.722 70.0547 84.0384 70.0547 83.1465C70.0547 82.3001 69.7878 81.623 69.2539 81.1152C68.7201 80.6074 67.9876 80.3438 67.0566 80.3242H63.5801V85.9004ZM76.207 91.4668H82.9453V93H74.3223V78.7812H76.207V91.4668ZM93.1309 89.2891H87.1738L85.8359 93H83.9023L89.332 78.7812H90.9727L96.4121 93H94.4883L93.1309 89.2891ZM87.7402 87.7461H92.5742L90.1523 81.0957L87.7402 87.7461ZM106.881 80.3242H102.311V93H100.445V80.3242H95.8848V78.7812H106.881V80.3242ZM117.027 86.4277H110.865V91.4668H118.023V93H108.99V78.7812H117.926V80.3242H110.865V84.8945H117.027V86.4277Z" fill="black"/>
<path d="M46.707 272V257.781H50.7207C51.9577 257.781 53.0514 258.055 54.002 258.602C54.9525 259.148 55.6849 259.926 56.1992 260.936C56.7201 261.945 56.9837 263.104 56.9902 264.412V265.32C56.9902 266.661 56.7298 267.837 56.209 268.846C55.6947 269.855 54.9557 270.63 53.9922 271.17C53.0352 271.71 51.9186 271.987 50.6426 272H46.707ZM48.582 259.324V270.467H50.5547C52 270.467 53.123 270.018 53.9238 269.119C54.7311 268.221 55.1348 266.941 55.1348 265.281V264.451C55.1348 262.837 54.7539 261.583 53.9922 260.691C53.237 259.793 52.1628 259.337 50.7695 259.324H48.582ZM67.4688 268.289H61.5117L60.1738 272H58.2402L63.6699 257.781H65.3105L70.75 272H68.8262L67.4688 268.289ZM62.0781 266.746H66.9121L64.4902 260.096L62.0781 266.746ZM81.2188 259.324H76.6484V272H74.7832V259.324H70.2227V257.781H81.2188V259.324ZM90.3984 268.289H84.4414L83.1035 272H81.1699L86.5996 257.781H88.2402L93.6797 272H91.7559L90.3984 268.289ZM85.0078 266.746H89.8418L87.4199 260.096L85.0078 266.746Z" fill="black"/>
<path d="M10.9922 451V436.781H15.0059C16.2428 436.781 17.3366 437.055 18.2871 437.602C19.2376 438.148 19.9701 438.926 20.4844 439.936C21.0052 440.945 21.2689 442.104 21.2754 443.412V444.32C21.2754 445.661 21.015 446.837 20.4941 447.846C19.9798 448.855 19.2409 449.63 18.2773 450.17C17.3203 450.71 16.2038 450.987 14.9277 451H10.9922ZM12.8672 438.324V449.467H14.8398C16.2852 449.467 17.4082 449.018 18.209 448.119C19.0163 447.221 19.4199 445.941 19.4199 444.281V443.451C19.4199 441.837 19.0391 440.583 18.2773 439.691C17.5221 438.793 16.4479 438.337 15.0547 438.324H12.8672ZM35.0547 444.35C35.0547 445.743 34.8203 446.96 34.3516 448.002C33.8828 449.037 33.2188 449.828 32.3594 450.375C31.5 450.922 30.4974 451.195 29.3516 451.195C28.2318 451.195 27.2389 450.922 26.373 450.375C25.5072 449.822 24.8333 449.037 24.3516 448.021C23.8763 446.999 23.6322 445.818 23.6191 444.477V443.451C23.6191 442.084 23.8568 440.876 24.332 439.828C24.8073 438.78 25.4779 437.979 26.3438 437.426C27.2161 436.866 28.2122 436.586 29.332 436.586C30.4714 436.586 31.474 436.863 32.3398 437.416C33.2122 437.963 33.8828 438.76 34.3516 439.809C34.8203 440.85 35.0547 442.064 35.0547 443.451V444.35ZM33.1895 443.432C33.1895 441.745 32.8509 440.453 32.1738 439.555C31.4967 438.65 30.5495 438.197 29.332 438.197C28.1471 438.197 27.2129 438.65 26.5293 439.555C25.8522 440.453 25.5039 441.703 25.4844 443.305V444.35C25.4844 445.984 25.8262 447.27 26.5098 448.207C27.1999 449.138 28.1471 449.604 29.3516 449.604C30.5625 449.604 31.5 449.164 32.1641 448.285C32.8281 447.4 33.1699 446.133 33.1895 444.486V443.432ZM48.3262 446.488C48.1504 447.992 47.5938 449.154 46.6562 449.975C45.7253 450.788 44.485 451.195 42.9355 451.195C41.2559 451.195 39.9082 450.593 38.8926 449.389C37.8835 448.184 37.3789 446.573 37.3789 444.555V443.188C37.3789 441.866 37.6133 440.704 38.082 439.701C38.5573 438.699 39.2279 437.93 40.0938 437.396C40.9596 436.856 41.9622 436.586 43.1016 436.586C44.612 436.586 45.8229 437.009 46.7344 437.855C47.6458 438.695 48.1764 439.861 48.3262 441.352H46.4414C46.2786 440.219 45.9238 439.398 45.377 438.891C44.8366 438.383 44.0781 438.129 43.1016 438.129C41.9036 438.129 40.9629 438.572 40.2793 439.457C39.6022 440.342 39.2637 441.602 39.2637 443.236V444.613C39.2637 446.156 39.5859 447.383 40.2305 448.295C40.875 449.206 41.7767 449.662 42.9355 449.662C43.9772 449.662 44.7747 449.428 45.3281 448.959C45.888 448.484 46.2591 447.66 46.4414 446.488H48.3262ZM60.9043 436.781V446.449C60.8978 447.79 60.4746 448.887 59.6348 449.74C58.8014 450.593 57.6686 451.072 56.2363 451.176L55.7383 451.195C54.1823 451.195 52.9421 450.775 52.0176 449.936C51.0931 449.096 50.6243 447.94 50.6113 446.469V436.781H52.4668V446.41C52.4668 447.439 52.75 448.24 53.3164 448.812C53.8828 449.379 54.6901 449.662 55.7383 449.662C56.7995 449.662 57.61 449.379 58.1699 448.812C58.7363 448.246 59.0195 447.449 59.0195 446.42V436.781H60.9043ZM66.2852 436.781L70.9336 448.383L75.582 436.781H78.0137V451H76.1387V445.463L76.3145 439.486L71.6465 451H70.2109L65.5527 439.516L65.7383 445.463V451H63.8633V436.781H66.2852ZM89.3613 444.428H83.1992V449.467H90.3574V451H81.3242V436.781H90.2598V438.324H83.1992V442.895H89.3613V444.428ZM103.619 451H101.734L94.5762 440.043V451H92.6914V436.781H94.5762L101.754 447.787V436.781H103.619V451ZM116.48 438.324H111.91V451H110.045V438.324H105.484V436.781H116.48V438.324ZM122.623 444.662C121.015 444.2 119.843 443.633 119.107 442.963C118.378 442.286 118.014 441.452 118.014 440.463C118.014 439.343 118.46 438.419 119.352 437.689C120.25 436.954 121.415 436.586 122.848 436.586C123.824 436.586 124.693 436.775 125.455 437.152C126.223 437.53 126.816 438.051 127.232 438.715C127.656 439.379 127.867 440.105 127.867 440.893H125.982C125.982 440.033 125.709 439.359 125.162 438.871C124.615 438.376 123.844 438.129 122.848 438.129C121.923 438.129 121.201 438.334 120.68 438.744C120.165 439.148 119.908 439.711 119.908 440.434C119.908 441.013 120.152 441.505 120.641 441.908C121.135 442.305 121.972 442.67 123.15 443.002C124.335 443.334 125.26 443.702 125.924 444.105C126.594 444.503 127.089 444.968 127.408 445.502C127.734 446.036 127.896 446.664 127.896 447.387C127.896 448.539 127.447 449.464 126.549 450.16C125.65 450.85 124.449 451.195 122.945 451.195C121.969 451.195 121.057 451.01 120.211 450.639C119.365 450.261 118.71 449.747 118.248 449.096C117.792 448.445 117.564 447.706 117.564 446.879H119.449C119.449 447.738 119.765 448.419 120.396 448.92C121.035 449.415 121.884 449.662 122.945 449.662C123.935 449.662 124.693 449.46 125.221 449.057C125.748 448.653 126.012 448.103 126.012 447.406C126.012 446.71 125.768 446.173 125.279 445.795C124.791 445.411 123.906 445.033 122.623 444.662Z" fill="black"/>
<line x1="138.5" y1="26" x2="138.5" y2="497" stroke="#CCCCCC"/>
<rect x="160.5" y="379.5" width="65" height="65" fill="white" stroke="black"/>
<rect x="210.5" y="397.5" width="65" height="65" fill="#FFF9DD" stroke="black"/>
<rect x="173.5" y="428.5" width="65" height="65" fill="white" stroke="black"/>
<rect x="218.5" y="447.5" width="65" height="65" fill="white" stroke="black"/>
<path d="M169.797 393.539H166.758V392.312H169.797C170.385 392.312 170.862 392.219 171.227 392.031C171.591 391.844 171.857 391.583 172.023 391.25C172.195 390.917 172.281 390.536 172.281 390.109C172.281 389.719 172.195 389.352 172.023 389.008C171.857 388.664 171.591 388.388 171.227 388.18C170.862 387.966 170.385 387.859 169.797 387.859H167.109V398H165.602V386.625H169.797C170.656 386.625 171.383 386.773 171.977 387.07C172.57 387.367 173.021 387.779 173.328 388.305C173.635 388.826 173.789 389.422 173.789 390.094C173.789 390.823 173.635 391.445 173.328 391.961C173.021 392.477 172.57 392.87 171.977 393.141C171.383 393.406 170.656 393.539 169.797 393.539ZM178.773 398H176.398L176.414 396.773H178.773C179.586 396.773 180.263 396.604 180.805 396.266C181.346 395.922 181.753 395.443 182.023 394.828C182.299 394.208 182.438 393.484 182.438 392.656V391.961C182.438 391.31 182.359 390.732 182.203 390.227C182.047 389.716 181.818 389.286 181.516 388.938C181.214 388.583 180.844 388.315 180.406 388.133C179.974 387.951 179.477 387.859 178.914 387.859H176.352V386.625H178.914C179.659 386.625 180.339 386.75 180.953 387C181.568 387.245 182.096 387.602 182.539 388.07C182.987 388.534 183.331 389.096 183.57 389.758C183.81 390.414 183.93 391.154 183.93 391.977V392.656C183.93 393.479 183.81 394.221 183.57 394.883C183.331 395.539 182.984 396.099 182.531 396.562C182.083 397.026 181.542 397.383 180.906 397.633C180.276 397.878 179.565 398 178.773 398ZM177.203 386.625V398H175.695V386.625H177.203ZM187.703 386.625V398H186.195V386.625H187.703ZM192.469 391.742V392.977H187.375V391.742H192.469ZM193.242 386.625V387.859H187.375V386.625H193.242Z" fill="#CCCCCC"/>
<path d="M168.894 407.178C168.894 407.009 168.856 406.852 168.78 406.708C168.708 406.56 168.558 406.427 168.329 406.309C168.105 406.186 167.766 406.08 167.313 405.991C166.933 405.911 166.588 405.816 166.279 405.706C165.974 405.596 165.714 405.462 165.498 405.306C165.286 405.149 165.124 404.965 165.009 404.753C164.895 404.542 164.838 404.294 164.838 404.011C164.838 403.74 164.897 403.484 165.016 403.243C165.138 403.001 165.31 402.788 165.53 402.602C165.754 402.415 166.023 402.269 166.336 402.164C166.649 402.058 166.998 402.005 167.383 402.005C167.933 402.005 168.403 402.102 168.792 402.297C169.182 402.492 169.48 402.752 169.688 403.078C169.895 403.399 169.999 403.757 169.999 404.15H168.824C168.824 403.96 168.767 403.776 168.653 403.598C168.543 403.416 168.38 403.266 168.164 403.147C167.952 403.029 167.692 402.97 167.383 402.97C167.057 402.97 166.793 403.021 166.59 403.122C166.391 403.219 166.245 403.344 166.152 403.497C166.063 403.649 166.019 403.81 166.019 403.979C166.019 404.106 166.04 404.22 166.082 404.322C166.129 404.419 166.209 404.51 166.323 404.595C166.438 404.675 166.598 404.751 166.806 404.823C167.013 404.895 167.278 404.967 167.599 405.039C168.162 405.166 168.625 405.318 168.989 405.496C169.353 405.674 169.624 405.892 169.802 406.15C169.979 406.408 170.068 406.721 170.068 407.089C170.068 407.39 170.005 407.665 169.878 407.915C169.755 408.164 169.575 408.38 169.338 408.562C169.106 408.74 168.826 408.879 168.5 408.981C168.179 409.078 167.817 409.127 167.415 409.127C166.81 409.127 166.298 409.019 165.879 408.803C165.46 408.587 165.143 408.308 164.927 407.965C164.711 407.623 164.603 407.261 164.603 406.88H165.784C165.801 407.201 165.894 407.458 166.063 407.648C166.232 407.834 166.44 407.967 166.685 408.048C166.931 408.124 167.174 408.162 167.415 408.162C167.737 408.162 168.005 408.12 168.221 408.035C168.441 407.951 168.608 407.834 168.723 407.686C168.837 407.538 168.894 407.369 168.894 407.178ZM171.3 405.642V405.496C171.3 405.001 171.372 404.542 171.516 404.119C171.66 403.691 171.867 403.321 172.138 403.008C172.409 402.69 172.736 402.445 173.122 402.271C173.507 402.094 173.938 402.005 174.417 402.005C174.899 402.005 175.333 402.094 175.718 402.271C176.107 402.445 176.437 402.69 176.708 403.008C176.983 403.321 177.193 403.691 177.336 404.119C177.48 404.542 177.552 405.001 177.552 405.496V405.642C177.552 406.137 177.48 406.596 177.336 407.02C177.193 407.443 176.983 407.813 176.708 408.13C176.437 408.444 176.109 408.689 175.724 408.867C175.343 409.04 174.912 409.127 174.429 409.127C173.947 409.127 173.513 409.04 173.128 408.867C172.743 408.689 172.413 408.444 172.138 408.13C171.867 407.813 171.66 407.443 171.516 407.02C171.372 406.596 171.3 406.137 171.3 405.642ZM172.474 405.496V405.642C172.474 405.985 172.514 406.309 172.595 406.613C172.675 406.914 172.796 407.18 172.957 407.413C173.122 407.646 173.327 407.83 173.572 407.965C173.818 408.097 174.103 408.162 174.429 408.162C174.751 408.162 175.032 408.097 175.273 407.965C175.519 407.83 175.722 407.646 175.883 407.413C176.044 407.18 176.164 406.914 176.245 406.613C176.329 406.309 176.372 405.985 176.372 405.642V405.496C176.372 405.158 176.329 404.838 176.245 404.538C176.164 404.233 176.042 403.964 175.876 403.731C175.716 403.494 175.513 403.308 175.267 403.173C175.026 403.037 174.742 402.97 174.417 402.97C174.095 402.97 173.811 403.037 173.566 403.173C173.325 403.308 173.122 403.494 172.957 403.731C172.796 403.964 172.675 404.233 172.595 404.538C172.514 404.838 172.474 405.158 172.474 405.496ZM178.714 405.642V405.496C178.714 405.001 178.786 404.542 178.93 404.119C179.074 403.691 179.281 403.321 179.552 403.008C179.823 402.69 180.151 402.445 180.536 402.271C180.921 402.094 181.352 402.005 181.831 402.005C182.313 402.005 182.747 402.094 183.132 402.271C183.521 402.445 183.851 402.69 184.122 403.008C184.397 403.321 184.607 403.691 184.75 404.119C184.894 404.542 184.966 405.001 184.966 405.496V405.642C184.966 406.137 184.894 406.596 184.75 407.02C184.607 407.443 184.397 407.813 184.122 408.13C183.851 408.444 183.523 408.689 183.138 408.867C182.757 409.04 182.326 409.127 181.843 409.127C181.361 409.127 180.927 409.04 180.542 408.867C180.157 408.689 179.827 408.444 179.552 408.13C179.281 407.813 179.074 407.443 178.93 407.02C178.786 406.596 178.714 406.137 178.714 405.642ZM179.888 405.496V405.642C179.888 405.985 179.928 406.309 180.009 406.613C180.089 406.914 180.21 407.18 180.371 407.413C180.536 407.646 180.741 407.83 180.986 407.965C181.232 408.097 181.517 408.162 181.843 408.162C182.165 408.162 182.446 408.097 182.688 407.965C182.933 407.83 183.136 407.646 183.297 407.413C183.458 407.18 183.578 406.914 183.659 406.613C183.743 406.309 183.786 405.985 183.786 405.642V405.496C183.786 405.158 183.743 404.838 183.659 404.538C183.578 404.233 183.456 403.964 183.291 403.731C183.13 403.494 182.927 403.308 182.681 403.173C182.44 403.037 182.156 402.97 181.831 402.97C181.509 402.97 181.225 403.037 180.98 403.173C180.739 403.308 180.536 403.494 180.371 403.731C180.21 403.964 180.089 404.233 180.009 404.538C179.928 404.838 179.888 405.158 179.888 405.496ZM187.613 403.598V409H186.439V402.132H187.55L187.613 403.598ZM187.334 405.306L186.845 405.287C186.849 404.817 186.919 404.383 187.055 403.985C187.19 403.583 187.381 403.234 187.626 402.938C187.871 402.642 188.163 402.413 188.502 402.252C188.845 402.087 189.223 402.005 189.638 402.005C189.977 402.005 190.281 402.051 190.552 402.145C190.823 402.233 191.054 402.377 191.244 402.576C191.439 402.775 191.587 403.033 191.688 403.351C191.79 403.664 191.841 404.047 191.841 404.5V409H190.66V404.487C190.66 404.127 190.607 403.839 190.501 403.624C190.396 403.403 190.241 403.245 190.038 403.147C189.835 403.046 189.585 402.995 189.289 402.995C188.997 402.995 188.73 403.056 188.489 403.179C188.252 403.302 188.047 403.471 187.874 403.687C187.704 403.903 187.571 404.15 187.474 404.43C187.381 404.705 187.334 404.997 187.334 405.306Z" fill="#CCCCCC"/>
<path d="M184.894 456.178C184.894 456.009 184.856 455.852 184.78 455.708C184.708 455.56 184.558 455.427 184.329 455.309C184.105 455.186 183.766 455.08 183.313 454.991C182.933 454.911 182.588 454.816 182.279 454.706C181.974 454.596 181.714 454.462 181.498 454.306C181.286 454.149 181.124 453.965 181.009 453.753C180.895 453.542 180.838 453.294 180.838 453.011C180.838 452.74 180.897 452.484 181.016 452.243C181.138 452.001 181.31 451.788 181.53 451.602C181.754 451.415 182.023 451.269 182.336 451.164C182.649 451.058 182.998 451.005 183.383 451.005C183.933 451.005 184.403 451.102 184.792 451.297C185.182 451.492 185.48 451.752 185.688 452.078C185.895 452.399 185.999 452.757 185.999 453.15H184.824C184.824 452.96 184.767 452.776 184.653 452.598C184.543 452.416 184.38 452.266 184.164 452.147C183.952 452.029 183.692 451.97 183.383 451.97C183.057 451.97 182.793 452.021 182.59 452.122C182.391 452.219 182.245 452.344 182.152 452.497C182.063 452.649 182.019 452.81 182.019 452.979C182.019 453.106 182.04 453.22 182.082 453.322C182.129 453.419 182.209 453.51 182.323 453.595C182.438 453.675 182.598 453.751 182.806 453.823C183.013 453.895 183.278 453.967 183.599 454.039C184.162 454.166 184.625 454.318 184.989 454.496C185.353 454.674 185.624 454.892 185.802 455.15C185.979 455.408 186.068 455.721 186.068 456.089C186.068 456.39 186.005 456.665 185.878 456.915C185.755 457.164 185.575 457.38 185.338 457.562C185.106 457.74 184.826 457.879 184.5 457.981C184.179 458.078 183.817 458.127 183.415 458.127C182.81 458.127 182.298 458.019 181.879 457.803C181.46 457.587 181.143 457.308 180.927 456.965C180.711 456.623 180.603 456.261 180.603 455.88H181.784C181.801 456.201 181.894 456.458 182.063 456.648C182.232 456.834 182.44 456.967 182.685 457.048C182.931 457.124 183.174 457.162 183.415 457.162C183.737 457.162 184.005 457.12 184.221 457.035C184.441 456.951 184.608 456.834 184.723 456.686C184.837 456.538 184.894 456.369 184.894 456.178ZM187.3 454.642V454.496C187.3 454.001 187.372 453.542 187.516 453.119C187.66 452.691 187.867 452.321 188.138 452.008C188.409 451.69 188.736 451.445 189.122 451.271C189.507 451.094 189.938 451.005 190.417 451.005C190.899 451.005 191.333 451.094 191.718 451.271C192.107 451.445 192.437 451.69 192.708 452.008C192.983 452.321 193.193 452.691 193.336 453.119C193.48 453.542 193.552 454.001 193.552 454.496V454.642C193.552 455.137 193.48 455.596 193.336 456.02C193.193 456.443 192.983 456.813 192.708 457.13C192.437 457.444 192.109 457.689 191.724 457.867C191.343 458.04 190.912 458.127 190.429 458.127C189.947 458.127 189.513 458.04 189.128 457.867C188.743 457.689 188.413 457.444 188.138 457.13C187.867 456.813 187.66 456.443 187.516 456.02C187.372 455.596 187.3 455.137 187.3 454.642ZM188.474 454.496V454.642C188.474 454.985 188.514 455.309 188.595 455.613C188.675 455.914 188.796 456.18 188.957 456.413C189.122 456.646 189.327 456.83 189.572 456.965C189.818 457.097 190.103 457.162 190.429 457.162C190.751 457.162 191.032 457.097 191.273 456.965C191.519 456.83 191.722 456.646 191.883 456.413C192.044 456.18 192.164 455.914 192.245 455.613C192.329 455.309 192.372 454.985 192.372 454.642V454.496C192.372 454.158 192.329 453.838 192.245 453.538C192.164 453.233 192.042 452.964 191.876 452.731C191.716 452.494 191.513 452.308 191.267 452.173C191.026 452.037 190.742 451.97 190.417 451.97C190.095 451.97 189.811 452.037 189.566 452.173C189.325 452.308 189.122 452.494 188.957 452.731C188.796 452.964 188.675 453.233 188.595 453.538C188.514 453.838 188.474 454.158 188.474 454.496ZM194.714 454.642V454.496C194.714 454.001 194.786 453.542 194.93 453.119C195.074 452.691 195.281 452.321 195.552 452.008C195.823 451.69 196.151 451.445 196.536 451.271C196.921 451.094 197.352 451.005 197.831 451.005C198.313 451.005 198.747 451.094 199.132 451.271C199.521 451.445 199.851 451.69 200.122 452.008C200.397 452.321 200.607 452.691 200.75 453.119C200.894 453.542 200.966 454.001 200.966 454.496V454.642C200.966 455.137 200.894 455.596 200.75 456.02C200.607 456.443 200.397 456.813 200.122 457.13C199.851 457.444 199.523 457.689 199.138 457.867C198.757 458.04 198.326 458.127 197.843 458.127C197.361 458.127 196.927 458.04 196.542 457.867C196.157 457.689 195.827 457.444 195.552 457.13C195.281 456.813 195.074 456.443 194.93 456.02C194.786 455.596 194.714 455.137 194.714 454.642ZM195.888 454.496V454.642C195.888 454.985 195.928 455.309 196.009 455.613C196.089 455.914 196.21 456.18 196.371 456.413C196.536 456.646 196.741 456.83 196.986 456.965C197.232 457.097 197.517 457.162 197.843 457.162C198.165 457.162 198.446 457.097 198.688 456.965C198.933 456.83 199.136 456.646 199.297 456.413C199.458 456.18 199.578 455.914 199.659 455.613C199.743 455.309 199.786 454.985 199.786 454.642V454.496C199.786 454.158 199.743 453.838 199.659 453.538C199.578 453.233 199.456 452.964 199.291 452.731C199.13 452.494 198.927 452.308 198.681 452.173C198.44 452.037 198.156 451.97 197.831 451.97C197.509 451.97 197.225 452.037 196.98 452.173C196.739 452.308 196.536 452.494 196.371 452.731C196.21 452.964 196.089 453.233 196.009 453.538C195.928 453.838 195.888 454.158 195.888 454.496ZM203.613 452.598V458H202.439V451.132H203.55L203.613 452.598ZM203.334 454.306L202.845 454.287C202.849 453.817 202.919 453.383 203.055 452.985C203.19 452.583 203.381 452.234 203.626 451.938C203.871 451.642 204.163 451.413 204.502 451.252C204.845 451.087 205.223 451.005 205.638 451.005C205.977 451.005 206.281 451.051 206.552 451.145C206.823 451.233 207.054 451.377 207.244 451.576C207.439 451.775 207.587 452.033 207.688 452.351C207.79 452.664 207.841 453.047 207.841 453.5V458H206.66V453.487C206.66 453.127 206.607 452.839 206.501 452.624C206.396 452.403 206.241 452.245 206.038 452.147C205.835 452.046 205.585 451.995 205.289 451.995C204.997 451.995 204.73 452.056 204.489 452.179C204.252 452.302 204.047 452.471 203.874 452.687C203.704 452.903 203.571 453.15 203.474 453.43C203.381 453.705 203.334 453.997 203.334 454.306Z" fill="#CCCCCC"/>
<path d="M225.894 477.178C225.894 477.009 225.856 476.852 225.78 476.708C225.708 476.56 225.558 476.427 225.329 476.309C225.105 476.186 224.766 476.08 224.313 475.991C223.933 475.911 223.588 475.816 223.279 475.706C222.974 475.596 222.714 475.462 222.498 475.306C222.286 475.149 222.124 474.965 222.009 474.753C221.895 474.542 221.838 474.294 221.838 474.011C221.838 473.74 221.897 473.484 222.016 473.243C222.138 473.001 222.31 472.788 222.53 472.602C222.754 472.415 223.023 472.269 223.336 472.164C223.649 472.058 223.998 472.005 224.383 472.005C224.933 472.005 225.403 472.102 225.792 472.297C226.182 472.492 226.48 472.752 226.688 473.078C226.895 473.399 226.999 473.757 226.999 474.15H225.824C225.824 473.96 225.767 473.776 225.653 473.598C225.543 473.416 225.38 473.266 225.164 473.147C224.952 473.029 224.692 472.97 224.383 472.97C224.057 472.97 223.793 473.021 223.59 473.122C223.391 473.219 223.245 473.344 223.152 473.497C223.063 473.649 223.019 473.81 223.019 473.979C223.019 474.106 223.04 474.22 223.082 474.322C223.129 474.419 223.209 474.51 223.323 474.595C223.438 474.675 223.598 474.751 223.806 474.823C224.013 474.895 224.278 474.967 224.599 475.039C225.162 475.166 225.625 475.318 225.989 475.496C226.353 475.674 226.624 475.892 226.802 476.15C226.979 476.408 227.068 476.721 227.068 477.089C227.068 477.39 227.005 477.665 226.878 477.915C226.755 478.164 226.575 478.38 226.338 478.562C226.106 478.74 225.826 478.879 225.5 478.981C225.179 479.078 224.817 479.127 224.415 479.127C223.81 479.127 223.298 479.019 222.879 478.803C222.46 478.587 222.143 478.308 221.927 477.965C221.711 477.623 221.603 477.261 221.603 476.88H222.784C222.801 477.201 222.894 477.458 223.063 477.648C223.232 477.834 223.44 477.967 223.685 478.048C223.931 478.124 224.174 478.162 224.415 478.162C224.737 478.162 225.005 478.12 225.221 478.035C225.441 477.951 225.608 477.834 225.723 477.686C225.837 477.538 225.894 477.369 225.894 477.178ZM228.3 475.642V475.496C228.3 475.001 228.372 474.542 228.516 474.119C228.66 473.691 228.867 473.321 229.138 473.008C229.409 472.69 229.736 472.445 230.122 472.271C230.507 472.094 230.938 472.005 231.417 472.005C231.899 472.005 232.333 472.094 232.718 472.271C233.107 472.445 233.437 472.69 233.708 473.008C233.983 473.321 234.193 473.691 234.336 474.119C234.48 474.542 234.552 475.001 234.552 475.496V475.642C234.552 476.137 234.48 476.596 234.336 477.02C234.193 477.443 233.983 477.813 233.708 478.13C233.437 478.444 233.109 478.689 232.724 478.867C232.343 479.04 231.912 479.127 231.429 479.127C230.947 479.127 230.513 479.04 230.128 478.867C229.743 478.689 229.413 478.444 229.138 478.13C228.867 477.813 228.66 477.443 228.516 477.02C228.372 476.596 228.3 476.137 228.3 475.642ZM229.474 475.496V475.642C229.474 475.985 229.514 476.309 229.595 476.613C229.675 476.914 229.796 477.18 229.957 477.413C230.122 477.646 230.327 477.83 230.572 477.965C230.818 478.097 231.103 478.162 231.429 478.162C231.751 478.162 232.032 478.097 232.273 477.965C232.519 477.83 232.722 477.646 232.883 477.413C233.044 477.18 233.164 476.914 233.245 476.613C233.329 476.309 233.372 475.985 233.372 475.642V475.496C233.372 475.158 233.329 474.838 233.245 474.538C233.164 474.233 233.042 473.964 232.876 473.731C232.716 473.494 232.513 473.308 232.267 473.173C232.026 473.037 231.742 472.97 231.417 472.97C231.095 472.97 230.811 473.037 230.566 473.173C230.325 473.308 230.122 473.494 229.957 473.731C229.796 473.964 229.675 474.233 229.595 474.538C229.514 474.838 229.474 475.158 229.474 475.496ZM235.714 475.642V475.496C235.714 475.001 235.786 474.542 235.93 474.119C236.074 473.691 236.281 473.321 236.552 473.008C236.823 472.69 237.151 472.445 237.536 472.271C237.921 472.094 238.352 472.005 238.831 472.005C239.313 472.005 239.747 472.094 240.132 472.271C240.521 472.445 240.851 472.69 241.122 473.008C241.397 473.321 241.607 473.691 241.75 474.119C241.894 474.542 241.966 475.001 241.966 475.496V475.642C241.966 476.137 241.894 476.596 241.75 477.02C241.607 477.443 241.397 477.813 241.122 478.13C240.851 478.444 240.523 478.689 240.138 478.867C239.757 479.04 239.326 479.127 238.843 479.127C238.361 479.127 237.927 479.04 237.542 478.867C237.157 478.689 236.827 478.444 236.552 478.13C236.281 477.813 236.074 477.443 235.93 477.02C235.786 476.596 235.714 476.137 235.714 475.642ZM236.888 475.496V475.642C236.888 475.985 236.928 476.309 237.009 476.613C237.089 476.914 237.21 477.18 237.371 477.413C237.536 477.646 237.741 477.83 237.986 477.965C238.232 478.097 238.517 478.162 238.843 478.162C239.165 478.162 239.446 478.097 239.688 477.965C239.933 477.83 240.136 477.646 240.297 477.413C240.458 477.18 240.578 476.914 240.659 476.613C240.743 476.309 240.786 475.985 240.786 475.642V475.496C240.786 475.158 240.743 474.838 240.659 474.538C240.578 474.233 240.456 473.964 240.291 473.731C240.13 473.494 239.927 473.308 239.681 473.173C239.44 473.037 239.156 472.97 238.831 472.97C238.509 472.97 238.225 473.037 237.98 473.173C237.739 473.308 237.536 473.494 237.371 473.731C237.21 473.964 237.089 474.233 237.009 474.538C236.928 474.838 236.888 475.158 236.888 475.496ZM244.613 473.598V479H243.439V472.132H244.55L244.613 473.598ZM244.334 475.306L243.845 475.287C243.849 474.817 243.919 474.383 244.055 473.985C244.19 473.583 244.381 473.234 244.626 472.938C244.871 472.642 245.163 472.413 245.502 472.252C245.845 472.087 246.223 472.005 246.638 472.005C246.977 472.005 247.281 472.051 247.552 472.145C247.823 472.233 248.054 472.377 248.244 472.576C248.439 472.775 248.587 473.033 248.688 473.351C248.79 473.664 248.841 474.047 248.841 474.5V479H247.66V474.487C247.66 474.127 247.607 473.839 247.501 473.624C247.396 473.403 247.241 473.245 247.038 473.147C246.835 473.046 246.585 472.995 246.289 472.995C245.997 472.995 245.73 473.056 245.489 473.179C245.252 473.302 245.047 473.471 244.874 473.687C244.704 473.903 244.571 474.15 244.474 474.43C244.381 474.705 244.334 474.997 244.334 475.306Z" fill="#CCCCCC"/>
<path d="M190.172 441.336V445.5C190.031 445.708 189.807 445.943 189.5 446.203C189.193 446.458 188.768 446.682 188.227 446.875C187.69 447.062 186.997 447.156 186.148 447.156C185.456 447.156 184.818 447.036 184.234 446.797C183.656 446.552 183.154 446.198 182.727 445.734C182.305 445.266 181.977 444.698 181.742 444.031C181.513 443.359 181.398 442.599 181.398 441.75V440.867C181.398 440.018 181.497 439.26 181.695 438.594C181.898 437.927 182.195 437.362 182.586 436.898C182.977 436.43 183.456 436.076 184.023 435.836C184.591 435.591 185.242 435.469 185.977 435.469C186.846 435.469 187.573 435.62 188.156 435.922C188.745 436.219 189.203 436.63 189.531 437.156C189.865 437.682 190.078 438.281 190.172 438.953H188.664C188.596 438.542 188.461 438.167 188.258 437.828C188.06 437.49 187.776 437.219 187.406 437.016C187.036 436.807 186.56 436.703 185.977 436.703C185.451 436.703 184.995 436.799 184.609 436.992C184.224 437.185 183.906 437.461 183.656 437.82C183.406 438.18 183.219 438.615 183.094 439.125C182.974 439.635 182.914 440.211 182.914 440.852V441.75C182.914 442.406 182.99 442.992 183.141 443.508C183.297 444.023 183.518 444.464 183.805 444.828C184.091 445.188 184.432 445.461 184.828 445.648C185.229 445.836 185.672 445.93 186.156 445.93C186.693 445.93 187.128 445.885 187.461 445.797C187.794 445.703 188.055 445.594 188.242 445.469C188.43 445.339 188.573 445.216 188.672 445.102V442.555H186.039V441.336H190.172ZM194.289 435.625V447H192.781V435.625H194.289ZM198.539 435.625V447H197.031V435.625H198.539ZM203.305 440.742V441.977H198.211V440.742H203.305ZM204.078 435.625V436.859H198.211V435.625H204.078Z" fill="#CCCCCC"/>
<circle cx="215.289" cy="387.395" r="2.60526" fill="#EEEEEE"/>
<path d="M216.117 411.547V416H214.617V404.625H218.812C220.057 404.625 221.031 404.943 221.734 405.578C222.443 406.214 222.797 407.055 222.797 408.102C222.797 409.206 222.451 410.057 221.758 410.656C221.07 411.25 220.083 411.547 218.797 411.547H216.117ZM216.117 410.32H218.812C219.615 410.32 220.229 410.133 220.656 409.758C221.083 409.378 221.297 408.831 221.297 408.117C221.297 407.44 221.083 406.898 220.656 406.492C220.229 406.086 219.643 405.875 218.898 405.859H216.117V410.32ZM233.453 416H231.945L226.219 407.234V416H224.711V404.625H226.219L231.961 413.43V404.625H233.453V416ZM244.516 414.508C244.13 415.06 243.591 415.474 242.898 415.75C242.211 416.021 241.409 416.156 240.492 416.156C239.565 416.156 238.742 415.94 238.023 415.508C237.305 415.07 236.747 414.451 236.352 413.648C235.961 412.846 235.76 411.917 235.75 410.859V409.867C235.75 408.154 236.148 406.826 236.945 405.883C237.747 404.94 238.872 404.469 240.32 404.469C241.508 404.469 242.464 404.773 243.188 405.383C243.911 405.987 244.354 406.846 244.516 407.961H243.016C242.734 406.456 241.839 405.703 240.328 405.703C239.323 405.703 238.56 406.057 238.039 406.766C237.523 407.469 237.263 408.49 237.258 409.828V410.758C237.258 412.034 237.549 413.049 238.133 413.805C238.716 414.555 239.505 414.93 240.5 414.93C241.062 414.93 241.555 414.867 241.977 414.742C242.398 414.617 242.747 414.406 243.023 414.109V411.555H240.391V410.336H244.516V414.508Z" fill="black"/>
<path d="M224.68 462.562L226.938 454.625H228.031L227.398 457.711L224.969 466H223.883L224.68 462.562ZM222.344 454.625L224.141 462.406L224.68 466H223.602L220.844 454.625H222.344ZM230.953 462.398L232.711 454.625H234.219L231.469 466H230.391L230.953 462.398ZM228.195 454.625L230.391 462.562L231.188 466H230.102L227.758 457.711L227.117 454.625H228.195ZM243.117 464.773V466H237.094V464.773H243.117ZM237.398 454.625V466H235.891V454.625H237.398ZM242.32 459.516V460.742H237.094V459.516H242.32ZM243.039 454.625V455.859H237.094V454.625H243.039ZM249.039 460.68H246.156L246.141 459.469H248.758C249.19 459.469 249.568 459.396 249.891 459.25C250.214 459.104 250.464 458.896 250.641 458.625C250.823 458.349 250.914 458.021 250.914 457.641C250.914 457.224 250.833 456.885 250.672 456.625C250.516 456.359 250.273 456.167 249.945 456.047C249.622 455.922 249.211 455.859 248.711 455.859H246.492V466H244.984V454.625H248.711C249.294 454.625 249.815 454.685 250.273 454.805C250.732 454.919 251.12 455.102 251.438 455.352C251.76 455.596 252.005 455.909 252.172 456.289C252.339 456.669 252.422 457.125 252.422 457.656C252.422 458.125 252.302 458.549 252.062 458.93C251.823 459.305 251.49 459.612 251.062 459.852C250.641 460.091 250.146 460.245 249.578 460.312L249.039 460.68ZM248.969 466H245.562L246.414 464.773H248.969C249.448 464.773 249.854 464.69 250.188 464.523C250.526 464.357 250.784 464.122 250.961 463.82C251.138 463.513 251.227 463.151 251.227 462.734C251.227 462.312 251.151 461.948 251 461.641C250.849 461.333 250.612 461.096 250.289 460.93C249.966 460.763 249.549 460.68 249.039 460.68H246.891L246.906 459.469H249.844L250.164 459.906C250.711 459.953 251.174 460.109 251.555 460.375C251.935 460.635 252.224 460.969 252.422 461.375C252.625 461.781 252.727 462.229 252.727 462.719C252.727 463.427 252.57 464.026 252.258 464.516C251.951 465 251.516 465.37 250.953 465.625C250.391 465.875 249.729 466 248.969 466Z" fill="#CCCCCC"/>
<rect x="162.5" y="18.5" width="113" height="133" fill="#FFF9DD" stroke="black"/>
<g clip-path="url(#clip0_6_2)">
<path d="M181.5 37C181.5 36.0275 181.895 35.0949 182.598 34.4073C183.302 33.7196 184.255 33.3333 185.25 33.3333C186.245 33.3333 187.198 33.7196 187.902 34.4073C188.605 35.0949 189 36.0275 189 37C189 37.9725 188.605 38.9051 187.902 39.5927C187.198 40.2804 186.245 40.6667 185.25 40.6667C184.255 40.6667 183.302 40.2804 182.598 39.5927C181.895 38.9051 181.5 37.9725 181.5 37Z" fill="#1ABCFE"/>
<path d="M174 44.3333C174 43.3609 174.395 42.4282 175.098 41.7406C175.802 41.053 176.755 40.6667 177.75 40.6667H181.5V44.3333C181.5 45.3058 181.105 46.2384 180.402 46.9261C179.698 47.6137 178.745 48 177.75 48C176.755 48 175.802 47.6137 175.098 46.9261C174.395 46.2384 174 45.3058 174 44.3333V44.3333Z" fill="#0ACF83"/>
<path d="M181.5 26V33.3333H185.25C186.245 33.3333 187.198 32.947 187.902 32.2594C188.605 31.5718 189 30.6391 189 29.6667C189 28.6942 188.605 27.7616 187.902 27.0739C187.198 26.3863 186.245 26 185.25 26H181.5Z" fill="#FF7262"/>
<path d="M174 29.6667C174 30.6391 174.395 31.5718 175.098 32.2594C175.802 32.947 176.755 33.3333 177.75 33.3333H181.5V26H177.75C176.755 26 175.802 26.3863 175.098 27.0739C174.395 27.7616 174 28.6942 174 29.6667V29.6667Z" fill="#F24E1E"/>
<path d="M174 37C174 37.9725 174.395 38.9051 175.098 39.5927C175.802 40.2804 176.755 40.6667 177.75 40.6667H181.5V33.3333H177.75C176.755 33.3333 175.802 33.7196 175.098 34.4073C174.395 35.0949 174 36.0275 174 37V37Z" fill="#A259FF"/>
</g>
<path d="M204.656 27.8594H201V38H199.508V27.8594H195.859V26.625H204.656V27.8594ZM207.688 38H206.242V29.5469H207.688V38ZM206.125 27.3047C206.125 27.0703 206.195 26.8724 206.336 26.7109C206.482 26.5495 206.695 26.4688 206.977 26.4688C207.258 26.4688 207.471 26.5495 207.617 26.7109C207.763 26.8724 207.836 27.0703 207.836 27.3047C207.836 27.5391 207.763 27.7344 207.617 27.8906C207.471 28.0469 207.258 28.125 206.977 28.125C206.695 28.125 206.482 28.0469 206.336 27.8906C206.195 27.7344 206.125 27.5391 206.125 27.3047ZM211.969 27.5V29.5469H213.547V30.6641H211.969V35.9062C211.969 36.2448 212.039 36.5 212.18 36.6719C212.32 36.8385 212.56 36.9219 212.898 36.9219C213.065 36.9219 213.294 36.8906 213.586 36.8281V38C213.206 38.1042 212.836 38.1562 212.477 38.1562C211.831 38.1562 211.344 37.9609 211.016 37.5703C210.688 37.1797 210.523 36.625 210.523 35.9062V30.6641H208.984V29.5469H210.523V27.5H211.969ZM216.812 38H215.367V26H216.812V38ZM222.641 38.1562C221.495 38.1562 220.562 37.7812 219.844 37.0312C219.125 36.276 218.766 35.2682 218.766 34.0078V33.7422C218.766 32.9036 218.924 32.1562 219.242 31.5C219.565 30.8385 220.013 30.3229 220.586 29.9531C221.164 29.5781 221.789 29.3906 222.461 29.3906C223.56 29.3906 224.414 29.7526 225.023 30.4766C225.633 31.2005 225.938 32.237 225.938 33.5859V34.1875H220.211C220.232 35.0208 220.474 35.6953 220.938 36.2109C221.406 36.7214 222 36.9766 222.719 36.9766C223.229 36.9766 223.661 36.8724 224.016 36.6641C224.37 36.4557 224.68 36.1797 224.945 35.8359L225.828 36.5234C225.12 37.612 224.057 38.1562 222.641 38.1562ZM222.461 30.5781C221.878 30.5781 221.388 30.7917 220.992 31.2188C220.596 31.6406 220.352 32.2344 220.258 33H224.492V32.8906C224.451 32.1562 224.253 31.5885 223.898 31.1875C223.544 30.7812 223.065 30.5781 222.461 30.5781Z" fill="black"/>
<path d="M180.354 67.0283H177.84V74H176.814V67.0283H174.306V66.1797H180.354V67.0283ZM183.232 74.1074C182.445 74.1074 181.804 73.8496 181.31 73.334C180.815 72.8148 180.568 72.1219 180.568 71.2554V71.0728C180.568 70.4963 180.678 69.9824 180.896 69.5312C181.118 69.0765 181.426 68.722 181.82 68.4678C182.217 68.21 182.647 68.0811 183.109 68.0811C183.864 68.0811 184.452 68.3299 184.871 68.8276C185.29 69.3254 185.499 70.0379 185.499 70.9653V71.3789H181.562C181.576 71.9518 181.743 72.4155 182.062 72.77C182.384 73.1209 182.792 73.2964 183.286 73.2964C183.637 73.2964 183.934 73.2248 184.178 73.0815C184.421 72.9383 184.634 72.7485 184.817 72.5122L185.424 72.9849C184.937 73.7332 184.206 74.1074 183.232 74.1074ZM183.109 68.8975C182.708 68.8975 182.371 69.0443 182.099 69.3379C181.827 69.6279 181.659 70.0361 181.594 70.5625H184.505V70.4873C184.477 69.9824 184.341 69.5921 184.097 69.3164C183.854 69.0371 183.524 68.8975 183.109 68.8975ZM188.604 70.3101L189.893 68.1885H191.053L189.151 71.062L191.112 74H189.962L188.62 71.8247L187.277 74H186.122L188.083 71.062L186.181 68.1885H187.331L188.604 70.3101ZM193.459 66.7812V68.1885H194.544V68.9565H193.459V72.5605C193.459 72.7933 193.507 72.9688 193.604 73.0869C193.701 73.2015 193.865 73.2588 194.098 73.2588C194.213 73.2588 194.37 73.2373 194.571 73.1943V74C194.309 74.0716 194.055 74.1074 193.808 74.1074C193.364 74.1074 193.029 73.9731 192.804 73.7046C192.578 73.436 192.465 73.0547 192.465 72.5605V68.9565H191.407V68.1885H192.465V66.7812H193.459Z" fill="black"/>
<rect x="174" y="97" width="88" height="44" fill="white"/>
<path d="M207.115 121H206.271V114.602H207.115V121ZM209.299 116.245L209.321 116.772C209.669 116.362 210.14 116.157 210.731 116.157C211.396 116.157 211.849 116.412 212.089 116.922C212.248 116.693 212.453 116.509 212.705 116.368C212.959 116.228 213.26 116.157 213.605 116.157C214.648 116.157 215.179 116.709 215.196 117.814V121H214.383V117.862C214.383 117.522 214.306 117.269 214.15 117.102C213.995 116.932 213.734 116.847 213.368 116.847C213.066 116.847 212.816 116.938 212.617 117.12C212.417 117.298 212.302 117.54 212.27 117.845V121H211.452V117.884C211.452 117.193 211.114 116.847 210.437 116.847C209.904 116.847 209.539 117.074 209.343 117.528V121H208.53V116.245H209.299ZM219.362 121C219.315 120.906 219.277 120.739 219.248 120.499C218.87 120.892 218.419 121.088 217.895 121.088C217.426 121.088 217.041 120.956 216.739 120.692C216.44 120.426 216.291 120.089 216.291 119.682C216.291 119.187 216.478 118.803 216.853 118.53C217.231 118.255 217.761 118.117 218.444 118.117H219.235V117.744C219.235 117.459 219.15 117.234 218.98 117.067C218.81 116.897 218.56 116.812 218.229 116.812C217.938 116.812 217.695 116.885 217.499 117.032C217.303 117.178 217.205 117.355 217.205 117.563H216.387C216.387 117.326 216.471 117.098 216.638 116.878C216.808 116.655 217.036 116.479 217.323 116.351C217.613 116.222 217.931 116.157 218.277 116.157C218.825 116.157 219.254 116.295 219.564 116.57C219.875 116.843 220.036 117.219 220.048 117.7V119.888C220.048 120.325 220.104 120.672 220.215 120.93V121H219.362ZM218.013 120.38C218.268 120.38 218.51 120.314 218.738 120.183C218.967 120.051 219.132 119.879 219.235 119.668V118.693H218.598C217.602 118.693 217.104 118.984 217.104 119.567C217.104 119.822 217.188 120.021 217.358 120.165C217.528 120.309 217.747 120.38 218.013 120.38ZM221.129 118.583C221.129 117.842 221.3 117.253 221.643 116.816C221.986 116.377 222.44 116.157 223.005 116.157C223.585 116.157 224.038 116.362 224.363 116.772L224.403 116.245H225.146V120.886C225.146 121.501 224.962 121.986 224.596 122.34C224.233 122.695 223.744 122.872 223.128 122.872C222.786 122.872 222.45 122.799 222.122 122.652C221.794 122.506 221.543 122.305 221.371 122.05L221.792 121.562C222.141 121.993 222.567 122.208 223.071 122.208C223.467 122.208 223.774 122.097 223.994 121.875C224.217 121.652 224.328 121.338 224.328 120.934V120.525C224.003 120.9 223.559 121.088 222.997 121.088C222.44 121.088 221.989 120.864 221.643 120.416C221.3 119.967 221.129 119.356 221.129 118.583ZM221.946 118.675C221.946 119.211 222.056 119.633 222.276 119.941C222.496 120.246 222.803 120.398 223.199 120.398C223.711 120.398 224.088 120.165 224.328 119.699V117.528C224.079 117.074 223.706 116.847 223.208 116.847C222.812 116.847 222.503 117.001 222.28 117.309C222.058 117.616 221.946 118.072 221.946 118.675ZM228.349 121.088C227.705 121.088 227.18 120.877 226.776 120.455C226.372 120.03 226.169 119.463 226.169 118.754V118.605C226.169 118.133 226.259 117.713 226.438 117.344C226.619 116.972 226.871 116.682 227.193 116.474C227.519 116.263 227.87 116.157 228.248 116.157C228.866 116.157 229.347 116.361 229.689 116.768C230.032 117.175 230.204 117.758 230.204 118.517V118.855H226.982C226.994 119.324 227.13 119.704 227.391 119.994C227.655 120.281 227.989 120.424 228.393 120.424C228.68 120.424 228.923 120.366 229.123 120.249C229.322 120.131 229.496 119.976 229.646 119.783L230.142 120.169C229.744 120.782 229.146 121.088 228.349 121.088ZM228.248 116.825C227.92 116.825 227.645 116.945 227.422 117.186C227.199 117.423 227.062 117.757 227.009 118.188H229.391V118.126C229.367 117.713 229.256 117.394 229.057 117.168C228.857 116.939 228.588 116.825 228.248 116.825Z" fill="black"/>
<rect x="258" y="81" width="4" height="9" fill="#555555"/>
<rect x="253" y="65" width="4" height="25" fill="#555555"/>
<rect x="248" y="86" width="4" height="4" fill="#555555"/>
<rect x="243" y="77" width="4" height="13" fill="#555555"/>
<defs>
<clipPath id="clip0_6_2">
<rect width="15" height="22" fill="white" transform="translate(174 26)"/>
</clipPath>
</defs>
</svg>
